M48
; DRILL file {KiCad (5.1.6)-1} date 05/27/20 17:47:16
; FORMAT={-:-/ absolute / inch / decimal}
; #@! TF.CreationDate,2020-05-27T17:47:16+02:00
; #@! TF.GenerationSoftware,Kicad,Pcbnew,(5.1.6)-1
FMAT,2
INCH
T1C0.0157
T2C0.0295
T3C0.0315
T4C0.0350
T5C0.0394
T6C0.0400
T7C0.0512
T8C0.0551
T9C0.0650
T10C0.1260
T11C0.1280
%
G90
G05
T1
X0.56Y-2.019
X0.666Y-1.906
X0.765Y-3.853
X0.767Y-3.897
X0.833Y-0.981
X0.843Y-1.924
X0.8787Y-0.558
X0.89Y-3.68
X0.893Y-3.566
X0.895Y-0.702
X0.895Y-4.106
X0.9215Y-1.8235
X0.93Y-1.381
X0.94Y-0.892
X0.941Y-1.2
X0.947Y-1.156
X0.969Y-3.565
X0.969Y-3.672
X1.0Y-0.893
X1.002Y-0.945
X1.002Y-1.09
X1.005Y-1.925
X1.022Y-4.027
X1.026Y-1.765
X1.03Y-2.612
X1.045Y-3.489
X1.099Y-0.765
X1.103Y-1.036
X1.1127Y-3.7113
X1.1285Y-0.555
X1.185Y-1.021
X1.33Y-0.786
X1.331Y-0.885
X1.335Y-0.593
X1.3424Y-0.9956
X1.349Y-4.059
X1.389Y-1.0308
X1.394Y-3.683
X1.395Y-0.72
X1.424Y-3.732
X1.472Y-4.155
X1.478Y-4.323
X1.522Y-3.683
X1.551Y-3.648
X1.562Y-0.973
X1.575Y-0.661
X1.589Y-4.22
X1.598Y-1.515
X1.6195Y-3.3945
X1.62Y-1.736
X1.62Y-3.135
X1.627Y-2.258
X1.64Y-4.272
X1.6525Y-2.3775
X1.655Y-2.915
X1.695Y-1.725
X1.7025Y-2.375
X1.734Y-2.189
X1.74Y-1.186
X1.743Y-3.02
X1.751Y-1.954
X1.755Y-2.38
X1.7625Y-2.4275
X1.78Y-1.79
X1.807Y-1.741
X1.82Y-1.8075
X1.8875Y-1.9475
X1.904Y-2.966
X1.92Y-2.0125
X1.945Y-2.2075
X1.958Y-1.343
X1.962Y-1.176
X1.975Y-2.915
X1.975Y-2.948
X1.975Y-2.981
X1.98Y-1.795
X2.0275Y-1.8125
X2.0275Y-2.8675
X2.04Y-2.2075
X2.041Y-1.993
X2.13Y-3.53
X2.159Y-1.914
X2.166Y-1.573
X2.183Y-2.955
X2.19Y-3.061
X2.223Y-2.058
X2.27Y-2.482
X2.272Y-1.571
X2.281Y-1.523
X2.2825Y-3.3475
X2.3125Y-2.7775
X2.315Y-2.5875
X2.34Y-2.2275
X2.404Y-2.448
X2.4625Y-1.025
X2.465Y-3.2317
X2.48Y-2.007
X2.493Y-1.532
X2.5083Y-3.2317
X2.51Y-2.492
X2.515Y-2.835
X2.5583Y-3.2317
X2.564Y-2.448
X2.664Y-3.296
X2.6803Y-2.0528
X2.708Y-2.476
X2.719Y-3.235
X2.7203Y-2.0928
X2.7431Y-2.9231
X2.746Y-2.706
X2.7552Y-2.1277
X2.77Y-0.81
X2.7795Y-3.1625
X2.7825Y-1.605
X2.789Y-1.243
X2.83Y-1.905
X2.841Y-3.111
X2.845Y-1.805
X2.8525Y-2.4275
X2.855Y-2.475
X2.856Y-3.179
X2.862Y-4.125
X2.885Y-1.7075
X3.002Y-1.319
X3.004Y-1.582
X3.006Y-1.454
X3.01Y-1.688
X3.01Y-1.84
X3.012Y-1.98
X3.012Y-2.134
X3.02Y-2.4525
X3.061Y-3.367
X3.069Y-3.589
X3.083Y-2.552
X3.085Y-2.765
X3.1113Y-4.1187
X3.112Y-2.252
X3.125Y-4.0125
X3.134Y-4.314
X3.15Y-1.582
X3.15Y-1.686
X3.1845Y-3.4075
X3.267Y-3.861
X3.293Y-4.194
X3.376Y-2.56
X3.38Y-2.74
X3.414Y-3.858
X3.419Y-1.404
X3.465Y-3.989
X3.473Y-4.217
X3.4775Y-3.7025
X3.4775Y-3.7475
X3.494Y-2.716
X3.52Y-2.752
X3.53Y-3.54
X3.534Y-1.672
X3.534Y-1.862
X3.549Y-2.342
X3.56Y-3.5775
X3.56Y-3.645
X3.57Y-2.6125
X3.5701Y-2.6549
X3.579Y-1.508
X3.5857Y-3.2932
X3.589Y-1.666
X3.6Y-2.004
X3.6175Y-2.6125
X3.6175Y-3.0745
X3.6175Y-3.1135
X3.622Y-1.875
X3.628Y-0.801
X3.643Y-0.649
X3.683Y-3.583
X3.876Y-0.629
X3.88Y-1.062
X3.901Y-0.768
X4.001Y-1.063
X4.029Y-0.766
X4.144Y-1.06
X4.147Y-0.768
X4.245Y-3.615
X4.263Y-1.06
X4.285Y-0.769
X4.345Y-3.769
T2
X1.175Y-0.644
X1.225Y-0.644
X1.275Y-0.644
X0.957Y-0.644
X1.007Y-0.644
X1.057Y-0.644
X3.37Y-1.2525
X3.42Y-1.2525
X3.47Y-1.2525
T3
X3.795Y-0.6213
X3.795Y-0.7
X3.3713Y-1.095
X3.45Y-1.095
X3.1925Y-1.1125
X3.1925Y-1.1912
X2.85Y-1.16
X2.9287Y-1.16
X1.185Y-0.8663
X1.185Y-0.945
X2.1238Y-1.16
X2.2025Y-1.16
X1.44Y-0.8663
X1.44Y-0.945
T4
X3.8025Y-3.8275
X3.8525Y-3.7275
X3.9025Y-3.8275
X3.9525Y-3.7275
X4.0025Y-3.8275
X4.0525Y-3.7275
X4.1025Y-3.8275
X4.1525Y-3.7275
T5
X2.405Y-1.345
X2.505Y-1.345
X2.605Y-1.345
X0.596Y-4.302
X0.696Y-4.302
X0.796Y-4.302
X1.8975Y-2.4575
X1.9334Y-3.9822
X1.9879Y-4.094
X2.0424Y-3.9822
X2.0969Y-4.094
X2.1515Y-3.9822
X2.206Y-4.094
X2.2605Y-3.9822
X2.3151Y-4.094
X2.3696Y-3.9822
X0.596Y-4.016
X0.696Y-4.016
X0.796Y-4.016
X2.22Y-2.5975
X2.22Y-2.6975
X2.22Y-2.7975
X2.22Y-2.8975
X3.72Y-1.19
X3.72Y-1.29
X3.72Y-1.39
X3.72Y-1.49
X3.72Y-1.59
X3.72Y-1.69
X3.72Y-1.79
X3.72Y-1.89
X3.72Y-1.99
X3.72Y-2.09
X3.72Y-2.19
X3.72Y-2.29
X3.72Y-2.39
X3.72Y-2.49
X3.72Y-2.59
X3.72Y-2.69
X3.72Y-2.79
X3.72Y-2.89
X3.72Y-2.99
X3.72Y-3.09
X3.72Y-3.19
X3.72Y-3.29
X3.72Y-3.39
X3.72Y-3.49
X3.82Y-1.19
X3.82Y-1.29
X3.82Y-1.39
X3.82Y-1.49
X3.82Y-1.59
X3.82Y-1.69
X3.82Y-1.79
X3.82Y-1.89
X3.82Y-1.99
X3.82Y-2.09
X3.82Y-2.19
X3.82Y-2.29
X3.82Y-2.39
X3.82Y-2.49
X3.82Y-2.59
X3.82Y-2.69
X3.82Y-2.79
X3.82Y-2.89
X3.82Y-2.99
X3.82Y-3.09
X3.82Y-3.19
X3.82Y-3.29
X3.82Y-3.39
X3.82Y-3.49
X1.12Y-1.19
X1.12Y-1.29
X1.12Y-1.39
X1.12Y-1.49
X1.12Y-1.59
X1.12Y-1.69
X1.12Y-1.79
X1.12Y-1.89
X1.12Y-1.99
X1.12Y-2.09
X1.12Y-2.19
X1.12Y-2.29
X1.12Y-2.39
X1.12Y-2.49
X1.12Y-2.59
X1.12Y-2.69
X1.12Y-2.79
X1.12Y-2.89
X1.12Y-2.99
X1.12Y-3.09
X1.12Y-3.19
X1.12Y-3.29
X1.12Y-3.39
X1.12Y-3.49
X1.22Y-1.19
X1.22Y-1.29
X1.22Y-1.39
X1.22Y-1.49
X1.22Y-1.59
X1.22Y-1.69
X1.22Y-1.79
X1.22Y-1.89
X1.22Y-1.99
X1.22Y-2.09
X1.22Y-2.19
X1.22Y-2.29
X1.22Y-2.39
X1.22Y-2.49
X1.22Y-2.59
X1.22Y-2.69
X1.22Y-2.79
X1.22Y-2.89
X1.22Y-2.99
X1.22Y-3.09
X1.22Y-3.19
X1.22Y-3.29
X1.22Y-3.39
X1.22Y-3.49
X0.596Y-4.158
X0.696Y-4.158
X0.796Y-4.158
X2.2325Y-1.625
X2.2325Y-1.725
X2.2325Y-1.825
X2.2325Y-1.925
X3.9675Y-0.9675
X4.0675Y-0.9675
X1.42Y-1.19
X1.42Y-1.29
X1.42Y-1.39
X1.42Y-1.49
X1.42Y-1.59
X1.42Y-1.69
X1.42Y-1.79
X1.42Y-1.89
X1.42Y-1.99
X1.42Y-2.09
X1.42Y-2.19
X1.42Y-2.29
X1.42Y-2.39
X1.42Y-2.49
X1.42Y-2.59
X1.42Y-2.69
X1.42Y-2.79
X1.42Y-2.89
X1.42Y-2.99
X1.42Y-3.09
X1.42Y-3.19
X1.42Y-3.29
X1.42Y-3.39
X1.42Y-3.49
X1.52Y-1.19
X1.52Y-1.29
X1.52Y-1.39
X1.52Y-1.49
X1.52Y-1.59
X1.52Y-1.69
X1.52Y-1.79
X1.52Y-1.89
X1.52Y-1.99
X1.52Y-2.09
X1.52Y-2.19
X1.52Y-2.29
X1.52Y-2.39
X1.52Y-2.49
X1.52Y-2.59
X1.52Y-2.69
X1.52Y-2.79
X1.52Y-2.89
X1.52Y-2.99
X1.52Y-3.09
X1.52Y-3.19
X1.52Y-3.29
X1.52Y-3.39
X1.52Y-3.49
X1.621Y-3.814
X2.84Y-2.7025
X1.67Y-3.4875
X1.77Y-3.4875
X1.87Y-3.4875
X1.97Y-3.4875
X4.02Y-1.19
X4.02Y-1.29
X4.02Y-1.39
X4.02Y-1.49
X4.02Y-1.59
X4.02Y-1.69
X4.02Y-1.79
X4.02Y-1.89
X4.02Y-1.99
X4.02Y-2.09
X4.02Y-2.19
X4.02Y-2.29
X4.02Y-2.39
X4.02Y-2.49
X4.02Y-2.59
X4.02Y-2.69
X4.02Y-2.79
X4.02Y-2.89
X4.02Y-2.99
X4.02Y-3.09
X4.02Y-3.19
X4.02Y-3.29
X4.02Y-3.39
X4.02Y-3.49
X4.12Y-1.19
X4.12Y-1.29
X4.12Y-1.39
X4.12Y-1.49
X4.12Y-1.59
X4.12Y-1.69
X4.12Y-1.79
X4.12Y-1.89
X4.12Y-1.99
X4.12Y-2.09
X4.12Y-2.19
X4.12Y-2.29
X4.12Y-2.39
X4.12Y-2.49
X4.12Y-2.59
X4.12Y-2.69
X4.12Y-2.79
X4.12Y-2.89
X4.12Y-2.99
X4.12Y-3.09
X4.12Y-3.19
X4.12Y-3.29
X4.12Y-3.39
X4.12Y-3.49
T6
X3.7285Y-4.2395
X3.8275Y-4.2395
X4.1265Y-4.2395
X4.2255Y-4.2395
T7
X0.667Y-2.022
X0.667Y-2.222
X0.667Y-2.422
X0.667Y-2.622
X0.667Y-2.822
X0.667Y-3.022
X0.667Y-3.222
X0.667Y-3.422
X0.667Y-3.622
X0.667Y-3.822
X0.667Y-0.781
X0.667Y-0.981
X0.667Y-1.181
X0.667Y-1.381
X0.667Y-1.581
X0.667Y-1.781
T8
X1.7082Y-0.701
X1.7082Y-0.9175
X1.8736Y-0.701
X1.8736Y-0.9175
X2.0389Y-0.701
X2.0389Y-0.9175
X2.2043Y-0.701
X2.2043Y-0.9175
X2.3696Y-0.701
X2.3696Y-0.9175
X2.535Y-0.701
X2.535Y-0.9175
X2.7004Y-0.701
X2.7004Y-0.9175
X2.8657Y-0.701
X2.8657Y-0.9175
X3.0311Y-0.701
X3.0311Y-0.9175
X3.1964Y-0.701
X3.1964Y-0.9175
X3.3618Y-0.701
X3.3618Y-0.9175
X3.5271Y-0.701
X3.5271Y-0.9175
T9
X3.6675Y-3.9245
X4.2875Y-3.9245
T10
X1.6593Y-4.0381
X2.6436Y-4.0381
T11
X3.7525Y-4.0775
X4.2025Y-4.0775
T0
M30
