G04 #@! TF.GenerationSoftware,KiCad,Pcbnew,5.1.5+dfsg1-2build2*
G04 #@! TF.CreationDate,2022-01-22T21:41:21+01:00*
G04 #@! TF.ProjectId,lightcontroll,6c696768-7463-46f6-9e74-726f6c6c2e6b,rev?*
G04 #@! TF.SameCoordinates,Original*
G04 #@! TF.FileFunction,Legend,Bot*
G04 #@! TF.FilePolarity,Positive*
%FSLAX46Y46*%
G04 Gerber Fmt 4.6, Leading zero omitted, Abs format (unit mm)*
G04 Created by KiCad (PCBNEW 5.1.5+dfsg1-2build2) date 2022-01-22 21:41:21*
%MOMM*%
%LPD*%
G04 APERTURE LIST*
%ADD10C,0.300000*%
%ADD11O,1.802000X1.802000*%
%ADD12R,1.802000X1.802000*%
%ADD13R,1.152000X1.602000*%
%ADD14O,1.152000X1.602000*%
%ADD15C,2.602000*%
%ADD16R,2.602000X2.602000*%
%ADD17C,4.102000*%
%ADD18C,1.702000*%
%ADD19R,1.702000X1.702000*%
%ADD20C,3.353200*%
%ADD21C,2.642000*%
%ADD22C,2.134000*%
%ADD23C,1.880000*%
%ADD24R,1.880000X1.880000*%
%ADD25O,2.802000X3.402000*%
%ADD26C,0.100000*%
G04 APERTURE END LIST*
D10*
X26929885Y-20693771D02*
X26929885Y-19193771D01*
X26358457Y-19193771D01*
X26215600Y-19265200D01*
X26144171Y-19336628D01*
X26072742Y-19479485D01*
X26072742Y-19693771D01*
X26144171Y-19836628D01*
X26215600Y-19908057D01*
X26358457Y-19979485D01*
X26929885Y-19979485D01*
X25429885Y-19908057D02*
X24929885Y-19908057D01*
X24715600Y-20693771D02*
X25429885Y-20693771D01*
X25429885Y-19193771D01*
X24715600Y-19193771D01*
X23429885Y-19193771D02*
X23715600Y-19193771D01*
X23858457Y-19265200D01*
X23929885Y-19336628D01*
X24072742Y-19550914D01*
X24144171Y-19836628D01*
X24144171Y-20408057D01*
X24072742Y-20550914D01*
X24001314Y-20622342D01*
X23858457Y-20693771D01*
X23572742Y-20693771D01*
X23429885Y-20622342D01*
X23358457Y-20550914D01*
X23287028Y-20408057D01*
X23287028Y-20050914D01*
X23358457Y-19908057D01*
X23429885Y-19836628D01*
X23572742Y-19765200D01*
X23858457Y-19765200D01*
X24001314Y-19836628D01*
X24072742Y-19908057D01*
X24144171Y-20050914D01*
X23001314Y-20836628D02*
X21858457Y-20836628D01*
X20787028Y-19193771D02*
X21501314Y-19193771D01*
X21572742Y-19908057D01*
X21501314Y-19836628D01*
X21358457Y-19765200D01*
X21001314Y-19765200D01*
X20858457Y-19836628D01*
X20787028Y-19908057D01*
X20715600Y-20050914D01*
X20715600Y-20408057D01*
X20787028Y-20550914D01*
X20858457Y-20622342D01*
X21001314Y-20693771D01*
X21358457Y-20693771D01*
X21501314Y-20622342D01*
X21572742Y-20550914D01*
X20287028Y-19193771D02*
X19787028Y-20693771D01*
X19287028Y-19193771D01*
X26777485Y-25748371D02*
X26777485Y-24248371D01*
X26206057Y-24248371D01*
X26063200Y-24319800D01*
X25991771Y-24391228D01*
X25920342Y-24534085D01*
X25920342Y-24748371D01*
X25991771Y-24891228D01*
X26063200Y-24962657D01*
X26206057Y-25034085D01*
X26777485Y-25034085D01*
X25277485Y-24962657D02*
X24777485Y-24962657D01*
X24563200Y-25748371D02*
X25277485Y-25748371D01*
X25277485Y-24248371D01*
X24563200Y-24248371D01*
X23206057Y-24248371D02*
X23920342Y-24248371D01*
X23991771Y-24962657D01*
X23920342Y-24891228D01*
X23777485Y-24819800D01*
X23420342Y-24819800D01*
X23277485Y-24891228D01*
X23206057Y-24962657D01*
X23134628Y-25105514D01*
X23134628Y-25462657D01*
X23206057Y-25605514D01*
X23277485Y-25676942D01*
X23420342Y-25748371D01*
X23777485Y-25748371D01*
X23920342Y-25676942D01*
X23991771Y-25605514D01*
X22848914Y-25891228D02*
X21706057Y-25891228D01*
X20634628Y-24248371D02*
X21348914Y-24248371D01*
X21420342Y-24962657D01*
X21348914Y-24891228D01*
X21206057Y-24819800D01*
X20848914Y-24819800D01*
X20706057Y-24891228D01*
X20634628Y-24962657D01*
X20563200Y-25105514D01*
X20563200Y-25462657D01*
X20634628Y-25605514D01*
X20706057Y-25676942D01*
X20848914Y-25748371D01*
X21206057Y-25748371D01*
X21348914Y-25676942D01*
X21420342Y-25605514D01*
X20134628Y-24248371D02*
X19634628Y-25748371D01*
X19134628Y-24248371D01*
X23096314Y-35984571D02*
X23096314Y-34484571D01*
X22524885Y-34484571D01*
X22382028Y-34556000D01*
X22310600Y-34627428D01*
X22239171Y-34770285D01*
X22239171Y-34984571D01*
X22310600Y-35127428D01*
X22382028Y-35198857D01*
X22524885Y-35270285D01*
X23096314Y-35270285D01*
X21596314Y-35198857D02*
X21096314Y-35198857D01*
X20882028Y-35984571D02*
X21596314Y-35984571D01*
X21596314Y-34484571D01*
X20882028Y-34484571D01*
X20310600Y-34627428D02*
X20239171Y-34556000D01*
X20096314Y-34484571D01*
X19739171Y-34484571D01*
X19596314Y-34556000D01*
X19524885Y-34627428D01*
X19453457Y-34770285D01*
X19453457Y-34913142D01*
X19524885Y-35127428D01*
X20382028Y-35984571D01*
X19453457Y-35984571D01*
X23045514Y-46144571D02*
X23045514Y-44644571D01*
X22474085Y-44644571D01*
X22331228Y-44716000D01*
X22259800Y-44787428D01*
X22188371Y-44930285D01*
X22188371Y-45144571D01*
X22259800Y-45287428D01*
X22331228Y-45358857D01*
X22474085Y-45430285D01*
X23045514Y-45430285D01*
X21545514Y-45358857D02*
X21045514Y-45358857D01*
X20831228Y-46144571D02*
X21545514Y-46144571D01*
X21545514Y-44644571D01*
X20831228Y-44644571D01*
X19545514Y-45144571D02*
X19545514Y-46144571D01*
X19902657Y-44573142D02*
X20259800Y-45644571D01*
X19331228Y-45644571D01*
X22453457Y-29679200D02*
X22596314Y-29607771D01*
X22810600Y-29607771D01*
X23024885Y-29679200D01*
X23167742Y-29822057D01*
X23239171Y-29964914D01*
X23310600Y-30250628D01*
X23310600Y-30464914D01*
X23239171Y-30750628D01*
X23167742Y-30893485D01*
X23024885Y-31036342D01*
X22810600Y-31107771D01*
X22667742Y-31107771D01*
X22453457Y-31036342D01*
X22382028Y-30964914D01*
X22382028Y-30464914D01*
X22667742Y-30464914D01*
X21739171Y-31107771D02*
X21739171Y-29607771D01*
X20882028Y-31107771D01*
X20882028Y-29607771D01*
X20167742Y-31107771D02*
X20167742Y-29607771D01*
X19810600Y-29607771D01*
X19596314Y-29679200D01*
X19453457Y-29822057D01*
X19382028Y-29964914D01*
X19310600Y-30250628D01*
X19310600Y-30464914D01*
X19382028Y-30750628D01*
X19453457Y-30893485D01*
X19596314Y-31036342D01*
X19810600Y-31107771D01*
X20167742Y-31107771D01*
X22453457Y-39610600D02*
X22596314Y-39539171D01*
X22810600Y-39539171D01*
X23024885Y-39610600D01*
X23167742Y-39753457D01*
X23239171Y-39896314D01*
X23310600Y-40182028D01*
X23310600Y-40396314D01*
X23239171Y-40682028D01*
X23167742Y-40824885D01*
X23024885Y-40967742D01*
X22810600Y-41039171D01*
X22667742Y-41039171D01*
X22453457Y-40967742D01*
X22382028Y-40896314D01*
X22382028Y-40396314D01*
X22667742Y-40396314D01*
X21739171Y-41039171D02*
X21739171Y-39539171D01*
X20882028Y-41039171D01*
X20882028Y-39539171D01*
X20167742Y-41039171D02*
X20167742Y-39539171D01*
X19810600Y-39539171D01*
X19596314Y-39610600D01*
X19453457Y-39753457D01*
X19382028Y-39896314D01*
X19310600Y-40182028D01*
X19310600Y-40396314D01*
X19382028Y-40682028D01*
X19453457Y-40824885D01*
X19596314Y-40967742D01*
X19810600Y-41039171D01*
X20167742Y-41039171D01*
X22326457Y-96430400D02*
X22469314Y-96358971D01*
X22683600Y-96358971D01*
X22897885Y-96430400D01*
X23040742Y-96573257D01*
X23112171Y-96716114D01*
X23183600Y-97001828D01*
X23183600Y-97216114D01*
X23112171Y-97501828D01*
X23040742Y-97644685D01*
X22897885Y-97787542D01*
X22683600Y-97858971D01*
X22540742Y-97858971D01*
X22326457Y-97787542D01*
X22255028Y-97716114D01*
X22255028Y-97216114D01*
X22540742Y-97216114D01*
X21612171Y-97858971D02*
X21612171Y-96358971D01*
X20755028Y-97858971D01*
X20755028Y-96358971D01*
X20040742Y-97858971D02*
X20040742Y-96358971D01*
X19683600Y-96358971D01*
X19469314Y-96430400D01*
X19326457Y-96573257D01*
X19255028Y-96716114D01*
X19183600Y-97001828D01*
X19183600Y-97216114D01*
X19255028Y-97501828D01*
X19326457Y-97644685D01*
X19469314Y-97787542D01*
X19683600Y-97858971D01*
X20040742Y-97858971D01*
X22555057Y-86372000D02*
X22697914Y-86300571D01*
X22912200Y-86300571D01*
X23126485Y-86372000D01*
X23269342Y-86514857D01*
X23340771Y-86657714D01*
X23412200Y-86943428D01*
X23412200Y-87157714D01*
X23340771Y-87443428D01*
X23269342Y-87586285D01*
X23126485Y-87729142D01*
X22912200Y-87800571D01*
X22769342Y-87800571D01*
X22555057Y-87729142D01*
X22483628Y-87657714D01*
X22483628Y-87157714D01*
X22769342Y-87157714D01*
X21840771Y-87800571D02*
X21840771Y-86300571D01*
X20983628Y-87800571D01*
X20983628Y-86300571D01*
X20269342Y-87800571D02*
X20269342Y-86300571D01*
X19912200Y-86300571D01*
X19697914Y-86372000D01*
X19555057Y-86514857D01*
X19483628Y-86657714D01*
X19412200Y-86943428D01*
X19412200Y-87157714D01*
X19483628Y-87443428D01*
X19555057Y-87586285D01*
X19697914Y-87729142D01*
X19912200Y-87800571D01*
X20269342Y-87800571D01*
X22402657Y-76237400D02*
X22545514Y-76165971D01*
X22759800Y-76165971D01*
X22974085Y-76237400D01*
X23116942Y-76380257D01*
X23188371Y-76523114D01*
X23259800Y-76808828D01*
X23259800Y-77023114D01*
X23188371Y-77308828D01*
X23116942Y-77451685D01*
X22974085Y-77594542D01*
X22759800Y-77665971D01*
X22616942Y-77665971D01*
X22402657Y-77594542D01*
X22331228Y-77523114D01*
X22331228Y-77023114D01*
X22616942Y-77023114D01*
X21688371Y-77665971D02*
X21688371Y-76165971D01*
X20831228Y-77665971D01*
X20831228Y-76165971D01*
X20116942Y-77665971D02*
X20116942Y-76165971D01*
X19759800Y-76165971D01*
X19545514Y-76237400D01*
X19402657Y-76380257D01*
X19331228Y-76523114D01*
X19259800Y-76808828D01*
X19259800Y-77023114D01*
X19331228Y-77308828D01*
X19402657Y-77451685D01*
X19545514Y-77594542D01*
X19759800Y-77665971D01*
X20116942Y-77665971D01*
X22555057Y-65950400D02*
X22697914Y-65878971D01*
X22912200Y-65878971D01*
X23126485Y-65950400D01*
X23269342Y-66093257D01*
X23340771Y-66236114D01*
X23412200Y-66521828D01*
X23412200Y-66736114D01*
X23340771Y-67021828D01*
X23269342Y-67164685D01*
X23126485Y-67307542D01*
X22912200Y-67378971D01*
X22769342Y-67378971D01*
X22555057Y-67307542D01*
X22483628Y-67236114D01*
X22483628Y-66736114D01*
X22769342Y-66736114D01*
X21840771Y-67378971D02*
X21840771Y-65878971D01*
X20983628Y-67378971D01*
X20983628Y-65878971D01*
X20269342Y-67378971D02*
X20269342Y-65878971D01*
X19912200Y-65878971D01*
X19697914Y-65950400D01*
X19555057Y-66093257D01*
X19483628Y-66236114D01*
X19412200Y-66521828D01*
X19412200Y-66736114D01*
X19483628Y-67021828D01*
X19555057Y-67164685D01*
X19697914Y-67307542D01*
X19912200Y-67378971D01*
X20269342Y-67378971D01*
X22656657Y-55815800D02*
X22799514Y-55744371D01*
X23013800Y-55744371D01*
X23228085Y-55815800D01*
X23370942Y-55958657D01*
X23442371Y-56101514D01*
X23513800Y-56387228D01*
X23513800Y-56601514D01*
X23442371Y-56887228D01*
X23370942Y-57030085D01*
X23228085Y-57172942D01*
X23013800Y-57244371D01*
X22870942Y-57244371D01*
X22656657Y-57172942D01*
X22585228Y-57101514D01*
X22585228Y-56601514D01*
X22870942Y-56601514D01*
X21942371Y-57244371D02*
X21942371Y-55744371D01*
X21085228Y-57244371D01*
X21085228Y-55744371D01*
X20370942Y-57244371D02*
X20370942Y-55744371D01*
X20013800Y-55744371D01*
X19799514Y-55815800D01*
X19656657Y-55958657D01*
X19585228Y-56101514D01*
X19513800Y-56387228D01*
X19513800Y-56601514D01*
X19585228Y-56887228D01*
X19656657Y-57030085D01*
X19799514Y-57172942D01*
X20013800Y-57244371D01*
X20370942Y-57244371D01*
X20681914Y-91202771D02*
X21396200Y-91202771D01*
X21467628Y-91917057D01*
X21396200Y-91845628D01*
X21253342Y-91774200D01*
X20896200Y-91774200D01*
X20753342Y-91845628D01*
X20681914Y-91917057D01*
X20610485Y-92059914D01*
X20610485Y-92417057D01*
X20681914Y-92559914D01*
X20753342Y-92631342D01*
X20896200Y-92702771D01*
X21253342Y-92702771D01*
X21396200Y-92631342D01*
X21467628Y-92559914D01*
X20181914Y-91202771D02*
X19681914Y-92702771D01*
X19181914Y-91202771D01*
X20935914Y-80788771D02*
X21650200Y-80788771D01*
X21721628Y-81503057D01*
X21650200Y-81431628D01*
X21507342Y-81360200D01*
X21150200Y-81360200D01*
X21007342Y-81431628D01*
X20935914Y-81503057D01*
X20864485Y-81645914D01*
X20864485Y-82003057D01*
X20935914Y-82145914D01*
X21007342Y-82217342D01*
X21150200Y-82288771D01*
X21507342Y-82288771D01*
X21650200Y-82217342D01*
X21721628Y-82145914D01*
X20435914Y-80788771D02*
X19935914Y-82288771D01*
X19435914Y-80788771D01*
X20986714Y-70908171D02*
X21701000Y-70908171D01*
X21772428Y-71622457D01*
X21701000Y-71551028D01*
X21558142Y-71479600D01*
X21201000Y-71479600D01*
X21058142Y-71551028D01*
X20986714Y-71622457D01*
X20915285Y-71765314D01*
X20915285Y-72122457D01*
X20986714Y-72265314D01*
X21058142Y-72336742D01*
X21201000Y-72408171D01*
X21558142Y-72408171D01*
X21701000Y-72336742D01*
X21772428Y-72265314D01*
X20486714Y-70908171D02*
X19986714Y-72408171D01*
X19486714Y-70908171D01*
X22315371Y-62146571D02*
X23172514Y-62146571D01*
X22743942Y-62146571D02*
X22743942Y-60646571D01*
X22886800Y-60860857D01*
X23029657Y-61003714D01*
X23172514Y-61075142D01*
X21743942Y-60789428D02*
X21672514Y-60718000D01*
X21529657Y-60646571D01*
X21172514Y-60646571D01*
X21029657Y-60718000D01*
X20958228Y-60789428D01*
X20886800Y-60932285D01*
X20886800Y-61075142D01*
X20958228Y-61289428D01*
X21815371Y-62146571D01*
X20886800Y-62146571D01*
X20458228Y-60646571D02*
X19958228Y-62146571D01*
X19458228Y-60646571D01*
X22010571Y-52037371D02*
X22867714Y-52037371D01*
X22439142Y-52037371D02*
X22439142Y-50537371D01*
X22582000Y-50751657D01*
X22724857Y-50894514D01*
X22867714Y-50965942D01*
X21439142Y-50680228D02*
X21367714Y-50608800D01*
X21224857Y-50537371D01*
X20867714Y-50537371D01*
X20724857Y-50608800D01*
X20653428Y-50680228D01*
X20582000Y-50823085D01*
X20582000Y-50965942D01*
X20653428Y-51180228D01*
X21510571Y-52037371D01*
X20582000Y-52037371D01*
X20153428Y-50537371D02*
X19653428Y-52037371D01*
X19153428Y-50537371D01*
%LPC*%
D11*
X81089500Y-30797500D03*
D12*
X81089500Y-28257500D03*
D11*
X88170000Y-27914600D03*
D12*
X85630000Y-27914600D03*
D11*
X78206600Y-54787800D03*
X78206600Y-52247800D03*
D12*
X78206600Y-49707800D03*
D13*
X24307800Y-16357600D03*
D14*
X26847800Y-16357600D03*
X25577800Y-16357600D03*
D13*
X29845000Y-16357600D03*
D14*
X32385000Y-16357600D03*
X31115000Y-16357600D03*
D15*
X16941800Y-19837400D03*
X16941800Y-24917400D03*
X16941800Y-29997400D03*
X16941800Y-35077400D03*
X16941800Y-40157400D03*
D16*
X16941800Y-45237400D03*
D15*
X16941800Y-51358800D03*
X16941800Y-56438800D03*
X16941800Y-61518800D03*
X16941800Y-66598800D03*
X16941800Y-71678800D03*
X16941800Y-76758800D03*
X16941800Y-81838800D03*
X16941800Y-86918800D03*
X16941800Y-91998800D03*
D16*
X16941800Y-97078800D03*
D17*
X67147400Y-102567600D03*
X42147400Y-102567600D03*
D18*
X58802400Y-103987600D03*
X56032400Y-103987600D03*
X53262400Y-103987600D03*
X50492400Y-103987600D03*
X60187400Y-101147600D03*
X57417400Y-101147600D03*
X54647400Y-101147600D03*
X51877400Y-101147600D03*
D19*
X49107400Y-101147600D03*
D20*
X106743500Y-103568500D03*
X95313500Y-103568500D03*
D21*
X108902500Y-99682300D03*
X93154500Y-99682300D03*
D22*
X104813100Y-107683300D03*
X107327700Y-107683300D03*
X97218500Y-107683300D03*
X94703900Y-107683300D03*
D23*
X105473500Y-94678500D03*
X104203500Y-97218500D03*
X102933500Y-94678500D03*
X101663500Y-97218500D03*
X100393500Y-94678500D03*
X99123500Y-97218500D03*
X97853500Y-94678500D03*
D24*
X96583500Y-97218500D03*
D11*
X97028000Y-88646000D03*
X94488000Y-88646000D03*
X97028000Y-86106000D03*
X94488000Y-86106000D03*
X97028000Y-83566000D03*
X94488000Y-83566000D03*
X97028000Y-81026000D03*
X94488000Y-81026000D03*
X97028000Y-78486000D03*
X94488000Y-78486000D03*
X97028000Y-75946000D03*
X94488000Y-75946000D03*
X97028000Y-73406000D03*
X94488000Y-73406000D03*
X97028000Y-70866000D03*
X94488000Y-70866000D03*
X97028000Y-68326000D03*
X94488000Y-68326000D03*
X97028000Y-65786000D03*
X94488000Y-65786000D03*
X97028000Y-63246000D03*
X94488000Y-63246000D03*
X97028000Y-60706000D03*
X94488000Y-60706000D03*
X97028000Y-58166000D03*
X94488000Y-58166000D03*
X97028000Y-55626000D03*
X94488000Y-55626000D03*
X97028000Y-53086000D03*
X94488000Y-53086000D03*
X97028000Y-50546000D03*
X94488000Y-50546000D03*
X97028000Y-48006000D03*
X94488000Y-48006000D03*
X97028000Y-45466000D03*
X94488000Y-45466000D03*
X97028000Y-42926000D03*
X94488000Y-42926000D03*
X97028000Y-40386000D03*
X94488000Y-40386000D03*
X97028000Y-37846000D03*
X94488000Y-37846000D03*
X97028000Y-35306000D03*
X94488000Y-35306000D03*
X97028000Y-32766000D03*
X94488000Y-32766000D03*
X97028000Y-30226000D03*
D12*
X94488000Y-30226000D03*
D11*
X42418000Y-88582500D03*
X44958000Y-88582500D03*
X47498000Y-88582500D03*
D12*
X50038000Y-88582500D03*
D11*
X56388000Y-73596500D03*
X56388000Y-71056500D03*
X56388000Y-68516500D03*
D12*
X56388000Y-65976500D03*
D11*
X56705500Y-41275000D03*
X56705500Y-43815000D03*
X56705500Y-46355000D03*
D12*
X56705500Y-48895000D03*
D25*
X43389000Y-17804500D03*
X47589000Y-17804500D03*
X51789000Y-17804500D03*
X55989000Y-17804500D03*
X60189000Y-17804500D03*
X64389000Y-17804500D03*
X68589000Y-17804500D03*
X72789000Y-17804500D03*
X76989000Y-17804500D03*
X81189000Y-17804500D03*
X85389000Y-17804500D03*
X89589000Y-17804500D03*
X43389000Y-23304500D03*
X47589000Y-23304500D03*
X51789000Y-23304500D03*
X55989000Y-23304500D03*
X60189000Y-23304500D03*
X64389000Y-23304500D03*
X68589000Y-23304500D03*
X72789000Y-23304500D03*
X76989000Y-23304500D03*
X81189000Y-23304500D03*
X85389000Y-23304500D03*
D26*
G36*
X90755985Y-21604749D02*
G01*
X90781170Y-21608485D01*
X90805868Y-21614672D01*
X90829840Y-21623249D01*
X90852857Y-21634135D01*
X90874695Y-21647224D01*
X90895145Y-21662391D01*
X90914010Y-21679490D01*
X90931109Y-21698355D01*
X90946276Y-21718805D01*
X90959365Y-21740643D01*
X90970251Y-21763660D01*
X90978828Y-21787632D01*
X90985015Y-21812330D01*
X90988751Y-21837515D01*
X90990000Y-21862945D01*
X90990000Y-24746055D01*
X90988751Y-24771485D01*
X90985015Y-24796670D01*
X90978828Y-24821368D01*
X90970251Y-24845340D01*
X90959365Y-24868357D01*
X90946276Y-24890195D01*
X90931109Y-24910645D01*
X90914010Y-24929510D01*
X90895145Y-24946609D01*
X90874695Y-24961776D01*
X90852857Y-24974865D01*
X90829840Y-24985751D01*
X90805868Y-24994328D01*
X90781170Y-25000515D01*
X90755985Y-25004251D01*
X90730555Y-25005500D01*
X88447445Y-25005500D01*
X88422015Y-25004251D01*
X88396830Y-25000515D01*
X88372132Y-24994328D01*
X88348160Y-24985751D01*
X88325143Y-24974865D01*
X88303305Y-24961776D01*
X88282855Y-24946609D01*
X88263990Y-24929510D01*
X88246891Y-24910645D01*
X88231724Y-24890195D01*
X88218635Y-24868357D01*
X88207749Y-24845340D01*
X88199172Y-24821368D01*
X88192985Y-24796670D01*
X88189249Y-24771485D01*
X88188000Y-24746055D01*
X88188000Y-21862945D01*
X88189249Y-21837515D01*
X88192985Y-21812330D01*
X88199172Y-21787632D01*
X88207749Y-21763660D01*
X88218635Y-21740643D01*
X88231724Y-21718805D01*
X88246891Y-21698355D01*
X88263990Y-21679490D01*
X88282855Y-21662391D01*
X88303305Y-21647224D01*
X88325143Y-21634135D01*
X88348160Y-21623249D01*
X88372132Y-21614672D01*
X88396830Y-21608485D01*
X88422015Y-21604749D01*
X88447445Y-21603500D01*
X90730555Y-21603500D01*
X90755985Y-21604749D01*
G37*
D13*
X88138000Y-31813500D03*
D14*
X85598000Y-31813500D03*
X86868000Y-31813500D03*
D11*
X15138400Y-105613200D03*
X17678400Y-105613200D03*
D12*
X20218400Y-105613200D03*
X41173400Y-96875600D03*
D11*
X15138400Y-109270800D03*
X17678400Y-109270800D03*
D12*
X20218400Y-109270800D03*
D11*
X15138400Y-102006400D03*
X17678400Y-102006400D03*
D12*
X20218400Y-102006400D03*
X48196500Y-62420500D03*
X72136000Y-68643500D03*
D11*
X104648000Y-88646000D03*
X102108000Y-88646000D03*
X104648000Y-86106000D03*
X102108000Y-86106000D03*
X104648000Y-83566000D03*
X102108000Y-83566000D03*
X104648000Y-81026000D03*
X102108000Y-81026000D03*
X104648000Y-78486000D03*
X102108000Y-78486000D03*
X104648000Y-75946000D03*
X102108000Y-75946000D03*
X104648000Y-73406000D03*
X102108000Y-73406000D03*
X104648000Y-70866000D03*
X102108000Y-70866000D03*
X104648000Y-68326000D03*
X102108000Y-68326000D03*
X104648000Y-65786000D03*
X102108000Y-65786000D03*
X104648000Y-63246000D03*
X102108000Y-63246000D03*
X104648000Y-60706000D03*
X102108000Y-60706000D03*
X104648000Y-58166000D03*
X102108000Y-58166000D03*
X104648000Y-55626000D03*
X102108000Y-55626000D03*
X104648000Y-53086000D03*
X102108000Y-53086000D03*
X104648000Y-50546000D03*
X102108000Y-50546000D03*
X104648000Y-48006000D03*
X102108000Y-48006000D03*
X104648000Y-45466000D03*
X102108000Y-45466000D03*
X104648000Y-42926000D03*
X102108000Y-42926000D03*
X104648000Y-40386000D03*
X102108000Y-40386000D03*
X104648000Y-37846000D03*
X102108000Y-37846000D03*
X104648000Y-35306000D03*
X102108000Y-35306000D03*
X104648000Y-32766000D03*
X102108000Y-32766000D03*
X104648000Y-30226000D03*
D12*
X102108000Y-30226000D03*
D11*
X100774500Y-24574500D03*
D12*
X103314500Y-24574500D03*
D11*
X38608000Y-88646000D03*
X36068000Y-88646000D03*
X38608000Y-86106000D03*
X36068000Y-86106000D03*
X38608000Y-83566000D03*
X36068000Y-83566000D03*
X38608000Y-81026000D03*
X36068000Y-81026000D03*
X38608000Y-78486000D03*
X36068000Y-78486000D03*
X38608000Y-75946000D03*
X36068000Y-75946000D03*
X38608000Y-73406000D03*
X36068000Y-73406000D03*
X38608000Y-70866000D03*
X36068000Y-70866000D03*
X38608000Y-68326000D03*
X36068000Y-68326000D03*
X38608000Y-65786000D03*
X36068000Y-65786000D03*
X38608000Y-63246000D03*
X36068000Y-63246000D03*
X38608000Y-60706000D03*
X36068000Y-60706000D03*
X38608000Y-58166000D03*
X36068000Y-58166000D03*
X38608000Y-55626000D03*
X36068000Y-55626000D03*
X38608000Y-53086000D03*
X36068000Y-53086000D03*
X38608000Y-50546000D03*
X36068000Y-50546000D03*
X38608000Y-48006000D03*
X36068000Y-48006000D03*
X38608000Y-45466000D03*
X36068000Y-45466000D03*
X38608000Y-42926000D03*
X36068000Y-42926000D03*
X38608000Y-40386000D03*
X36068000Y-40386000D03*
X38608000Y-37846000D03*
X36068000Y-37846000D03*
X38608000Y-35306000D03*
X36068000Y-35306000D03*
X38608000Y-32766000D03*
X36068000Y-32766000D03*
X38608000Y-30226000D03*
D12*
X36068000Y-30226000D03*
D11*
X30988000Y-88646000D03*
X28448000Y-88646000D03*
X30988000Y-86106000D03*
X28448000Y-86106000D03*
X30988000Y-83566000D03*
X28448000Y-83566000D03*
X30988000Y-81026000D03*
X28448000Y-81026000D03*
X30988000Y-78486000D03*
X28448000Y-78486000D03*
X30988000Y-75946000D03*
X28448000Y-75946000D03*
X30988000Y-73406000D03*
X28448000Y-73406000D03*
X30988000Y-70866000D03*
X28448000Y-70866000D03*
X30988000Y-68326000D03*
X28448000Y-68326000D03*
X30988000Y-65786000D03*
X28448000Y-65786000D03*
X30988000Y-63246000D03*
X28448000Y-63246000D03*
X30988000Y-60706000D03*
X28448000Y-60706000D03*
X30988000Y-58166000D03*
X28448000Y-58166000D03*
X30988000Y-55626000D03*
X28448000Y-55626000D03*
X30988000Y-53086000D03*
X28448000Y-53086000D03*
X30988000Y-50546000D03*
X28448000Y-50546000D03*
X30988000Y-48006000D03*
X28448000Y-48006000D03*
X30988000Y-45466000D03*
X28448000Y-45466000D03*
X30988000Y-42926000D03*
X28448000Y-42926000D03*
X30988000Y-40386000D03*
X28448000Y-40386000D03*
X30988000Y-37846000D03*
X28448000Y-37846000D03*
X30988000Y-35306000D03*
X28448000Y-35306000D03*
X30988000Y-32766000D03*
X28448000Y-32766000D03*
X30988000Y-30226000D03*
D12*
X28448000Y-30226000D03*
D11*
X66167000Y-34163000D03*
X63627000Y-34163000D03*
D12*
X61087000Y-34163000D03*
D18*
X36576000Y-22003000D03*
D19*
X36576000Y-24003000D03*
D18*
X30099000Y-22003000D03*
D19*
X30099000Y-24003000D03*
D18*
X96393000Y-15780000D03*
D19*
X96393000Y-17780000D03*
D18*
X53943500Y-29464000D03*
D19*
X55943500Y-29464000D03*
D18*
X74390000Y-29464000D03*
D19*
X72390000Y-29464000D03*
M02*
