M48
; DRILL file {KiCad 5.1.5+dfsg1-2build2} date Sa 22 Jan 2022 21:42:48 CET
; FORMAT={-:-/ absolute / metric / decimal}
; #@! TF.CreationDate,2022-01-22T21:42:48+01:00
; #@! TF.GenerationSoftware,Kicad,Pcbnew,5.1.5+dfsg1-2build2
; #@! TF.FileFunction,Plated,1,2,PTH
FMAT,2
METRIC
T1C0.400
T2C0.750
T3C0.800
T4C0.889
T5C1.000
T6C1.016
T7C1.300
T8C1.400
T9C1.651
T10C3.200
%
G90
G05
T1
X14.224Y-51.283
X16.916Y-48.412
X19.431Y-97.866
X19.482Y-98.984
X21.158Y-24.917
X21.412Y-48.87
X22.319Y-14.173
X22.606Y-93.472
X22.682Y-90.576
X22.733Y-17.831
X22.733Y-104.292
X23.407Y-46.316
X23.622Y-35.077
X23.876Y-22.657
X23.901Y-30.48
X24.054Y-29.362
X24.613Y-90.551
X24.613Y-93.269
X25.4Y-22.682
X25.451Y-24.003
X25.451Y-27.686
X25.527Y-48.895
X25.959Y-102.286
X26.06Y-44.831
X26.162Y-66.345
X26.518Y-95.961
X26.543Y-88.621
X27.33Y-95.021
X27.915Y-19.431
X28.016Y-26.314
X28.262Y-94.267
X28.664Y-14.097
X30.099Y-25.933
X33.782Y-19.964
X33.807Y-22.479
X33.909Y-15.062
X34.097Y-25.288
X34.265Y-103.099
X35.281Y-26.182
X35.408Y-93.548
X35.433Y-18.288
X36.119Y-99.238
X36.17Y-94.793
X37.059Y-98.298
X37.389Y-105.537
X37.541Y-109.804
X38.659Y-93.548
X39.395Y-92.659
X39.675Y-24.714
X40.005Y-16.789
X40.361Y-107.188
X40.589Y-38.481
X41.135Y-86.22
X41.148Y-44.094
X41.148Y-79.629
X41.554Y-55.423
X41.656Y-108.509
X41.961Y-67.031
X41.974Y-60.389
X42.037Y-74.041
X43.053Y-43.815
X43.243Y-60.325
X44.044Y-55.601
X44.196Y-30.124
X44.272Y-76.708
X44.475Y-49.632
X44.577Y-60.452
X44.767Y-61.658
X45.212Y-45.466
X45.593Y-56.159
X45.898Y-44.221
X45.923Y-50.597
X46.228Y-45.91
X47.015Y-56.109
X47.942Y-49.466
X48.235Y-56.032
X48.235Y-56.032
X48.362Y-75.336
X48.768Y-51.117
X49.403Y-56.07
X49.733Y-34.112
X49.835Y-29.87
X49.847Y-45.91
X50.165Y-74.041
X50.165Y-74.879
X50.165Y-75.717
X51.435Y-64.287
X51.46Y-62.611
X51.498Y-72.834
X51.816Y-56.07
X51.841Y-50.622
X52.222Y-46.203
X54.102Y-89.662
X54.432Y-41.834
X54.839Y-48.616
X55.016Y-39.954
X55.448Y-75.057
X55.626Y-77.749
X56.464Y-52.273
X57.658Y-63.043
X57.709Y-39.903
X57.937Y-38.684
X57.975Y-85.026
X58.737Y-70.548
X58.801Y-65.722
X59.436Y-56.578
X60.731Y-54.381
X61.062Y-62.179
X61.062Y-63.195
X62.547Y-26.035
X62.611Y-82.084
X62.992Y-50.978
X63.322Y-38.913
X63.712Y-82.084
X63.754Y-63.754
X64.186Y-72.441
X64.982Y-82.084
X65.024Y-70.917
X65.71Y-54.432
X66.573Y-71.12
X67.666Y-83.718
X67.742Y-62.179
X68.078Y-52.14
X68.809Y-62.281
X68.961Y-71.349
X69.012Y-63.703
X69.063Y-82.169
X69.094Y-53.156
X69.674Y-74.246
X69.748Y-68.732
X69.983Y-54.045
X70.358Y-20.574
X70.599Y-80.327
X70.675Y-40.767
X70.841Y-31.572
X71.882Y-48.387
X72.161Y-79.019
X72.263Y-45.847
X72.453Y-61.658
X72.517Y-62.865
X72.542Y-80.747
X72.695Y-104.775
X73.279Y-43.37
X76.251Y-33.503
X76.302Y-40.183
X76.352Y-36.932
X76.454Y-42.875
X76.454Y-46.736
X76.708Y-62.293
X77.749Y-85.522
X77.953Y-91.161
X78.308Y-64.821
X78.359Y-70.231
X79.026Y-104.616
X79.045Y-57.201
X79.375Y-101.917
X79.604Y-109.576
X80.01Y-40.183
X80.01Y-42.824
X80.886Y-86.55
X82.474Y-50.851
X82.982Y-98.069
X83.007Y-53.467
X83.617Y-32.588
X83.642Y-106.528
X85.75Y-65.024
X85.852Y-69.596
X86.716Y-97.993
X86.843Y-35.662
X88.011Y-101.321
X88.214Y-107.112
X88.328Y-94.043
X88.328Y-95.186
X88.748Y-68.986
X89.408Y-69.901
X89.662Y-89.916
X89.764Y-42.469
X89.764Y-47.295
X90.145Y-59.487
X90.424Y-90.868
X90.424Y-92.583
X90.678Y-66.358
X90.681Y-67.434
X90.907Y-38.303
X91.078Y-83.648
X91.161Y-42.316
X91.44Y-50.902
X91.885Y-66.358
X91.885Y-78.092
X91.885Y-79.083
X91.999Y-47.625
X92.151Y-20.345
X92.532Y-16.485
X93.548Y-91.008
X98.45Y-15.977
X98.552Y-26.975
X99.085Y-19.507
X101.625Y-27.0
X102.337Y-19.456
X105.258Y-26.924
X105.334Y-19.507
X107.823Y-91.821
X108.28Y-26.924
X108.839Y-19.533
X110.363Y-95.733
T2
X85.598Y-31.813
X86.868Y-31.813
X88.138Y-31.813
X24.308Y-16.358
X25.578Y-16.358
X26.848Y-16.358
X29.845Y-16.358
X31.115Y-16.358
X32.385Y-16.358
T3
X36.576Y-22.003
X36.576Y-24.003
X53.944Y-29.464
X55.944Y-29.464
X72.39Y-29.464
X74.39Y-29.464
X96.393Y-15.78
X96.393Y-17.78
X30.099Y-22.003
X30.099Y-24.003
T4
X96.584Y-97.218
X97.853Y-94.678
X99.123Y-97.218
X100.393Y-94.678
X101.663Y-97.218
X102.933Y-94.678
X104.203Y-97.218
X105.474Y-94.678
T5
X36.068Y-30.226
X36.068Y-32.766
X36.068Y-35.306
X36.068Y-37.846
X36.068Y-40.386
X36.068Y-42.926
X36.068Y-45.466
X36.068Y-48.006
X36.068Y-50.546
X36.068Y-53.086
X36.068Y-55.626
X36.068Y-58.166
X36.068Y-60.706
X36.068Y-63.246
X36.068Y-65.786
X36.068Y-68.326
X36.068Y-70.866
X36.068Y-73.406
X36.068Y-75.946
X36.068Y-78.486
X36.068Y-81.026
X36.068Y-83.566
X36.068Y-86.106
X36.068Y-88.646
X38.608Y-30.226
X38.608Y-32.766
X38.608Y-35.306
X38.608Y-37.846
X38.608Y-40.386
X38.608Y-42.926
X38.608Y-45.466
X38.608Y-48.006
X38.608Y-50.546
X38.608Y-53.086
X38.608Y-55.626
X38.608Y-58.166
X38.608Y-60.706
X38.608Y-63.246
X38.608Y-65.786
X38.608Y-68.326
X38.608Y-70.866
X38.608Y-73.406
X38.608Y-75.946
X38.608Y-78.486
X38.608Y-81.026
X38.608Y-83.566
X38.608Y-86.106
X38.608Y-88.646
X100.774Y-24.575
X103.314Y-24.575
X78.207Y-49.708
X78.207Y-52.248
X78.207Y-54.788
X15.138Y-105.613
X17.678Y-105.613
X20.218Y-105.613
X61.087Y-34.163
X63.627Y-34.163
X66.167Y-34.163
X15.138Y-109.271
X17.678Y-109.271
X20.218Y-109.271
X15.138Y-102.006
X17.678Y-102.006
X20.218Y-102.006
X42.418Y-88.582
X44.958Y-88.582
X47.498Y-88.582
X50.038Y-88.582
X48.197Y-62.42
X56.706Y-41.275
X56.706Y-43.815
X56.706Y-46.355
X56.706Y-48.895
X102.108Y-30.226
X102.108Y-32.766
X102.108Y-35.306
X102.108Y-37.846
X102.108Y-40.386
X102.108Y-42.926
X102.108Y-45.466
X102.108Y-48.006
X102.108Y-50.546
X102.108Y-53.086
X102.108Y-55.626
X102.108Y-58.166
X102.108Y-60.706
X102.108Y-63.246
X102.108Y-65.786
X102.108Y-68.326
X102.108Y-70.866
X102.108Y-73.406
X102.108Y-75.946
X102.108Y-78.486
X102.108Y-81.026
X102.108Y-83.566
X102.108Y-86.106
X102.108Y-88.646
X104.648Y-30.226
X104.648Y-32.766
X104.648Y-35.306
X104.648Y-37.846
X104.648Y-40.386
X104.648Y-42.926
X104.648Y-45.466
X104.648Y-48.006
X104.648Y-50.546
X104.648Y-53.086
X104.648Y-55.626
X104.648Y-58.166
X104.648Y-60.706
X104.648Y-63.246
X104.648Y-65.786
X104.648Y-68.326
X104.648Y-70.866
X104.648Y-73.406
X104.648Y-75.946
X104.648Y-78.486
X104.648Y-81.026
X104.648Y-83.566
X104.648Y-86.106
X104.648Y-88.646
X81.09Y-28.258
X81.09Y-30.797
X94.488Y-30.226
X94.488Y-32.766
X94.488Y-35.306
X94.488Y-37.846
X94.488Y-40.386
X94.488Y-42.926
X94.488Y-45.466
X94.488Y-48.006
X94.488Y-50.546
X94.488Y-53.086
X94.488Y-55.626
X94.488Y-58.166
X94.488Y-60.706
X94.488Y-63.246
X94.488Y-65.786
X94.488Y-68.326
X94.488Y-70.866
X94.488Y-73.406
X94.488Y-75.946
X94.488Y-78.486
X94.488Y-81.026
X94.488Y-83.566
X94.488Y-86.106
X94.488Y-88.646
X97.028Y-30.226
X97.028Y-32.766
X97.028Y-35.306
X97.028Y-37.846
X97.028Y-40.386
X97.028Y-42.926
X97.028Y-45.466
X97.028Y-48.006
X97.028Y-50.546
X97.028Y-53.086
X97.028Y-55.626
X97.028Y-58.166
X97.028Y-60.706
X97.028Y-63.246
X97.028Y-65.786
X97.028Y-68.326
X97.028Y-70.866
X97.028Y-73.406
X97.028Y-75.946
X97.028Y-78.486
X97.028Y-81.026
X97.028Y-83.566
X97.028Y-86.106
X97.028Y-88.646
X56.388Y-65.977
X56.388Y-68.516
X56.388Y-71.056
X56.388Y-73.596
X85.63Y-27.915
X88.17Y-27.915
X41.173Y-96.876
X49.107Y-101.148
X50.492Y-103.988
X51.877Y-101.148
X53.262Y-103.988
X54.647Y-101.148
X56.032Y-103.988
X57.417Y-101.148
X58.802Y-103.988
X60.187Y-101.148
X28.448Y-30.226
X28.448Y-32.766
X28.448Y-35.306
X28.448Y-37.846
X28.448Y-40.386
X28.448Y-42.926
X28.448Y-45.466
X28.448Y-48.006
X28.448Y-50.546
X28.448Y-53.086
X28.448Y-55.626
X28.448Y-58.166
X28.448Y-60.706
X28.448Y-63.246
X28.448Y-65.786
X28.448Y-68.326
X28.448Y-70.866
X28.448Y-73.406
X28.448Y-75.946
X28.448Y-78.486
X28.448Y-81.026
X28.448Y-83.566
X28.448Y-86.106
X28.448Y-88.646
X30.988Y-30.226
X30.988Y-32.766
X30.988Y-35.306
X30.988Y-37.846
X30.988Y-40.386
X30.988Y-42.926
X30.988Y-45.466
X30.988Y-48.006
X30.988Y-50.546
X30.988Y-53.086
X30.988Y-55.626
X30.988Y-58.166
X30.988Y-60.706
X30.988Y-63.246
X30.988Y-65.786
X30.988Y-68.326
X30.988Y-70.866
X30.988Y-73.406
X30.988Y-75.946
X30.988Y-78.486
X30.988Y-81.026
X30.988Y-83.566
X30.988Y-86.106
X30.988Y-88.646
X72.136Y-68.644
T6
X94.704Y-107.683
X97.218Y-107.683
X104.813Y-107.683
X107.328Y-107.683
T7
X16.942Y-51.359
X16.942Y-56.439
X16.942Y-61.519
X16.942Y-66.599
X16.942Y-71.679
X16.942Y-76.759
X16.942Y-81.839
X16.942Y-86.919
X16.942Y-91.999
X16.942Y-97.079
X16.942Y-19.837
X16.942Y-24.917
X16.942Y-29.997
X16.942Y-35.077
X16.942Y-40.157
X16.942Y-45.237
T8
X43.389Y-17.805
X43.389Y-23.304
X47.589Y-17.805
X47.589Y-23.304
X51.789Y-17.805
X51.789Y-23.304
X55.989Y-17.805
X55.989Y-23.304
X60.189Y-17.805
X60.189Y-23.304
X64.389Y-17.805
X64.389Y-23.304
X68.589Y-17.805
X68.589Y-23.304
X72.789Y-17.805
X72.789Y-23.304
X76.989Y-17.805
X76.989Y-23.304
X81.189Y-17.805
X81.189Y-23.304
X85.389Y-17.805
X85.389Y-23.304
X89.589Y-17.805
X89.589Y-23.304
T9
X93.154Y-99.682
X108.902Y-99.682
T10
X42.147Y-102.568
X67.147Y-102.568
T0
M30
