%FSLAX45Y45*%
G04 Gerber Fmt 4.5, Leading zero omitted, Abs format (unit mm)*
G04 Created by KiCad (PCBNEW 5.1.5+dfsg1-2build2) date 2022-01-22 21:43:08*
%MOMM*%
%LPD*%
G04 APERTURE LIST*
%TA.AperFunction,Profile*%
%ADD10C,0.100000*%
%TD*%
%ADD11C,0.200000*%
%ADD12C,0.300000*%
G04 APERTURE END LIST*
D10*
X11176000Y-1270000D02*
X11176000Y-11176000D01*
X1270000Y-1270000D02*
X11176000Y-1270000D01*
X1270000Y-11176000D02*
X1270000Y-1270000D01*
X11176000Y-11176000D02*
X1270000Y-11176000D01*
D11*
X1402400Y-5108260D02*
X1442400Y-5148260D01*
X1442400Y-5108260D02*
X1402400Y-5148260D01*
X1671640Y-4821240D02*
X1711640Y-4861240D01*
X1711640Y-4821240D02*
X1671640Y-4861240D01*
X1923100Y-9766620D02*
X1963100Y-9806620D01*
X1963100Y-9766620D02*
X1923100Y-9806620D01*
X1928180Y-9878380D02*
X1968180Y-9918380D01*
X1968180Y-9878380D02*
X1928180Y-9918380D01*
X2095820Y-2471740D02*
X2135820Y-2511740D01*
X2135820Y-2471740D02*
X2095820Y-2511740D01*
X2121220Y-4866960D02*
X2161220Y-4906960D01*
X2161220Y-4866960D02*
X2121220Y-4906960D01*
X2211898Y-1397320D02*
X2251898Y-1437320D01*
X2251898Y-1397320D02*
X2211898Y-1437320D01*
X2240600Y-9327200D02*
X2280600Y-9367200D01*
X2280600Y-9327200D02*
X2240600Y-9367200D01*
X2248220Y-9037640D02*
X2288220Y-9077640D01*
X2288220Y-9037640D02*
X2248220Y-9077640D01*
X2253300Y-1763080D02*
X2293300Y-1803080D01*
X2293300Y-1763080D02*
X2253300Y-1803080D01*
X2253300Y-10409240D02*
X2293300Y-10449240D01*
X2293300Y-10409240D02*
X2253300Y-10449240D01*
X2320700Y-4611600D02*
X2360700Y-4651600D01*
X2360700Y-4611600D02*
X2320700Y-4651600D01*
X2342200Y-3487740D02*
X2382200Y-3527740D01*
X2382200Y-3487740D02*
X2342200Y-3527740D01*
X2367600Y-2245680D02*
X2407600Y-2285680D01*
X2407600Y-2245680D02*
X2367600Y-2285680D01*
X2370140Y-3028000D02*
X2410140Y-3068000D01*
X2410140Y-3028000D02*
X2370140Y-3068000D01*
X2385380Y-2916240D02*
X2425380Y-2956240D01*
X2425380Y-2916240D02*
X2385380Y-2956240D01*
X2441260Y-9035100D02*
X2481260Y-9075100D01*
X2481260Y-9035100D02*
X2441260Y-9075100D01*
X2441260Y-9306880D02*
X2481260Y-9346880D01*
X2481260Y-9306880D02*
X2441260Y-9346880D01*
X2520000Y-2248220D02*
X2560000Y-2288220D01*
X2560000Y-2248220D02*
X2520000Y-2288220D01*
X2525080Y-2380300D02*
X2565080Y-2420300D01*
X2565080Y-2380300D02*
X2525080Y-2420300D01*
X2525080Y-2748600D02*
X2565080Y-2788600D01*
X2565080Y-2748600D02*
X2525080Y-2788600D01*
X2532700Y-4869500D02*
X2572700Y-4909500D01*
X2572700Y-4869500D02*
X2532700Y-4909500D01*
X2575880Y-10208580D02*
X2615880Y-10248580D01*
X2615880Y-10208580D02*
X2575880Y-10248580D01*
X2586040Y-4463100D02*
X2626040Y-4503100D01*
X2626040Y-4463100D02*
X2586040Y-4503100D01*
X2596200Y-6614480D02*
X2636200Y-6654480D01*
X2636200Y-6614480D02*
X2596200Y-6654480D01*
X2631760Y-9576120D02*
X2671760Y-9616120D01*
X2671760Y-9576120D02*
X2631760Y-9616120D01*
X2634300Y-8842060D02*
X2674300Y-8882060D01*
X2674300Y-8842060D02*
X2634300Y-8882060D01*
X2713040Y-9482140D02*
X2753040Y-9522140D01*
X2753040Y-9482140D02*
X2713040Y-9522140D01*
X2771460Y-1923100D02*
X2811460Y-1963100D01*
X2811460Y-1923100D02*
X2771460Y-1963100D01*
X2781620Y-2611440D02*
X2821620Y-2651440D01*
X2821620Y-2611440D02*
X2781620Y-2651440D01*
X2806240Y-9406720D02*
X2846240Y-9446720D01*
X2846240Y-9406720D02*
X2806240Y-9446720D01*
X2846390Y-1389700D02*
X2886390Y-1429700D01*
X2886390Y-1389700D02*
X2846390Y-1429700D01*
X2989900Y-2573340D02*
X3029900Y-2613340D01*
X3029900Y-2573340D02*
X2989900Y-2613340D01*
X3358200Y-1976440D02*
X3398200Y-2016440D01*
X3398200Y-1976440D02*
X3358200Y-2016440D01*
X3360740Y-2227900D02*
X3400740Y-2267900D01*
X3400740Y-2227900D02*
X3360740Y-2267900D01*
X3370900Y-1486220D02*
X3410900Y-1526220D01*
X3410900Y-1486220D02*
X3370900Y-1526220D01*
X3389696Y-2508824D02*
X3429696Y-2548824D01*
X3429696Y-2508824D02*
X3389696Y-2548824D01*
X3406460Y-10289860D02*
X3446460Y-10329860D01*
X3446460Y-10289860D02*
X3406460Y-10329860D01*
X3508060Y-2598232D02*
X3548060Y-2638232D01*
X3548060Y-2598232D02*
X3508060Y-2638232D01*
X3520760Y-9334820D02*
X3560760Y-9374820D01*
X3560760Y-9334820D02*
X3520760Y-9374820D01*
X3523300Y-1808800D02*
X3563300Y-1848800D01*
X3563300Y-1808800D02*
X3523300Y-1848800D01*
X3591880Y-9903780D02*
X3631880Y-9943780D01*
X3631880Y-9903780D02*
X3591880Y-9943780D01*
X3596960Y-9459280D02*
X3636960Y-9499280D01*
X3636960Y-9459280D02*
X3596960Y-9499280D01*
X3685860Y-9809800D02*
X3725860Y-9849800D01*
X3725860Y-9809800D02*
X3685860Y-9849800D01*
X3718880Y-10533700D02*
X3758880Y-10573700D01*
X3758880Y-10533700D02*
X3718880Y-10573700D01*
X3734120Y-10960420D02*
X3774120Y-11000420D01*
X3774120Y-10960420D02*
X3734120Y-11000420D01*
X3845880Y-9334820D02*
X3885880Y-9374820D01*
X3885880Y-9334820D02*
X3845880Y-9374820D01*
X3919540Y-9245920D02*
X3959540Y-9285920D01*
X3959540Y-9245920D02*
X3919540Y-9285920D01*
X3947480Y-2451420D02*
X3987480Y-2491420D01*
X3987480Y-2451420D02*
X3947480Y-2491420D01*
X3980500Y-1658940D02*
X4020500Y-1698940D01*
X4020500Y-1658940D02*
X3980500Y-1698940D01*
X4016060Y-10698800D02*
X4056060Y-10738800D01*
X4056060Y-10698800D02*
X4016060Y-10738800D01*
X4038920Y-3828100D02*
X4078920Y-3868100D01*
X4078920Y-3828100D02*
X4038920Y-3868100D01*
X4093530Y-8602030D02*
X4133530Y-8642030D01*
X4133530Y-8602030D02*
X4093530Y-8642030D01*
X4094800Y-4389440D02*
X4134800Y-4429440D01*
X4134800Y-4389440D02*
X4094800Y-4429440D01*
X4094800Y-7942900D02*
X4134800Y-7982900D01*
X4134800Y-7942900D02*
X4094800Y-7982900D01*
X4135440Y-5522280D02*
X4175440Y-5562280D01*
X4175440Y-5522280D02*
X4135440Y-5562280D01*
X4145600Y-10830880D02*
X4185600Y-10870880D01*
X4185600Y-10830880D02*
X4145600Y-10870880D01*
X4176080Y-6683060D02*
X4216080Y-6723060D01*
X4216080Y-6683060D02*
X4176080Y-6723060D01*
X4177350Y-6018850D02*
X4217350Y-6058850D01*
X4217350Y-6018850D02*
X4177350Y-6058850D01*
X4183700Y-7384100D02*
X4223700Y-7424100D01*
X4223700Y-7384100D02*
X4183700Y-7424100D01*
X4285300Y-4361500D02*
X4325300Y-4401500D01*
X4325300Y-4361500D02*
X4285300Y-4401500D01*
X4304350Y-6012500D02*
X4344350Y-6052500D01*
X4344350Y-6012500D02*
X4304350Y-6052500D01*
X4384360Y-5540060D02*
X4424360Y-5580060D01*
X4424360Y-5540060D02*
X4384360Y-5580060D01*
X4399600Y-2992440D02*
X4439600Y-3032440D01*
X4439600Y-2992440D02*
X4399600Y-3032440D01*
X4407220Y-7650800D02*
X4447220Y-7690800D01*
X4447220Y-7650800D02*
X4407220Y-7690800D01*
X4427540Y-4943160D02*
X4467540Y-4983160D01*
X4467540Y-4943160D02*
X4427540Y-4983160D01*
X4437700Y-6025200D02*
X4477700Y-6065200D01*
X4477700Y-6025200D02*
X4437700Y-6065200D01*
X4456750Y-6145850D02*
X4496750Y-6185850D01*
X4496750Y-6145850D02*
X4456750Y-6185850D01*
X4501200Y-4526600D02*
X4541200Y-4566600D01*
X4541200Y-4526600D02*
X4501200Y-4566600D01*
X4539300Y-5595940D02*
X4579300Y-5635940D01*
X4579300Y-5595940D02*
X4539300Y-5635940D01*
X4569780Y-4402140D02*
X4609780Y-4442140D01*
X4609780Y-4402140D02*
X4569780Y-4442140D01*
X4572320Y-5039680D02*
X4612320Y-5079680D01*
X4612320Y-5039680D02*
X4572320Y-5079680D01*
X4602800Y-4571050D02*
X4642800Y-4611050D01*
X4642800Y-4571050D02*
X4602800Y-4611050D01*
X4681540Y-5590860D02*
X4721540Y-5630860D01*
X4721540Y-5590860D02*
X4681540Y-5630860D01*
X4774250Y-4926650D02*
X4814250Y-4966650D01*
X4814250Y-4926650D02*
X4774250Y-4966650D01*
X4803460Y-5583240D02*
X4843460Y-5623240D01*
X4843460Y-5583240D02*
X4803460Y-5623240D01*
X4803460Y-5583240D02*
X4843460Y-5623240D01*
X4843460Y-5583240D02*
X4803460Y-5623240D01*
X4816160Y-7513640D02*
X4856160Y-7553640D01*
X4856160Y-7513640D02*
X4816160Y-7553640D01*
X4856800Y-5091750D02*
X4896800Y-5131750D01*
X4896800Y-5091750D02*
X4856800Y-5131750D01*
X4920300Y-5587050D02*
X4960300Y-5627050D01*
X4960300Y-5587050D02*
X4920300Y-5627050D01*
X4953320Y-3391220D02*
X4993320Y-3431220D01*
X4993320Y-3391220D02*
X4953320Y-3431220D01*
X4963480Y-2967040D02*
X5003480Y-3007040D01*
X5003480Y-2967040D02*
X4963480Y-3007040D01*
X4964750Y-4571050D02*
X5004750Y-4611050D01*
X5004750Y-4571050D02*
X4964750Y-4611050D01*
X4996500Y-7384100D02*
X5036500Y-7424100D01*
X5036500Y-7384100D02*
X4996500Y-7424100D01*
X4996500Y-7467920D02*
X5036500Y-7507920D01*
X5036500Y-7467920D02*
X4996500Y-7507920D01*
X4996500Y-7551740D02*
X5036500Y-7591740D01*
X5036500Y-7551740D02*
X4996500Y-7591740D01*
X5123500Y-6408740D02*
X5163500Y-6448740D01*
X5163500Y-6408740D02*
X5123500Y-6448740D01*
X5126040Y-6241100D02*
X5166040Y-6281100D01*
X5166040Y-6241100D02*
X5126040Y-6281100D01*
X5129850Y-7263450D02*
X5169850Y-7303450D01*
X5169850Y-7263450D02*
X5129850Y-7303450D01*
X5161600Y-5587050D02*
X5201600Y-5627050D01*
X5201600Y-5587050D02*
X5161600Y-5627050D01*
X5164140Y-5042220D02*
X5204140Y-5082220D01*
X5204140Y-5042220D02*
X5164140Y-5082220D01*
X5202240Y-4600260D02*
X5242240Y-4640260D01*
X5242240Y-4600260D02*
X5202240Y-4640260D01*
X5390200Y-8946200D02*
X5430200Y-8986200D01*
X5430200Y-8946200D02*
X5390200Y-8986200D01*
X5423220Y-4163380D02*
X5463220Y-4203380D01*
X5463220Y-4163380D02*
X5423220Y-4203380D01*
X5463860Y-4841560D02*
X5503860Y-4881560D01*
X5503860Y-4841560D02*
X5463860Y-4881560D01*
X5481640Y-3975420D02*
X5521640Y-4015420D01*
X5521640Y-3975420D02*
X5481640Y-4015420D01*
X5524820Y-7485700D02*
X5564820Y-7525700D01*
X5564820Y-7485700D02*
X5524820Y-7525700D01*
X5542600Y-7754940D02*
X5582600Y-7794940D01*
X5582600Y-7754940D02*
X5542600Y-7794940D01*
X5626420Y-5207320D02*
X5666420Y-5247320D01*
X5666420Y-5207320D02*
X5626420Y-5247320D01*
X5745800Y-6284280D02*
X5785800Y-6324280D01*
X5785800Y-6284280D02*
X5745800Y-6324280D01*
X5750880Y-3970340D02*
X5790880Y-4010340D01*
X5790880Y-3970340D02*
X5750880Y-4010340D01*
X5773740Y-3848420D02*
X5813740Y-3888420D01*
X5813740Y-3848420D02*
X5773740Y-3888420D01*
X5777550Y-8482650D02*
X5817550Y-8522650D01*
X5817550Y-8482650D02*
X5777550Y-8522650D01*
X5853750Y-7034850D02*
X5893750Y-7074850D01*
X5893750Y-7034850D02*
X5853750Y-7074850D01*
X5860100Y-6552250D02*
X5900100Y-6592250D01*
X5900100Y-6552250D02*
X5860100Y-6592250D01*
X5923600Y-5637850D02*
X5963600Y-5677850D01*
X5963600Y-5637850D02*
X5923600Y-5677850D01*
X6053140Y-5418140D02*
X6093140Y-5458140D01*
X6093140Y-5418140D02*
X6053140Y-5458140D01*
X6086160Y-6197920D02*
X6126160Y-6237920D01*
X6126160Y-6197920D02*
X6086160Y-6237920D01*
X6086160Y-6299520D02*
X6126160Y-6339520D01*
X6126160Y-6299520D02*
X6086160Y-6339520D01*
X6234750Y-2583500D02*
X6274750Y-2623500D01*
X6274750Y-2583500D02*
X6234750Y-2623500D01*
X6241100Y-8188402D02*
X6281100Y-8228402D01*
X6281100Y-8188402D02*
X6241100Y-8228402D01*
X6279200Y-5077780D02*
X6319200Y-5117780D01*
X6319200Y-5077780D02*
X6279200Y-5117780D01*
X6312220Y-3871280D02*
X6352220Y-3911280D01*
X6352220Y-3871280D02*
X6312220Y-3911280D01*
X6351198Y-8188402D02*
X6391198Y-8228402D01*
X6391198Y-8188402D02*
X6351198Y-8228402D01*
X6355400Y-6355400D02*
X6395400Y-6395400D01*
X6395400Y-6355400D02*
X6355400Y-6395400D01*
X6398580Y-7224080D02*
X6438580Y-7264080D01*
X6438580Y-7224080D02*
X6398580Y-7264080D01*
X6478198Y-8188402D02*
X6518198Y-8228402D01*
X6518198Y-8188402D02*
X6478198Y-8228402D01*
X6482400Y-7071680D02*
X6522400Y-7111680D01*
X6522400Y-7071680D02*
X6482400Y-7111680D01*
X6550980Y-5423220D02*
X6590980Y-5463220D01*
X6590980Y-5423220D02*
X6550980Y-5463220D01*
X6637340Y-7092000D02*
X6677340Y-7132000D01*
X6677340Y-7092000D02*
X6637340Y-7132000D01*
X6746560Y-8351840D02*
X6786560Y-8391840D01*
X6786560Y-8351840D02*
X6746560Y-8391840D01*
X6754180Y-6197920D02*
X6794180Y-6237920D01*
X6794180Y-6197920D02*
X6754180Y-6237920D01*
X6787835Y-5193985D02*
X6827835Y-5233985D01*
X6827835Y-5193985D02*
X6787835Y-5233985D01*
X6860860Y-6208080D02*
X6900860Y-6248080D01*
X6900860Y-6208080D02*
X6860860Y-6248080D01*
X6876100Y-7114860D02*
X6916100Y-7154860D01*
X6916100Y-7114860D02*
X6876100Y-7154860D01*
X6881180Y-6350320D02*
X6921180Y-6390320D01*
X6921180Y-6350320D02*
X6881180Y-6390320D01*
X6886260Y-8196900D02*
X6926260Y-8236900D01*
X6926260Y-8196900D02*
X6886260Y-8236900D01*
X6889435Y-5295585D02*
X6929435Y-5335585D01*
X6929435Y-5295585D02*
X6889435Y-5335585D01*
X6947375Y-7404575D02*
X6987375Y-7444575D01*
X6987375Y-7404575D02*
X6947375Y-7444575D01*
X6954840Y-6853240D02*
X6994840Y-6893240D01*
X6994840Y-6853240D02*
X6954840Y-6893240D01*
X6978335Y-5384485D02*
X7018335Y-5424485D01*
X7018335Y-5384485D02*
X6978335Y-5424485D01*
X7015800Y-2037400D02*
X7055800Y-2077400D01*
X7055800Y-2037400D02*
X7015800Y-2077400D01*
X7039876Y-8012696D02*
X7079876Y-8052696D01*
X7079876Y-8012696D02*
X7039876Y-8052696D01*
X7047550Y-4056700D02*
X7087550Y-4096700D01*
X7087550Y-4056700D02*
X7047550Y-4096700D01*
X7064060Y-3137220D02*
X7104060Y-3177220D01*
X7104060Y-3137220D02*
X7064060Y-3177220D01*
X7168200Y-4818700D02*
X7208200Y-4858700D01*
X7208200Y-4818700D02*
X7168200Y-4858700D01*
X7196140Y-7881940D02*
X7236140Y-7921940D01*
X7236140Y-7881940D02*
X7196140Y-7921940D01*
X7206300Y-4564700D02*
X7246300Y-4604700D01*
X7246300Y-4564700D02*
X7206300Y-4604700D01*
X7225350Y-6145850D02*
X7265350Y-6185850D01*
X7265350Y-6145850D02*
X7225350Y-6185850D01*
X7231700Y-6266500D02*
X7271700Y-6306500D01*
X7271700Y-6266500D02*
X7231700Y-6306500D01*
X7234240Y-8054660D02*
X7274240Y-8094660D01*
X7274240Y-8054660D02*
X7234240Y-8094660D01*
X7249480Y-10457500D02*
X7289480Y-10497500D01*
X7289480Y-10457500D02*
X7249480Y-10497500D01*
X7307900Y-4317050D02*
X7347900Y-4357050D01*
X7347900Y-4317050D02*
X7307900Y-4357050D01*
X7605080Y-3330260D02*
X7645080Y-3370260D01*
X7645080Y-3330260D02*
X7605080Y-3370260D01*
X7610160Y-3998280D02*
X7650160Y-4038280D01*
X7650160Y-3998280D02*
X7610160Y-4038280D01*
X7615240Y-3673160D02*
X7655240Y-3713160D01*
X7655240Y-3673160D02*
X7615240Y-3713160D01*
X7625400Y-4267520D02*
X7665400Y-4307520D01*
X7665400Y-4267520D02*
X7625400Y-4307520D01*
X7625400Y-4653600D02*
X7665400Y-4693600D01*
X7665400Y-4653600D02*
X7625400Y-4693600D01*
X7650800Y-6209350D02*
X7690800Y-6249350D01*
X7690800Y-6209350D02*
X7650800Y-6249350D01*
X7754940Y-8532180D02*
X7794940Y-8572180D01*
X7794940Y-8532180D02*
X7754940Y-8572180D01*
X7775260Y-9096060D02*
X7815260Y-9136060D01*
X7815260Y-9096060D02*
X7775260Y-9136060D01*
X7810820Y-6462080D02*
X7850820Y-6502080D01*
X7850820Y-6462080D02*
X7810820Y-6502080D01*
X7815900Y-7003100D02*
X7855900Y-7043100D01*
X7855900Y-7003100D02*
X7815900Y-7043100D01*
X7882575Y-10441625D02*
X7922575Y-10481625D01*
X7922575Y-10441625D02*
X7882575Y-10481625D01*
X7884480Y-5700080D02*
X7924480Y-5740080D01*
X7924480Y-5700080D02*
X7884480Y-5740080D01*
X7917500Y-10171750D02*
X7957500Y-10211750D01*
X7957500Y-10171750D02*
X7917500Y-10211750D01*
X7940360Y-10937560D02*
X7980360Y-10977560D01*
X7980360Y-10937560D02*
X7940360Y-10977560D01*
X7981000Y-3998280D02*
X8021000Y-4038280D01*
X8021000Y-3998280D02*
X7981000Y-4038280D01*
X7981000Y-4262440D02*
X8021000Y-4302440D01*
X8021000Y-4262440D02*
X7981000Y-4302440D01*
X8068630Y-8635050D02*
X8108630Y-8675050D01*
X8108630Y-8635050D02*
X8068630Y-8675050D01*
X8227380Y-5065080D02*
X8267380Y-5105080D01*
X8267380Y-5065080D02*
X8227380Y-5105080D01*
X8278180Y-9786940D02*
X8318180Y-9826940D01*
X8318180Y-9786940D02*
X8278180Y-9826940D01*
X8280720Y-5326700D02*
X8320720Y-5366700D01*
X8320720Y-5326700D02*
X8280720Y-5366700D01*
X8341680Y-3238820D02*
X8381680Y-3278820D01*
X8381680Y-3238820D02*
X8341680Y-3278820D01*
X8344220Y-10632760D02*
X8384220Y-10672760D01*
X8384220Y-10632760D02*
X8344220Y-10672760D01*
X8555040Y-6482400D02*
X8595040Y-6522400D01*
X8595040Y-6482400D02*
X8555040Y-6522400D01*
X8565200Y-6939600D02*
X8605200Y-6979600D01*
X8605200Y-6939600D02*
X8565200Y-6979600D01*
X8651560Y-9779320D02*
X8691560Y-9819320D01*
X8691560Y-9779320D02*
X8651560Y-9819320D01*
X8664260Y-3546160D02*
X8704260Y-3586160D01*
X8704260Y-3546160D02*
X8664260Y-3586160D01*
X8781100Y-10112060D02*
X8821100Y-10152060D01*
X8821100Y-10112060D02*
X8781100Y-10152060D01*
X8801420Y-10691180D02*
X8841420Y-10731180D01*
X8841420Y-10691180D02*
X8801420Y-10731180D01*
X8812850Y-9384350D02*
X8852850Y-9424350D01*
X8852850Y-9384350D02*
X8812850Y-9424350D01*
X8812850Y-9498650D02*
X8852850Y-9538650D01*
X8852850Y-9498650D02*
X8812850Y-9538650D01*
X8854760Y-6878640D02*
X8894760Y-6918640D01*
X8894760Y-6878640D02*
X8854760Y-6918640D01*
X8920800Y-6970080D02*
X8960800Y-7010080D01*
X8960800Y-6970080D02*
X8920800Y-7010080D01*
X8946200Y-8971600D02*
X8986200Y-9011600D01*
X8986200Y-8971600D02*
X8946200Y-9011600D01*
X8956360Y-4226880D02*
X8996360Y-4266880D01*
X8996360Y-4226880D02*
X8956360Y-4266880D01*
X8956360Y-4709480D02*
X8996360Y-4749480D01*
X8996360Y-4709480D02*
X8956360Y-4749480D01*
X8994460Y-5928680D02*
X9034460Y-5968680D01*
X9034460Y-5928680D02*
X8994460Y-5968680D01*
X9022400Y-9066850D02*
X9062400Y-9106850D01*
X9062400Y-9066850D02*
X9022400Y-9106850D01*
X9022400Y-9238300D02*
X9062400Y-9278300D01*
X9062400Y-9238300D02*
X9022400Y-9278300D01*
X9047800Y-6615750D02*
X9087800Y-6655750D01*
X9087800Y-6615750D02*
X9047800Y-6655750D01*
X9048125Y-6723375D02*
X9088125Y-6763375D01*
X9088125Y-6723375D02*
X9048125Y-6763375D01*
X9070660Y-3810320D02*
X9110660Y-3850320D01*
X9110660Y-3810320D02*
X9070660Y-3850320D01*
X9087775Y-8344825D02*
X9127775Y-8384825D01*
X9127775Y-8344825D02*
X9087775Y-8384825D01*
X9096060Y-4211640D02*
X9136060Y-4251640D01*
X9136060Y-4211640D02*
X9096060Y-4251640D01*
X9124000Y-5070160D02*
X9164000Y-5110160D01*
X9164000Y-5070160D02*
X9124000Y-5110160D01*
X9168450Y-6615750D02*
X9208450Y-6655750D01*
X9208450Y-6615750D02*
X9168450Y-6655750D01*
X9168450Y-7789230D02*
X9208450Y-7829230D01*
X9208450Y-7789230D02*
X9168450Y-7829230D01*
X9168450Y-7888290D02*
X9208450Y-7928290D01*
X9208450Y-7888290D02*
X9168450Y-7928290D01*
X9179880Y-4742500D02*
X9219880Y-4782500D01*
X9219880Y-4742500D02*
X9179880Y-4782500D01*
X9195120Y-2014540D02*
X9235120Y-2054540D01*
X9235120Y-2014540D02*
X9195120Y-2054540D01*
X9233220Y-1628460D02*
X9273220Y-1668460D01*
X9273220Y-1628460D02*
X9233220Y-1668460D01*
X9334820Y-9080820D02*
X9374820Y-9120820D01*
X9374820Y-9080820D02*
X9334820Y-9120820D01*
X9825040Y-1577660D02*
X9865040Y-1617660D01*
X9865040Y-1577660D02*
X9825040Y-1617660D01*
X9835200Y-2677480D02*
X9875200Y-2717480D01*
X9875200Y-2677480D02*
X9835200Y-2717480D01*
X9888540Y-1930720D02*
X9928540Y-1970720D01*
X9928540Y-1930720D02*
X9888540Y-1970720D01*
X10142540Y-2680020D02*
X10182540Y-2720020D01*
X10182540Y-2680020D02*
X10142540Y-2720020D01*
X10213660Y-1925640D02*
X10253660Y-1965640D01*
X10253660Y-1925640D02*
X10213660Y-1965640D01*
X10505760Y-2672400D02*
X10545760Y-2712400D01*
X10545760Y-2672400D02*
X10505760Y-2712400D01*
X10513380Y-1930720D02*
X10553380Y-1970720D01*
X10553380Y-1930720D02*
X10513380Y-1970720D01*
X10762300Y-9162100D02*
X10802300Y-9202100D01*
X10802300Y-9162100D02*
X10762300Y-9202100D01*
X10808020Y-2672400D02*
X10848020Y-2712400D01*
X10848020Y-2672400D02*
X10808020Y-2712400D01*
X10863900Y-1933260D02*
X10903900Y-1973260D01*
X10903900Y-1933260D02*
X10863900Y-1973260D01*
X11016300Y-9553260D02*
X11056300Y-9593260D01*
X11056300Y-9553260D02*
X11016300Y-9593260D01*
X8597300Y-3181350D02*
G75*
G03X8597300Y-3181350I-37500J0D01*
G01*
X8724300Y-3181350D02*
G75*
G03X8724300Y-3181350I-37500J0D01*
G01*
X8851300Y-3181350D02*
G75*
G03X8851300Y-3181350I-37500J0D01*
G01*
X2468280Y-1635760D02*
G75*
G03X2468280Y-1635760I-37500J0D01*
G01*
X2595280Y-1635760D02*
G75*
G03X2595280Y-1635760I-37500J0D01*
G01*
X2722280Y-1635760D02*
G75*
G03X2722280Y-1635760I-37500J0D01*
G01*
X3022000Y-1635760D02*
G75*
G03X3022000Y-1635760I-37500J0D01*
G01*
X3149000Y-1635760D02*
G75*
G03X3149000Y-1635760I-37500J0D01*
G01*
X3276000Y-1635760D02*
G75*
G03X3276000Y-1635760I-37500J0D01*
G01*
X3657600Y-2160300D02*
X3657600Y-2240300D01*
X3617600Y-2200300D02*
X3697600Y-2200300D01*
X3657600Y-2360300D02*
X3657600Y-2440300D01*
X3617600Y-2400300D02*
X3697600Y-2400300D01*
X5394350Y-2906400D02*
X5394350Y-2986400D01*
X5354350Y-2946400D02*
X5434350Y-2946400D01*
X5594350Y-2906400D02*
X5594350Y-2986400D01*
X5554350Y-2946400D02*
X5634350Y-2946400D01*
X7239000Y-2906400D02*
X7239000Y-2986400D01*
X7199000Y-2946400D02*
X7279000Y-2946400D01*
X7439000Y-2906400D02*
X7439000Y-2986400D01*
X7399000Y-2946400D02*
X7479000Y-2946400D01*
X9639300Y-1538000D02*
X9639300Y-1618000D01*
X9599300Y-1578000D02*
X9679300Y-1578000D01*
X9639300Y-1738000D02*
X9639300Y-1818000D01*
X9599300Y-1778000D02*
X9679300Y-1778000D01*
X3009900Y-2160300D02*
X3009900Y-2240300D01*
X2969900Y-2200300D02*
X3049900Y-2200300D01*
X3009900Y-2360300D02*
X3009900Y-2440300D01*
X2969900Y-2400300D02*
X3049900Y-2400300D01*
X9689781Y-9753281D02*
X9689781Y-9690419D01*
X9626919Y-9690419D01*
X9626919Y-9753281D01*
X9689781Y-9753281D01*
X9816781Y-9499281D02*
X9816781Y-9436419D01*
X9753919Y-9436419D01*
X9753919Y-9499281D01*
X9816781Y-9499281D01*
X9943781Y-9753281D02*
X9943781Y-9690419D01*
X9880919Y-9690419D01*
X9880919Y-9753281D01*
X9943781Y-9753281D01*
X10070781Y-9499281D02*
X10070781Y-9436419D01*
X10007919Y-9436419D01*
X10007919Y-9499281D01*
X10070781Y-9499281D01*
X10197781Y-9753281D02*
X10197781Y-9690419D01*
X10134919Y-9690419D01*
X10134919Y-9753281D01*
X10197781Y-9753281D01*
X10324781Y-9499281D02*
X10324781Y-9436419D01*
X10261919Y-9436419D01*
X10261919Y-9499281D01*
X10324781Y-9499281D01*
X10451781Y-9753281D02*
X10451781Y-9690419D01*
X10388919Y-9690419D01*
X10388919Y-9753281D01*
X10451781Y-9753281D01*
X10578781Y-9499281D02*
X10578781Y-9436419D01*
X10515919Y-9436419D01*
X10515919Y-9499281D01*
X10578781Y-9499281D01*
X3606800Y-3072600D02*
X3656800Y-3022600D01*
X3606800Y-2972600D01*
X3556800Y-3022600D01*
X3606800Y-3072600D01*
X3606800Y-3326600D02*
X3656800Y-3276600D01*
X3606800Y-3226600D01*
X3556800Y-3276600D01*
X3606800Y-3326600D01*
X3606800Y-3580600D02*
X3656800Y-3530600D01*
X3606800Y-3480600D01*
X3556800Y-3530600D01*
X3606800Y-3580600D01*
X3606800Y-3834600D02*
X3656800Y-3784600D01*
X3606800Y-3734600D01*
X3556800Y-3784600D01*
X3606800Y-3834600D01*
X3606800Y-4088600D02*
X3656800Y-4038600D01*
X3606800Y-3988600D01*
X3556800Y-4038600D01*
X3606800Y-4088600D01*
X3606800Y-4342600D02*
X3656800Y-4292600D01*
X3606800Y-4242600D01*
X3556800Y-4292600D01*
X3606800Y-4342600D01*
X3606800Y-4596600D02*
X3656800Y-4546600D01*
X3606800Y-4496600D01*
X3556800Y-4546600D01*
X3606800Y-4596600D01*
X3606800Y-4850600D02*
X3656800Y-4800600D01*
X3606800Y-4750600D01*
X3556800Y-4800600D01*
X3606800Y-4850600D01*
X3606800Y-5104600D02*
X3656800Y-5054600D01*
X3606800Y-5004600D01*
X3556800Y-5054600D01*
X3606800Y-5104600D01*
X3606800Y-5358600D02*
X3656800Y-5308600D01*
X3606800Y-5258600D01*
X3556800Y-5308600D01*
X3606800Y-5358600D01*
X3606800Y-5612600D02*
X3656800Y-5562600D01*
X3606800Y-5512600D01*
X3556800Y-5562600D01*
X3606800Y-5612600D01*
X3606800Y-5866600D02*
X3656800Y-5816600D01*
X3606800Y-5766600D01*
X3556800Y-5816600D01*
X3606800Y-5866600D01*
X3606800Y-6120600D02*
X3656800Y-6070600D01*
X3606800Y-6020600D01*
X3556800Y-6070600D01*
X3606800Y-6120600D01*
X3606800Y-6374600D02*
X3656800Y-6324600D01*
X3606800Y-6274600D01*
X3556800Y-6324600D01*
X3606800Y-6374600D01*
X3606800Y-6628600D02*
X3656800Y-6578600D01*
X3606800Y-6528600D01*
X3556800Y-6578600D01*
X3606800Y-6628600D01*
X3606800Y-6882600D02*
X3656800Y-6832600D01*
X3606800Y-6782600D01*
X3556800Y-6832600D01*
X3606800Y-6882600D01*
X3606800Y-7136600D02*
X3656800Y-7086600D01*
X3606800Y-7036600D01*
X3556800Y-7086600D01*
X3606800Y-7136600D01*
X3606800Y-7390600D02*
X3656800Y-7340600D01*
X3606800Y-7290600D01*
X3556800Y-7340600D01*
X3606800Y-7390600D01*
X3606800Y-7644600D02*
X3656800Y-7594600D01*
X3606800Y-7544600D01*
X3556800Y-7594600D01*
X3606800Y-7644600D01*
X3606800Y-7898600D02*
X3656800Y-7848600D01*
X3606800Y-7798600D01*
X3556800Y-7848600D01*
X3606800Y-7898600D01*
X3606800Y-8152600D02*
X3656800Y-8102600D01*
X3606800Y-8052600D01*
X3556800Y-8102600D01*
X3606800Y-8152600D01*
X3606800Y-8406600D02*
X3656800Y-8356600D01*
X3606800Y-8306600D01*
X3556800Y-8356600D01*
X3606800Y-8406600D01*
X3606800Y-8660600D02*
X3656800Y-8610600D01*
X3606800Y-8560600D01*
X3556800Y-8610600D01*
X3606800Y-8660600D01*
X3606800Y-8914600D02*
X3656800Y-8864600D01*
X3606800Y-8814600D01*
X3556800Y-8864600D01*
X3606800Y-8914600D01*
X3860800Y-3072600D02*
X3910800Y-3022600D01*
X3860800Y-2972600D01*
X3810800Y-3022600D01*
X3860800Y-3072600D01*
X3860800Y-3326600D02*
X3910800Y-3276600D01*
X3860800Y-3226600D01*
X3810800Y-3276600D01*
X3860800Y-3326600D01*
X3860800Y-3580600D02*
X3910800Y-3530600D01*
X3860800Y-3480600D01*
X3810800Y-3530600D01*
X3860800Y-3580600D01*
X3860800Y-3834600D02*
X3910800Y-3784600D01*
X3860800Y-3734600D01*
X3810800Y-3784600D01*
X3860800Y-3834600D01*
X3860800Y-4088600D02*
X3910800Y-4038600D01*
X3860800Y-3988600D01*
X3810800Y-4038600D01*
X3860800Y-4088600D01*
X3860800Y-4342600D02*
X3910800Y-4292600D01*
X3860800Y-4242600D01*
X3810800Y-4292600D01*
X3860800Y-4342600D01*
X3860800Y-4596600D02*
X3910800Y-4546600D01*
X3860800Y-4496600D01*
X3810800Y-4546600D01*
X3860800Y-4596600D01*
X3860800Y-4850600D02*
X3910800Y-4800600D01*
X3860800Y-4750600D01*
X3810800Y-4800600D01*
X3860800Y-4850600D01*
X3860800Y-5104600D02*
X3910800Y-5054600D01*
X3860800Y-5004600D01*
X3810800Y-5054600D01*
X3860800Y-5104600D01*
X3860800Y-5358600D02*
X3910800Y-5308600D01*
X3860800Y-5258600D01*
X3810800Y-5308600D01*
X3860800Y-5358600D01*
X3860800Y-5612600D02*
X3910800Y-5562600D01*
X3860800Y-5512600D01*
X3810800Y-5562600D01*
X3860800Y-5612600D01*
X3860800Y-5866600D02*
X3910800Y-5816600D01*
X3860800Y-5766600D01*
X3810800Y-5816600D01*
X3860800Y-5866600D01*
X3860800Y-6120600D02*
X3910800Y-6070600D01*
X3860800Y-6020600D01*
X3810800Y-6070600D01*
X3860800Y-6120600D01*
X3860800Y-6374600D02*
X3910800Y-6324600D01*
X3860800Y-6274600D01*
X3810800Y-6324600D01*
X3860800Y-6374600D01*
X3860800Y-6628600D02*
X3910800Y-6578600D01*
X3860800Y-6528600D01*
X3810800Y-6578600D01*
X3860800Y-6628600D01*
X3860800Y-6882600D02*
X3910800Y-6832600D01*
X3860800Y-6782600D01*
X3810800Y-6832600D01*
X3860800Y-6882600D01*
X3860800Y-7136600D02*
X3910800Y-7086600D01*
X3860800Y-7036600D01*
X3810800Y-7086600D01*
X3860800Y-7136600D01*
X3860800Y-7390600D02*
X3910800Y-7340600D01*
X3860800Y-7290600D01*
X3810800Y-7340600D01*
X3860800Y-7390600D01*
X3860800Y-7644600D02*
X3910800Y-7594600D01*
X3860800Y-7544600D01*
X3810800Y-7594600D01*
X3860800Y-7644600D01*
X3860800Y-7898600D02*
X3910800Y-7848600D01*
X3860800Y-7798600D01*
X3810800Y-7848600D01*
X3860800Y-7898600D01*
X3860800Y-8152600D02*
X3910800Y-8102600D01*
X3860800Y-8052600D01*
X3810800Y-8102600D01*
X3860800Y-8152600D01*
X3860800Y-8406600D02*
X3910800Y-8356600D01*
X3860800Y-8306600D01*
X3810800Y-8356600D01*
X3860800Y-8406600D01*
X3860800Y-8660600D02*
X3910800Y-8610600D01*
X3860800Y-8560600D01*
X3810800Y-8610600D01*
X3860800Y-8660600D01*
X3860800Y-8914600D02*
X3910800Y-8864600D01*
X3860800Y-8814600D01*
X3810800Y-8864600D01*
X3860800Y-8914600D01*
X10077450Y-2507450D02*
X10127450Y-2457450D01*
X10077450Y-2407450D01*
X10027450Y-2457450D01*
X10077450Y-2507450D01*
X10331450Y-2507450D02*
X10381450Y-2457450D01*
X10331450Y-2407450D01*
X10281450Y-2457450D01*
X10331450Y-2507450D01*
X7820660Y-5020780D02*
X7870660Y-4970780D01*
X7820660Y-4920780D01*
X7770660Y-4970780D01*
X7820660Y-5020780D01*
X7820660Y-5274780D02*
X7870660Y-5224780D01*
X7820660Y-5174780D01*
X7770660Y-5224780D01*
X7820660Y-5274780D01*
X7820660Y-5528780D02*
X7870660Y-5478780D01*
X7820660Y-5428780D01*
X7770660Y-5478780D01*
X7820660Y-5528780D01*
X1513840Y-10611320D02*
X1563840Y-10561320D01*
X1513840Y-10511320D01*
X1463840Y-10561320D01*
X1513840Y-10611320D01*
X1767840Y-10611320D02*
X1817840Y-10561320D01*
X1767840Y-10511320D01*
X1717840Y-10561320D01*
X1767840Y-10611320D01*
X2021840Y-10611320D02*
X2071840Y-10561320D01*
X2021840Y-10511320D01*
X1971840Y-10561320D01*
X2021840Y-10611320D01*
X6108700Y-3466300D02*
X6158700Y-3416300D01*
X6108700Y-3366300D01*
X6058700Y-3416300D01*
X6108700Y-3466300D01*
X6362700Y-3466300D02*
X6412700Y-3416300D01*
X6362700Y-3366300D01*
X6312700Y-3416300D01*
X6362700Y-3466300D01*
X6616700Y-3466300D02*
X6666700Y-3416300D01*
X6616700Y-3366300D01*
X6566700Y-3416300D01*
X6616700Y-3466300D01*
X1513840Y-10977080D02*
X1563840Y-10927080D01*
X1513840Y-10877080D01*
X1463840Y-10927080D01*
X1513840Y-10977080D01*
X1767840Y-10977080D02*
X1817840Y-10927080D01*
X1767840Y-10877080D01*
X1717840Y-10927080D01*
X1767840Y-10977080D01*
X2021840Y-10977080D02*
X2071840Y-10927080D01*
X2021840Y-10877080D01*
X1971840Y-10927080D01*
X2021840Y-10977080D01*
X1513840Y-10250640D02*
X1563840Y-10200640D01*
X1513840Y-10150640D01*
X1463840Y-10200640D01*
X1513840Y-10250640D01*
X1767840Y-10250640D02*
X1817840Y-10200640D01*
X1767840Y-10150640D01*
X1717840Y-10200640D01*
X1767840Y-10250640D01*
X2021840Y-10250640D02*
X2071840Y-10200640D01*
X2021840Y-10150640D01*
X1971840Y-10200640D01*
X2021840Y-10250640D01*
X4241800Y-8908250D02*
X4291800Y-8858250D01*
X4241800Y-8808250D01*
X4191800Y-8858250D01*
X4241800Y-8908250D01*
X4495800Y-8908250D02*
X4545800Y-8858250D01*
X4495800Y-8808250D01*
X4445800Y-8858250D01*
X4495800Y-8908250D01*
X4749800Y-8908250D02*
X4799800Y-8858250D01*
X4749800Y-8808250D01*
X4699800Y-8858250D01*
X4749800Y-8908250D01*
X5003800Y-8908250D02*
X5053800Y-8858250D01*
X5003800Y-8808250D01*
X4953800Y-8858250D01*
X5003800Y-8908250D01*
X4819650Y-6292050D02*
X4869650Y-6242050D01*
X4819650Y-6192050D01*
X4769650Y-6242050D01*
X4819650Y-6292050D01*
X5670550Y-4177500D02*
X5720550Y-4127500D01*
X5670550Y-4077500D01*
X5620550Y-4127500D01*
X5670550Y-4177500D01*
X5670550Y-4431500D02*
X5720550Y-4381500D01*
X5670550Y-4331500D01*
X5620550Y-4381500D01*
X5670550Y-4431500D01*
X5670550Y-4685500D02*
X5720550Y-4635500D01*
X5670550Y-4585500D01*
X5620550Y-4635500D01*
X5670550Y-4685500D01*
X5670550Y-4939500D02*
X5720550Y-4889500D01*
X5670550Y-4839500D01*
X5620550Y-4889500D01*
X5670550Y-4939500D01*
X10210800Y-3072600D02*
X10260800Y-3022600D01*
X10210800Y-2972600D01*
X10160800Y-3022600D01*
X10210800Y-3072600D01*
X10210800Y-3326600D02*
X10260800Y-3276600D01*
X10210800Y-3226600D01*
X10160800Y-3276600D01*
X10210800Y-3326600D01*
X10210800Y-3580600D02*
X10260800Y-3530600D01*
X10210800Y-3480600D01*
X10160800Y-3530600D01*
X10210800Y-3580600D01*
X10210800Y-3834600D02*
X10260800Y-3784600D01*
X10210800Y-3734600D01*
X10160800Y-3784600D01*
X10210800Y-3834600D01*
X10210800Y-4088600D02*
X10260800Y-4038600D01*
X10210800Y-3988600D01*
X10160800Y-4038600D01*
X10210800Y-4088600D01*
X10210800Y-4342600D02*
X10260800Y-4292600D01*
X10210800Y-4242600D01*
X10160800Y-4292600D01*
X10210800Y-4342600D01*
X10210800Y-4596600D02*
X10260800Y-4546600D01*
X10210800Y-4496600D01*
X10160800Y-4546600D01*
X10210800Y-4596600D01*
X10210800Y-4850600D02*
X10260800Y-4800600D01*
X10210800Y-4750600D01*
X10160800Y-4800600D01*
X10210800Y-4850600D01*
X10210800Y-5104600D02*
X10260800Y-5054600D01*
X10210800Y-5004600D01*
X10160800Y-5054600D01*
X10210800Y-5104600D01*
X10210800Y-5358600D02*
X10260800Y-5308600D01*
X10210800Y-5258600D01*
X10160800Y-5308600D01*
X10210800Y-5358600D01*
X10210800Y-5612600D02*
X10260800Y-5562600D01*
X10210800Y-5512600D01*
X10160800Y-5562600D01*
X10210800Y-5612600D01*
X10210800Y-5866600D02*
X10260800Y-5816600D01*
X10210800Y-5766600D01*
X10160800Y-5816600D01*
X10210800Y-5866600D01*
X10210800Y-6120600D02*
X10260800Y-6070600D01*
X10210800Y-6020600D01*
X10160800Y-6070600D01*
X10210800Y-6120600D01*
X10210800Y-6374600D02*
X10260800Y-6324600D01*
X10210800Y-6274600D01*
X10160800Y-6324600D01*
X10210800Y-6374600D01*
X10210800Y-6628600D02*
X10260800Y-6578600D01*
X10210800Y-6528600D01*
X10160800Y-6578600D01*
X10210800Y-6628600D01*
X10210800Y-6882600D02*
X10260800Y-6832600D01*
X10210800Y-6782600D01*
X10160800Y-6832600D01*
X10210800Y-6882600D01*
X10210800Y-7136600D02*
X10260800Y-7086600D01*
X10210800Y-7036600D01*
X10160800Y-7086600D01*
X10210800Y-7136600D01*
X10210800Y-7390600D02*
X10260800Y-7340600D01*
X10210800Y-7290600D01*
X10160800Y-7340600D01*
X10210800Y-7390600D01*
X10210800Y-7644600D02*
X10260800Y-7594600D01*
X10210800Y-7544600D01*
X10160800Y-7594600D01*
X10210800Y-7644600D01*
X10210800Y-7898600D02*
X10260800Y-7848600D01*
X10210800Y-7798600D01*
X10160800Y-7848600D01*
X10210800Y-7898600D01*
X10210800Y-8152600D02*
X10260800Y-8102600D01*
X10210800Y-8052600D01*
X10160800Y-8102600D01*
X10210800Y-8152600D01*
X10210800Y-8406600D02*
X10260800Y-8356600D01*
X10210800Y-8306600D01*
X10160800Y-8356600D01*
X10210800Y-8406600D01*
X10210800Y-8660600D02*
X10260800Y-8610600D01*
X10210800Y-8560600D01*
X10160800Y-8610600D01*
X10210800Y-8660600D01*
X10210800Y-8914600D02*
X10260800Y-8864600D01*
X10210800Y-8814600D01*
X10160800Y-8864600D01*
X10210800Y-8914600D01*
X10464800Y-3072600D02*
X10514800Y-3022600D01*
X10464800Y-2972600D01*
X10414800Y-3022600D01*
X10464800Y-3072600D01*
X10464800Y-3326600D02*
X10514800Y-3276600D01*
X10464800Y-3226600D01*
X10414800Y-3276600D01*
X10464800Y-3326600D01*
X10464800Y-3580600D02*
X10514800Y-3530600D01*
X10464800Y-3480600D01*
X10414800Y-3530600D01*
X10464800Y-3580600D01*
X10464800Y-3834600D02*
X10514800Y-3784600D01*
X10464800Y-3734600D01*
X10414800Y-3784600D01*
X10464800Y-3834600D01*
X10464800Y-4088600D02*
X10514800Y-4038600D01*
X10464800Y-3988600D01*
X10414800Y-4038600D01*
X10464800Y-4088600D01*
X10464800Y-4342600D02*
X10514800Y-4292600D01*
X10464800Y-4242600D01*
X10414800Y-4292600D01*
X10464800Y-4342600D01*
X10464800Y-4596600D02*
X10514800Y-4546600D01*
X10464800Y-4496600D01*
X10414800Y-4546600D01*
X10464800Y-4596600D01*
X10464800Y-4850600D02*
X10514800Y-4800600D01*
X10464800Y-4750600D01*
X10414800Y-4800600D01*
X10464800Y-4850600D01*
X10464800Y-5104600D02*
X10514800Y-5054600D01*
X10464800Y-5004600D01*
X10414800Y-5054600D01*
X10464800Y-5104600D01*
X10464800Y-5358600D02*
X10514800Y-5308600D01*
X10464800Y-5258600D01*
X10414800Y-5308600D01*
X10464800Y-5358600D01*
X10464800Y-5612600D02*
X10514800Y-5562600D01*
X10464800Y-5512600D01*
X10414800Y-5562600D01*
X10464800Y-5612600D01*
X10464800Y-5866600D02*
X10514800Y-5816600D01*
X10464800Y-5766600D01*
X10414800Y-5816600D01*
X10464800Y-5866600D01*
X10464800Y-6120600D02*
X10514800Y-6070600D01*
X10464800Y-6020600D01*
X10414800Y-6070600D01*
X10464800Y-6120600D01*
X10464800Y-6374600D02*
X10514800Y-6324600D01*
X10464800Y-6274600D01*
X10414800Y-6324600D01*
X10464800Y-6374600D01*
X10464800Y-6628600D02*
X10514800Y-6578600D01*
X10464800Y-6528600D01*
X10414800Y-6578600D01*
X10464800Y-6628600D01*
X10464800Y-6882600D02*
X10514800Y-6832600D01*
X10464800Y-6782600D01*
X10414800Y-6832600D01*
X10464800Y-6882600D01*
X10464800Y-7136600D02*
X10514800Y-7086600D01*
X10464800Y-7036600D01*
X10414800Y-7086600D01*
X10464800Y-7136600D01*
X10464800Y-7390600D02*
X10514800Y-7340600D01*
X10464800Y-7290600D01*
X10414800Y-7340600D01*
X10464800Y-7390600D01*
X10464800Y-7644600D02*
X10514800Y-7594600D01*
X10464800Y-7544600D01*
X10414800Y-7594600D01*
X10464800Y-7644600D01*
X10464800Y-7898600D02*
X10514800Y-7848600D01*
X10464800Y-7798600D01*
X10414800Y-7848600D01*
X10464800Y-7898600D01*
X10464800Y-8152600D02*
X10514800Y-8102600D01*
X10464800Y-8052600D01*
X10414800Y-8102600D01*
X10464800Y-8152600D01*
X10464800Y-8406600D02*
X10514800Y-8356600D01*
X10464800Y-8306600D01*
X10414800Y-8356600D01*
X10464800Y-8406600D01*
X10464800Y-8660600D02*
X10514800Y-8610600D01*
X10464800Y-8560600D01*
X10414800Y-8610600D01*
X10464800Y-8660600D01*
X10464800Y-8914600D02*
X10514800Y-8864600D01*
X10464800Y-8814600D01*
X10414800Y-8864600D01*
X10464800Y-8914600D01*
X8108950Y-2875750D02*
X8158950Y-2825750D01*
X8108950Y-2775750D01*
X8058950Y-2825750D01*
X8108950Y-2875750D01*
X8108950Y-3129750D02*
X8158950Y-3079750D01*
X8108950Y-3029750D01*
X8058950Y-3079750D01*
X8108950Y-3129750D01*
X9448800Y-3072600D02*
X9498800Y-3022600D01*
X9448800Y-2972600D01*
X9398800Y-3022600D01*
X9448800Y-3072600D01*
X9448800Y-3326600D02*
X9498800Y-3276600D01*
X9448800Y-3226600D01*
X9398800Y-3276600D01*
X9448800Y-3326600D01*
X9448800Y-3580600D02*
X9498800Y-3530600D01*
X9448800Y-3480600D01*
X9398800Y-3530600D01*
X9448800Y-3580600D01*
X9448800Y-3834600D02*
X9498800Y-3784600D01*
X9448800Y-3734600D01*
X9398800Y-3784600D01*
X9448800Y-3834600D01*
X9448800Y-4088600D02*
X9498800Y-4038600D01*
X9448800Y-3988600D01*
X9398800Y-4038600D01*
X9448800Y-4088600D01*
X9448800Y-4342600D02*
X9498800Y-4292600D01*
X9448800Y-4242600D01*
X9398800Y-4292600D01*
X9448800Y-4342600D01*
X9448800Y-4596600D02*
X9498800Y-4546600D01*
X9448800Y-4496600D01*
X9398800Y-4546600D01*
X9448800Y-4596600D01*
X9448800Y-4850600D02*
X9498800Y-4800600D01*
X9448800Y-4750600D01*
X9398800Y-4800600D01*
X9448800Y-4850600D01*
X9448800Y-5104600D02*
X9498800Y-5054600D01*
X9448800Y-5004600D01*
X9398800Y-5054600D01*
X9448800Y-5104600D01*
X9448800Y-5358600D02*
X9498800Y-5308600D01*
X9448800Y-5258600D01*
X9398800Y-5308600D01*
X9448800Y-5358600D01*
X9448800Y-5612600D02*
X9498800Y-5562600D01*
X9448800Y-5512600D01*
X9398800Y-5562600D01*
X9448800Y-5612600D01*
X9448800Y-5866600D02*
X9498800Y-5816600D01*
X9448800Y-5766600D01*
X9398800Y-5816600D01*
X9448800Y-5866600D01*
X9448800Y-6120600D02*
X9498800Y-6070600D01*
X9448800Y-6020600D01*
X9398800Y-6070600D01*
X9448800Y-6120600D01*
X9448800Y-6374600D02*
X9498800Y-6324600D01*
X9448800Y-6274600D01*
X9398800Y-6324600D01*
X9448800Y-6374600D01*
X9448800Y-6628600D02*
X9498800Y-6578600D01*
X9448800Y-6528600D01*
X9398800Y-6578600D01*
X9448800Y-6628600D01*
X9448800Y-6882600D02*
X9498800Y-6832600D01*
X9448800Y-6782600D01*
X9398800Y-6832600D01*
X9448800Y-6882600D01*
X9448800Y-7136600D02*
X9498800Y-7086600D01*
X9448800Y-7036600D01*
X9398800Y-7086600D01*
X9448800Y-7136600D01*
X9448800Y-7390600D02*
X9498800Y-7340600D01*
X9448800Y-7290600D01*
X9398800Y-7340600D01*
X9448800Y-7390600D01*
X9448800Y-7644600D02*
X9498800Y-7594600D01*
X9448800Y-7544600D01*
X9398800Y-7594600D01*
X9448800Y-7644600D01*
X9448800Y-7898600D02*
X9498800Y-7848600D01*
X9448800Y-7798600D01*
X9398800Y-7848600D01*
X9448800Y-7898600D01*
X9448800Y-8152600D02*
X9498800Y-8102600D01*
X9448800Y-8052600D01*
X9398800Y-8102600D01*
X9448800Y-8152600D01*
X9448800Y-8406600D02*
X9498800Y-8356600D01*
X9448800Y-8306600D01*
X9398800Y-8356600D01*
X9448800Y-8406600D01*
X9448800Y-8660600D02*
X9498800Y-8610600D01*
X9448800Y-8560600D01*
X9398800Y-8610600D01*
X9448800Y-8660600D01*
X9448800Y-8914600D02*
X9498800Y-8864600D01*
X9448800Y-8814600D01*
X9398800Y-8864600D01*
X9448800Y-8914600D01*
X9702800Y-3072600D02*
X9752800Y-3022600D01*
X9702800Y-2972600D01*
X9652800Y-3022600D01*
X9702800Y-3072600D01*
X9702800Y-3326600D02*
X9752800Y-3276600D01*
X9702800Y-3226600D01*
X9652800Y-3276600D01*
X9702800Y-3326600D01*
X9702800Y-3580600D02*
X9752800Y-3530600D01*
X9702800Y-3480600D01*
X9652800Y-3530600D01*
X9702800Y-3580600D01*
X9702800Y-3834600D02*
X9752800Y-3784600D01*
X9702800Y-3734600D01*
X9652800Y-3784600D01*
X9702800Y-3834600D01*
X9702800Y-4088600D02*
X9752800Y-4038600D01*
X9702800Y-3988600D01*
X9652800Y-4038600D01*
X9702800Y-4088600D01*
X9702800Y-4342600D02*
X9752800Y-4292600D01*
X9702800Y-4242600D01*
X9652800Y-4292600D01*
X9702800Y-4342600D01*
X9702800Y-4596600D02*
X9752800Y-4546600D01*
X9702800Y-4496600D01*
X9652800Y-4546600D01*
X9702800Y-4596600D01*
X9702800Y-4850600D02*
X9752800Y-4800600D01*
X9702800Y-4750600D01*
X9652800Y-4800600D01*
X9702800Y-4850600D01*
X9702800Y-5104600D02*
X9752800Y-5054600D01*
X9702800Y-5004600D01*
X9652800Y-5054600D01*
X9702800Y-5104600D01*
X9702800Y-5358600D02*
X9752800Y-5308600D01*
X9702800Y-5258600D01*
X9652800Y-5308600D01*
X9702800Y-5358600D01*
X9702800Y-5612600D02*
X9752800Y-5562600D01*
X9702800Y-5512600D01*
X9652800Y-5562600D01*
X9702800Y-5612600D01*
X9702800Y-5866600D02*
X9752800Y-5816600D01*
X9702800Y-5766600D01*
X9652800Y-5816600D01*
X9702800Y-5866600D01*
X9702800Y-6120600D02*
X9752800Y-6070600D01*
X9702800Y-6020600D01*
X9652800Y-6070600D01*
X9702800Y-6120600D01*
X9702800Y-6374600D02*
X9752800Y-6324600D01*
X9702800Y-6274600D01*
X9652800Y-6324600D01*
X9702800Y-6374600D01*
X9702800Y-6628600D02*
X9752800Y-6578600D01*
X9702800Y-6528600D01*
X9652800Y-6578600D01*
X9702800Y-6628600D01*
X9702800Y-6882600D02*
X9752800Y-6832600D01*
X9702800Y-6782600D01*
X9652800Y-6832600D01*
X9702800Y-6882600D01*
X9702800Y-7136600D02*
X9752800Y-7086600D01*
X9702800Y-7036600D01*
X9652800Y-7086600D01*
X9702800Y-7136600D01*
X9702800Y-7390600D02*
X9752800Y-7340600D01*
X9702800Y-7290600D01*
X9652800Y-7340600D01*
X9702800Y-7390600D01*
X9702800Y-7644600D02*
X9752800Y-7594600D01*
X9702800Y-7544600D01*
X9652800Y-7594600D01*
X9702800Y-7644600D01*
X9702800Y-7898600D02*
X9752800Y-7848600D01*
X9702800Y-7798600D01*
X9652800Y-7848600D01*
X9702800Y-7898600D01*
X9702800Y-8152600D02*
X9752800Y-8102600D01*
X9702800Y-8052600D01*
X9652800Y-8102600D01*
X9702800Y-8152600D01*
X9702800Y-8406600D02*
X9752800Y-8356600D01*
X9702800Y-8306600D01*
X9652800Y-8356600D01*
X9702800Y-8406600D01*
X9702800Y-8660600D02*
X9752800Y-8610600D01*
X9702800Y-8560600D01*
X9652800Y-8610600D01*
X9702800Y-8660600D01*
X9702800Y-8914600D02*
X9752800Y-8864600D01*
X9702800Y-8814600D01*
X9652800Y-8864600D01*
X9702800Y-8914600D01*
X5638800Y-6647650D02*
X5688800Y-6597650D01*
X5638800Y-6547650D01*
X5588800Y-6597650D01*
X5638800Y-6647650D01*
X5638800Y-6901650D02*
X5688800Y-6851650D01*
X5638800Y-6801650D01*
X5588800Y-6851650D01*
X5638800Y-6901650D01*
X5638800Y-7155650D02*
X5688800Y-7105650D01*
X5638800Y-7055650D01*
X5588800Y-7105650D01*
X5638800Y-7155650D01*
X5638800Y-7409650D02*
X5688800Y-7359650D01*
X5638800Y-7309650D01*
X5588800Y-7359650D01*
X5638800Y-7409650D01*
X8563000Y-2841460D02*
X8613000Y-2791460D01*
X8563000Y-2741460D01*
X8513000Y-2791460D01*
X8563000Y-2841460D01*
X8817000Y-2841460D02*
X8867000Y-2791460D01*
X8817000Y-2741460D01*
X8767000Y-2791460D01*
X8817000Y-2841460D01*
X4117340Y-9737560D02*
X4167340Y-9687560D01*
X4117340Y-9637560D01*
X4067340Y-9687560D01*
X4117340Y-9737560D01*
X4910740Y-10164760D02*
X4960740Y-10114760D01*
X4910740Y-10064760D01*
X4860740Y-10114760D01*
X4910740Y-10164760D01*
X5049240Y-10448760D02*
X5099240Y-10398760D01*
X5049240Y-10348760D01*
X4999240Y-10398760D01*
X5049240Y-10448760D01*
X5187740Y-10164760D02*
X5237740Y-10114760D01*
X5187740Y-10064760D01*
X5137740Y-10114760D01*
X5187740Y-10164760D01*
X5326240Y-10448760D02*
X5376240Y-10398760D01*
X5326240Y-10348760D01*
X5276240Y-10398760D01*
X5326240Y-10448760D01*
X5464740Y-10164760D02*
X5514740Y-10114760D01*
X5464740Y-10064760D01*
X5414740Y-10114760D01*
X5464740Y-10164760D01*
X5603240Y-10448760D02*
X5653240Y-10398760D01*
X5603240Y-10348760D01*
X5553240Y-10398760D01*
X5603240Y-10448760D01*
X5741740Y-10164760D02*
X5791740Y-10114760D01*
X5741740Y-10064760D01*
X5691740Y-10114760D01*
X5741740Y-10164760D01*
X5880240Y-10448760D02*
X5930240Y-10398760D01*
X5880240Y-10348760D01*
X5830240Y-10398760D01*
X5880240Y-10448760D01*
X6018740Y-10164760D02*
X6068740Y-10114760D01*
X6018740Y-10064760D01*
X5968740Y-10114760D01*
X6018740Y-10164760D01*
X2844800Y-3072600D02*
X2894800Y-3022600D01*
X2844800Y-2972600D01*
X2794800Y-3022600D01*
X2844800Y-3072600D01*
X2844800Y-3326600D02*
X2894800Y-3276600D01*
X2844800Y-3226600D01*
X2794800Y-3276600D01*
X2844800Y-3326600D01*
X2844800Y-3580600D02*
X2894800Y-3530600D01*
X2844800Y-3480600D01*
X2794800Y-3530600D01*
X2844800Y-3580600D01*
X2844800Y-3834600D02*
X2894800Y-3784600D01*
X2844800Y-3734600D01*
X2794800Y-3784600D01*
X2844800Y-3834600D01*
X2844800Y-4088600D02*
X2894800Y-4038600D01*
X2844800Y-3988600D01*
X2794800Y-4038600D01*
X2844800Y-4088600D01*
X2844800Y-4342600D02*
X2894800Y-4292600D01*
X2844800Y-4242600D01*
X2794800Y-4292600D01*
X2844800Y-4342600D01*
X2844800Y-4596600D02*
X2894800Y-4546600D01*
X2844800Y-4496600D01*
X2794800Y-4546600D01*
X2844800Y-4596600D01*
X2844800Y-4850600D02*
X2894800Y-4800600D01*
X2844800Y-4750600D01*
X2794800Y-4800600D01*
X2844800Y-4850600D01*
X2844800Y-5104600D02*
X2894800Y-5054600D01*
X2844800Y-5004600D01*
X2794800Y-5054600D01*
X2844800Y-5104600D01*
X2844800Y-5358600D02*
X2894800Y-5308600D01*
X2844800Y-5258600D01*
X2794800Y-5308600D01*
X2844800Y-5358600D01*
X2844800Y-5612600D02*
X2894800Y-5562600D01*
X2844800Y-5512600D01*
X2794800Y-5562600D01*
X2844800Y-5612600D01*
X2844800Y-5866600D02*
X2894800Y-5816600D01*
X2844800Y-5766600D01*
X2794800Y-5816600D01*
X2844800Y-5866600D01*
X2844800Y-6120600D02*
X2894800Y-6070600D01*
X2844800Y-6020600D01*
X2794800Y-6070600D01*
X2844800Y-6120600D01*
X2844800Y-6374600D02*
X2894800Y-6324600D01*
X2844800Y-6274600D01*
X2794800Y-6324600D01*
X2844800Y-6374600D01*
X2844800Y-6628600D02*
X2894800Y-6578600D01*
X2844800Y-6528600D01*
X2794800Y-6578600D01*
X2844800Y-6628600D01*
X2844800Y-6882600D02*
X2894800Y-6832600D01*
X2844800Y-6782600D01*
X2794800Y-6832600D01*
X2844800Y-6882600D01*
X2844800Y-7136600D02*
X2894800Y-7086600D01*
X2844800Y-7036600D01*
X2794800Y-7086600D01*
X2844800Y-7136600D01*
X2844800Y-7390600D02*
X2894800Y-7340600D01*
X2844800Y-7290600D01*
X2794800Y-7340600D01*
X2844800Y-7390600D01*
X2844800Y-7644600D02*
X2894800Y-7594600D01*
X2844800Y-7544600D01*
X2794800Y-7594600D01*
X2844800Y-7644600D01*
X2844800Y-7898600D02*
X2894800Y-7848600D01*
X2844800Y-7798600D01*
X2794800Y-7848600D01*
X2844800Y-7898600D01*
X2844800Y-8152600D02*
X2894800Y-8102600D01*
X2844800Y-8052600D01*
X2794800Y-8102600D01*
X2844800Y-8152600D01*
X2844800Y-8406600D02*
X2894800Y-8356600D01*
X2844800Y-8306600D01*
X2794800Y-8356600D01*
X2844800Y-8406600D01*
X2844800Y-8660600D02*
X2894800Y-8610600D01*
X2844800Y-8560600D01*
X2794800Y-8610600D01*
X2844800Y-8660600D01*
X2844800Y-8914600D02*
X2894800Y-8864600D01*
X2844800Y-8814600D01*
X2794800Y-8864600D01*
X2844800Y-8914600D01*
X3098800Y-3072600D02*
X3148800Y-3022600D01*
X3098800Y-2972600D01*
X3048800Y-3022600D01*
X3098800Y-3072600D01*
X3098800Y-3326600D02*
X3148800Y-3276600D01*
X3098800Y-3226600D01*
X3048800Y-3276600D01*
X3098800Y-3326600D01*
X3098800Y-3580600D02*
X3148800Y-3530600D01*
X3098800Y-3480600D01*
X3048800Y-3530600D01*
X3098800Y-3580600D01*
X3098800Y-3834600D02*
X3148800Y-3784600D01*
X3098800Y-3734600D01*
X3048800Y-3784600D01*
X3098800Y-3834600D01*
X3098800Y-4088600D02*
X3148800Y-4038600D01*
X3098800Y-3988600D01*
X3048800Y-4038600D01*
X3098800Y-4088600D01*
X3098800Y-4342600D02*
X3148800Y-4292600D01*
X3098800Y-4242600D01*
X3048800Y-4292600D01*
X3098800Y-4342600D01*
X3098800Y-4596600D02*
X3148800Y-4546600D01*
X3098800Y-4496600D01*
X3048800Y-4546600D01*
X3098800Y-4596600D01*
X3098800Y-4850600D02*
X3148800Y-4800600D01*
X3098800Y-4750600D01*
X3048800Y-4800600D01*
X3098800Y-4850600D01*
X3098800Y-5104600D02*
X3148800Y-5054600D01*
X3098800Y-5004600D01*
X3048800Y-5054600D01*
X3098800Y-5104600D01*
X3098800Y-5358600D02*
X3148800Y-5308600D01*
X3098800Y-5258600D01*
X3048800Y-5308600D01*
X3098800Y-5358600D01*
X3098800Y-5612600D02*
X3148800Y-5562600D01*
X3098800Y-5512600D01*
X3048800Y-5562600D01*
X3098800Y-5612600D01*
X3098800Y-5866600D02*
X3148800Y-5816600D01*
X3098800Y-5766600D01*
X3048800Y-5816600D01*
X3098800Y-5866600D01*
X3098800Y-6120600D02*
X3148800Y-6070600D01*
X3098800Y-6020600D01*
X3048800Y-6070600D01*
X3098800Y-6120600D01*
X3098800Y-6374600D02*
X3148800Y-6324600D01*
X3098800Y-6274600D01*
X3048800Y-6324600D01*
X3098800Y-6374600D01*
X3098800Y-6628600D02*
X3148800Y-6578600D01*
X3098800Y-6528600D01*
X3048800Y-6578600D01*
X3098800Y-6628600D01*
X3098800Y-6882600D02*
X3148800Y-6832600D01*
X3098800Y-6782600D01*
X3048800Y-6832600D01*
X3098800Y-6882600D01*
X3098800Y-7136600D02*
X3148800Y-7086600D01*
X3098800Y-7036600D01*
X3048800Y-7086600D01*
X3098800Y-7136600D01*
X3098800Y-7390600D02*
X3148800Y-7340600D01*
X3098800Y-7290600D01*
X3048800Y-7340600D01*
X3098800Y-7390600D01*
X3098800Y-7644600D02*
X3148800Y-7594600D01*
X3098800Y-7544600D01*
X3048800Y-7594600D01*
X3098800Y-7644600D01*
X3098800Y-7898600D02*
X3148800Y-7848600D01*
X3098800Y-7798600D01*
X3048800Y-7848600D01*
X3098800Y-7898600D01*
X3098800Y-8152600D02*
X3148800Y-8102600D01*
X3098800Y-8052600D01*
X3048800Y-8102600D01*
X3098800Y-8152600D01*
X3098800Y-8406600D02*
X3148800Y-8356600D01*
X3098800Y-8306600D01*
X3048800Y-8356600D01*
X3098800Y-8406600D01*
X3098800Y-8660600D02*
X3148800Y-8610600D01*
X3098800Y-8560600D01*
X3048800Y-8610600D01*
X3098800Y-8660600D01*
X3098800Y-8914600D02*
X3148800Y-8864600D01*
X3098800Y-8814600D01*
X3048800Y-8864600D01*
X3098800Y-8914600D01*
X7213600Y-6914350D02*
X7263600Y-6864350D01*
X7213600Y-6814350D01*
X7163600Y-6864350D01*
X7213600Y-6914350D01*
X9419590Y-10717530D02*
X9521190Y-10819130D01*
X9521190Y-10717530D02*
X9419590Y-10819130D01*
X9521190Y-10768330D02*
G75*
G03X9521190Y-10768330I-50800J0D01*
G01*
X9671050Y-10717530D02*
X9772650Y-10819130D01*
X9772650Y-10717530D02*
X9671050Y-10819130D01*
X9772650Y-10768330D02*
G75*
G03X9772650Y-10768330I-50800J0D01*
G01*
X10430510Y-10717530D02*
X10532110Y-10819130D01*
X10532110Y-10717530D02*
X10430510Y-10819130D01*
X10532110Y-10768330D02*
G75*
G03X10532110Y-10768330I-50800J0D01*
G01*
X10681970Y-10717530D02*
X10783570Y-10819130D01*
X10783570Y-10717530D02*
X10681970Y-10819130D01*
X10783570Y-10768330D02*
G75*
G03X10783570Y-10768330I-50800J0D01*
G01*
X1629180Y-5070880D02*
X1759180Y-5200880D01*
X1759180Y-5070880D02*
X1629180Y-5200880D01*
X1694180Y-5070880D02*
X1694180Y-5200880D01*
X1629180Y-5135880D02*
X1759180Y-5135880D01*
X1629180Y-5578880D02*
X1759180Y-5708880D01*
X1759180Y-5578880D02*
X1629180Y-5708880D01*
X1694180Y-5578880D02*
X1694180Y-5708880D01*
X1629180Y-5643880D02*
X1759180Y-5643880D01*
X1629180Y-6086880D02*
X1759180Y-6216880D01*
X1759180Y-6086880D02*
X1629180Y-6216880D01*
X1694180Y-6086880D02*
X1694180Y-6216880D01*
X1629180Y-6151880D02*
X1759180Y-6151880D01*
X1629180Y-6594880D02*
X1759180Y-6724880D01*
X1759180Y-6594880D02*
X1629180Y-6724880D01*
X1694180Y-6594880D02*
X1694180Y-6724880D01*
X1629180Y-6659880D02*
X1759180Y-6659880D01*
X1629180Y-7102880D02*
X1759180Y-7232880D01*
X1759180Y-7102880D02*
X1629180Y-7232880D01*
X1694180Y-7102880D02*
X1694180Y-7232880D01*
X1629180Y-7167880D02*
X1759180Y-7167880D01*
X1629180Y-7610880D02*
X1759180Y-7740880D01*
X1759180Y-7610880D02*
X1629180Y-7740880D01*
X1694180Y-7610880D02*
X1694180Y-7740880D01*
X1629180Y-7675880D02*
X1759180Y-7675880D01*
X1629180Y-8118880D02*
X1759180Y-8248880D01*
X1759180Y-8118880D02*
X1629180Y-8248880D01*
X1694180Y-8118880D02*
X1694180Y-8248880D01*
X1629180Y-8183880D02*
X1759180Y-8183880D01*
X1629180Y-8626880D02*
X1759180Y-8756880D01*
X1759180Y-8626880D02*
X1629180Y-8756880D01*
X1694180Y-8626880D02*
X1694180Y-8756880D01*
X1629180Y-8691880D02*
X1759180Y-8691880D01*
X1629180Y-9134880D02*
X1759180Y-9264880D01*
X1759180Y-9134880D02*
X1629180Y-9264880D01*
X1694180Y-9134880D02*
X1694180Y-9264880D01*
X1629180Y-9199880D02*
X1759180Y-9199880D01*
X1629180Y-9642880D02*
X1759180Y-9772880D01*
X1759180Y-9642880D02*
X1629180Y-9772880D01*
X1694180Y-9642880D02*
X1694180Y-9772880D01*
X1629180Y-9707880D02*
X1759180Y-9707880D01*
X1629180Y-1918740D02*
X1759180Y-2048740D01*
X1759180Y-1918740D02*
X1629180Y-2048740D01*
X1694180Y-1918740D02*
X1694180Y-2048740D01*
X1629180Y-1983740D02*
X1759180Y-1983740D01*
X1629180Y-2426740D02*
X1759180Y-2556740D01*
X1759180Y-2426740D02*
X1629180Y-2556740D01*
X1694180Y-2426740D02*
X1694180Y-2556740D01*
X1629180Y-2491740D02*
X1759180Y-2491740D01*
X1629180Y-2934740D02*
X1759180Y-3064740D01*
X1759180Y-2934740D02*
X1629180Y-3064740D01*
X1694180Y-2934740D02*
X1694180Y-3064740D01*
X1629180Y-2999740D02*
X1759180Y-2999740D01*
X1629180Y-3442740D02*
X1759180Y-3572740D01*
X1759180Y-3442740D02*
X1629180Y-3572740D01*
X1694180Y-3442740D02*
X1694180Y-3572740D01*
X1629180Y-3507740D02*
X1759180Y-3507740D01*
X1629180Y-3950740D02*
X1759180Y-4080740D01*
X1759180Y-3950740D02*
X1629180Y-4080740D01*
X1694180Y-3950740D02*
X1694180Y-4080740D01*
X1629180Y-4015740D02*
X1759180Y-4015740D01*
X1629180Y-4458740D02*
X1759180Y-4588740D01*
X1759180Y-4458740D02*
X1629180Y-4588740D01*
X1694180Y-4458740D02*
X1694180Y-4588740D01*
X1629180Y-4523740D02*
X1759180Y-4523740D01*
X4268900Y-1710450D02*
X4408900Y-1850450D01*
X4408900Y-1710450D02*
X4268900Y-1850450D01*
X4388398Y-1829948D02*
X4388398Y-1730952D01*
X4289402Y-1730952D01*
X4289402Y-1829948D01*
X4388398Y-1829948D01*
X4268900Y-2260450D02*
X4408900Y-2400450D01*
X4408900Y-2260450D02*
X4268900Y-2400450D01*
X4388398Y-2379948D02*
X4388398Y-2280952D01*
X4289402Y-2280952D01*
X4289402Y-2379948D01*
X4388398Y-2379948D01*
X4688900Y-1710450D02*
X4828900Y-1850450D01*
X4828900Y-1710450D02*
X4688900Y-1850450D01*
X4808398Y-1829948D02*
X4808398Y-1730952D01*
X4709402Y-1730952D01*
X4709402Y-1829948D01*
X4808398Y-1829948D01*
X4688900Y-2260450D02*
X4828900Y-2400450D01*
X4828900Y-2260450D02*
X4688900Y-2400450D01*
X4808398Y-2379948D02*
X4808398Y-2280952D01*
X4709402Y-2280952D01*
X4709402Y-2379948D01*
X4808398Y-2379948D01*
X5108900Y-1710450D02*
X5248900Y-1850450D01*
X5248900Y-1710450D02*
X5108900Y-1850450D01*
X5228398Y-1829948D02*
X5228398Y-1730952D01*
X5129402Y-1730952D01*
X5129402Y-1829948D01*
X5228398Y-1829948D01*
X5108900Y-2260450D02*
X5248900Y-2400450D01*
X5248900Y-2260450D02*
X5108900Y-2400450D01*
X5228398Y-2379948D02*
X5228398Y-2280952D01*
X5129402Y-2280952D01*
X5129402Y-2379948D01*
X5228398Y-2379948D01*
X5528900Y-1710450D02*
X5668900Y-1850450D01*
X5668900Y-1710450D02*
X5528900Y-1850450D01*
X5648398Y-1829948D02*
X5648398Y-1730952D01*
X5549402Y-1730952D01*
X5549402Y-1829948D01*
X5648398Y-1829948D01*
X5528900Y-2260450D02*
X5668900Y-2400450D01*
X5668900Y-2260450D02*
X5528900Y-2400450D01*
X5648398Y-2379948D02*
X5648398Y-2280952D01*
X5549402Y-2280952D01*
X5549402Y-2379948D01*
X5648398Y-2379948D01*
X5948900Y-1710450D02*
X6088900Y-1850450D01*
X6088900Y-1710450D02*
X5948900Y-1850450D01*
X6068398Y-1829948D02*
X6068398Y-1730952D01*
X5969402Y-1730952D01*
X5969402Y-1829948D01*
X6068398Y-1829948D01*
X5948900Y-2260450D02*
X6088900Y-2400450D01*
X6088900Y-2260450D02*
X5948900Y-2400450D01*
X6068398Y-2379948D02*
X6068398Y-2280952D01*
X5969402Y-2280952D01*
X5969402Y-2379948D01*
X6068398Y-2379948D01*
X6368900Y-1710450D02*
X6508900Y-1850450D01*
X6508900Y-1710450D02*
X6368900Y-1850450D01*
X6488398Y-1829948D02*
X6488398Y-1730952D01*
X6389402Y-1730952D01*
X6389402Y-1829948D01*
X6488398Y-1829948D01*
X6368900Y-2260450D02*
X6508900Y-2400450D01*
X6508900Y-2260450D02*
X6368900Y-2400450D01*
X6488398Y-2379948D02*
X6488398Y-2280952D01*
X6389402Y-2280952D01*
X6389402Y-2379948D01*
X6488398Y-2379948D01*
X6788900Y-1710450D02*
X6928900Y-1850450D01*
X6928900Y-1710450D02*
X6788900Y-1850450D01*
X6908398Y-1829948D02*
X6908398Y-1730952D01*
X6809402Y-1730952D01*
X6809402Y-1829948D01*
X6908398Y-1829948D01*
X6788900Y-2260450D02*
X6928900Y-2400450D01*
X6928900Y-2260450D02*
X6788900Y-2400450D01*
X6908398Y-2379948D02*
X6908398Y-2280952D01*
X6809402Y-2280952D01*
X6809402Y-2379948D01*
X6908398Y-2379948D01*
X7208900Y-1710450D02*
X7348900Y-1850450D01*
X7348900Y-1710450D02*
X7208900Y-1850450D01*
X7328398Y-1829948D02*
X7328398Y-1730952D01*
X7229402Y-1730952D01*
X7229402Y-1829948D01*
X7328398Y-1829948D01*
X7208900Y-2260450D02*
X7348900Y-2400450D01*
X7348900Y-2260450D02*
X7208900Y-2400450D01*
X7328398Y-2379948D02*
X7328398Y-2280952D01*
X7229402Y-2280952D01*
X7229402Y-2379948D01*
X7328398Y-2379948D01*
X7628900Y-1710450D02*
X7768900Y-1850450D01*
X7768900Y-1710450D02*
X7628900Y-1850450D01*
X7748398Y-1829948D02*
X7748398Y-1730952D01*
X7649402Y-1730952D01*
X7649402Y-1829948D01*
X7748398Y-1829948D01*
X7628900Y-2260450D02*
X7768900Y-2400450D01*
X7768900Y-2260450D02*
X7628900Y-2400450D01*
X7748398Y-2379948D02*
X7748398Y-2280952D01*
X7649402Y-2280952D01*
X7649402Y-2379948D01*
X7748398Y-2379948D01*
X8048900Y-1710450D02*
X8188900Y-1850450D01*
X8188900Y-1710450D02*
X8048900Y-1850450D01*
X8168398Y-1829948D02*
X8168398Y-1730952D01*
X8069402Y-1730952D01*
X8069402Y-1829948D01*
X8168398Y-1829948D01*
X8048900Y-2260450D02*
X8188900Y-2400450D01*
X8188900Y-2260450D02*
X8048900Y-2400450D01*
X8168398Y-2379948D02*
X8168398Y-2280952D01*
X8069402Y-2280952D01*
X8069402Y-2379948D01*
X8168398Y-2379948D01*
X8468900Y-1710450D02*
X8608900Y-1850450D01*
X8608900Y-1710450D02*
X8468900Y-1850450D01*
X8588398Y-1829948D02*
X8588398Y-1730952D01*
X8489402Y-1730952D01*
X8489402Y-1829948D01*
X8588398Y-1829948D01*
X8468900Y-2260450D02*
X8608900Y-2400450D01*
X8608900Y-2260450D02*
X8468900Y-2400450D01*
X8588398Y-2379948D02*
X8588398Y-2280952D01*
X8489402Y-2280952D01*
X8489402Y-2379948D01*
X8588398Y-2379948D01*
X8888900Y-1710450D02*
X9028900Y-1850450D01*
X9028900Y-1710450D02*
X8888900Y-1850450D01*
X9008398Y-1829948D02*
X9008398Y-1730952D01*
X8909402Y-1730952D01*
X8909402Y-1829948D01*
X9008398Y-1829948D01*
X8888900Y-2260450D02*
X9028900Y-2400450D01*
X9028900Y-2260450D02*
X8888900Y-2400450D01*
X9008398Y-2379948D02*
X9008398Y-2280952D01*
X8909402Y-2280952D01*
X8909402Y-2379948D01*
X9008398Y-2379948D01*
X9232900Y-9885680D02*
X9398000Y-10050780D01*
X9398000Y-9885680D02*
X9232900Y-10050780D01*
X9315450Y-10050780D02*
X9398000Y-9968230D01*
X9315450Y-9885680D01*
X9232900Y-9968230D01*
X9315450Y-10050780D01*
X10807700Y-9885680D02*
X10972800Y-10050780D01*
X10972800Y-9885680D02*
X10807700Y-10050780D01*
X10890250Y-10050780D02*
X10972800Y-9968230D01*
X10890250Y-9885680D01*
X10807700Y-9968230D01*
X10890250Y-10050780D01*
X4214740Y-10096760D02*
X4214740Y-10416760D01*
X4054740Y-10256760D02*
X4374740Y-10256760D01*
X4374740Y-10256760D02*
G75*
G03X4374740Y-10256760I-160000J0D01*
G01*
X6714740Y-10096760D02*
X6714740Y-10416760D01*
X6554740Y-10256760D02*
X6874740Y-10256760D01*
X6874740Y-10256760D02*
G75*
G03X6874740Y-10256760I-160000J0D01*
G01*
D12*
X1551428Y-11646714D02*
X1551428Y-11346714D01*
X1622857Y-11346714D01*
X1665714Y-11361000D01*
X1694286Y-11389571D01*
X1708571Y-11418143D01*
X1722857Y-11475286D01*
X1722857Y-11518143D01*
X1708571Y-11575286D01*
X1694286Y-11603857D01*
X1665714Y-11632429D01*
X1622857Y-11646714D01*
X1551428Y-11646714D01*
X1851428Y-11646714D02*
X1851428Y-11446714D01*
X1851428Y-11503857D02*
X1865714Y-11475286D01*
X1880000Y-11461000D01*
X1908571Y-11446714D01*
X1937143Y-11446714D01*
X2037143Y-11646714D02*
X2037143Y-11446714D01*
X2037143Y-11346714D02*
X2022857Y-11361000D01*
X2037143Y-11375286D01*
X2051428Y-11361000D01*
X2037143Y-11346714D01*
X2037143Y-11375286D01*
X2222857Y-11646714D02*
X2194286Y-11632429D01*
X2180000Y-11603857D01*
X2180000Y-11346714D01*
X2380000Y-11646714D02*
X2351428Y-11632429D01*
X2337143Y-11603857D01*
X2337143Y-11346714D01*
X2722857Y-11646714D02*
X2722857Y-11346714D01*
X2822857Y-11561000D01*
X2922857Y-11346714D01*
X2922857Y-11646714D01*
X3194286Y-11646714D02*
X3194286Y-11489571D01*
X3180000Y-11461000D01*
X3151428Y-11446714D01*
X3094286Y-11446714D01*
X3065714Y-11461000D01*
X3194286Y-11632429D02*
X3165714Y-11646714D01*
X3094286Y-11646714D01*
X3065714Y-11632429D01*
X3051428Y-11603857D01*
X3051428Y-11575286D01*
X3065714Y-11546714D01*
X3094286Y-11532429D01*
X3165714Y-11532429D01*
X3194286Y-11518143D01*
X3337143Y-11446714D02*
X3337143Y-11746714D01*
X3337143Y-11461000D02*
X3365714Y-11446714D01*
X3422857Y-11446714D01*
X3451428Y-11461000D01*
X3465714Y-11475286D01*
X3480000Y-11503857D01*
X3480000Y-11589571D01*
X3465714Y-11618143D01*
X3451428Y-11632429D01*
X3422857Y-11646714D01*
X3365714Y-11646714D01*
X3337143Y-11632429D01*
X3608571Y-11618143D02*
X3622857Y-11632429D01*
X3608571Y-11646714D01*
X3594286Y-11632429D01*
X3608571Y-11618143D01*
X3608571Y-11646714D01*
X3608571Y-11461000D02*
X3622857Y-11475286D01*
X3608571Y-11489571D01*
X3594286Y-11475286D01*
X3608571Y-11461000D01*
X3608571Y-11489571D01*
X1225000Y-12121000D02*
X1265000Y-12161000D01*
X1265000Y-12121000D02*
X1225000Y-12161000D01*
X1608571Y-11976714D02*
X1637143Y-11976714D01*
X1665714Y-11991000D01*
X1680000Y-12005286D01*
X1694286Y-12033857D01*
X1708571Y-12091000D01*
X1708571Y-12162429D01*
X1694286Y-12219571D01*
X1680000Y-12248143D01*
X1665714Y-12262429D01*
X1637143Y-12276714D01*
X1608571Y-12276714D01*
X1580000Y-12262429D01*
X1565714Y-12248143D01*
X1551428Y-12219571D01*
X1537143Y-12162429D01*
X1537143Y-12091000D01*
X1551428Y-12033857D01*
X1565714Y-12005286D01*
X1580000Y-11991000D01*
X1608571Y-11976714D01*
X1837143Y-12248143D02*
X1851428Y-12262429D01*
X1837143Y-12276714D01*
X1822857Y-12262429D01*
X1837143Y-12248143D01*
X1837143Y-12276714D01*
X2108571Y-12076714D02*
X2108571Y-12276714D01*
X2037143Y-11962429D02*
X1965714Y-12176714D01*
X2151428Y-12176714D01*
X2322857Y-11976714D02*
X2351428Y-11976714D01*
X2380000Y-11991000D01*
X2394286Y-12005286D01*
X2408571Y-12033857D01*
X2422857Y-12091000D01*
X2422857Y-12162429D01*
X2408571Y-12219571D01*
X2394286Y-12248143D01*
X2380000Y-12262429D01*
X2351428Y-12276714D01*
X2322857Y-12276714D01*
X2294286Y-12262429D01*
X2280000Y-12248143D01*
X2265714Y-12219571D01*
X2251428Y-12162429D01*
X2251428Y-12091000D01*
X2265714Y-12033857D01*
X2280000Y-12005286D01*
X2294286Y-11991000D01*
X2322857Y-11976714D01*
X2551428Y-12276714D02*
X2551428Y-12076714D01*
X2551428Y-12105286D02*
X2565714Y-12091000D01*
X2594286Y-12076714D01*
X2637143Y-12076714D01*
X2665714Y-12091000D01*
X2680000Y-12119571D01*
X2680000Y-12276714D01*
X2680000Y-12119571D02*
X2694286Y-12091000D01*
X2722857Y-12076714D01*
X2765714Y-12076714D01*
X2794286Y-12091000D01*
X2808571Y-12119571D01*
X2808571Y-12276714D01*
X2951428Y-12276714D02*
X2951428Y-12076714D01*
X2951428Y-12105286D02*
X2965714Y-12091000D01*
X2994286Y-12076714D01*
X3037143Y-12076714D01*
X3065714Y-12091000D01*
X3080000Y-12119571D01*
X3080000Y-12276714D01*
X3080000Y-12119571D02*
X3094286Y-12091000D01*
X3122857Y-12076714D01*
X3165714Y-12076714D01*
X3194286Y-12091000D01*
X3208571Y-12119571D01*
X3208571Y-12276714D01*
X3794286Y-11962429D02*
X3537143Y-12348143D01*
X4180000Y-11976714D02*
X4208571Y-11976714D01*
X4237143Y-11991000D01*
X4251428Y-12005286D01*
X4265714Y-12033857D01*
X4280000Y-12091000D01*
X4280000Y-12162429D01*
X4265714Y-12219571D01*
X4251428Y-12248143D01*
X4237143Y-12262429D01*
X4208571Y-12276714D01*
X4180000Y-12276714D01*
X4151428Y-12262429D01*
X4137143Y-12248143D01*
X4122857Y-12219571D01*
X4108571Y-12162429D01*
X4108571Y-12091000D01*
X4122857Y-12033857D01*
X4137143Y-12005286D01*
X4151428Y-11991000D01*
X4180000Y-11976714D01*
X4408571Y-12248143D02*
X4422857Y-12262429D01*
X4408571Y-12276714D01*
X4394286Y-12262429D01*
X4408571Y-12248143D01*
X4408571Y-12276714D01*
X4608571Y-11976714D02*
X4637143Y-11976714D01*
X4665714Y-11991000D01*
X4680000Y-12005286D01*
X4694286Y-12033857D01*
X4708571Y-12091000D01*
X4708571Y-12162429D01*
X4694286Y-12219571D01*
X4680000Y-12248143D01*
X4665714Y-12262429D01*
X4637143Y-12276714D01*
X4608571Y-12276714D01*
X4580000Y-12262429D01*
X4565714Y-12248143D01*
X4551428Y-12219571D01*
X4537143Y-12162429D01*
X4537143Y-12091000D01*
X4551428Y-12033857D01*
X4565714Y-12005286D01*
X4580000Y-11991000D01*
X4608571Y-11976714D01*
X4994286Y-12276714D02*
X4822857Y-12276714D01*
X4908571Y-12276714D02*
X4908571Y-11976714D01*
X4880000Y-12019571D01*
X4851428Y-12048143D01*
X4822857Y-12062429D01*
X5251428Y-11976714D02*
X5194286Y-11976714D01*
X5165714Y-11991000D01*
X5151428Y-12005286D01*
X5122857Y-12048143D01*
X5108571Y-12105286D01*
X5108571Y-12219571D01*
X5122857Y-12248143D01*
X5137143Y-12262429D01*
X5165714Y-12276714D01*
X5222857Y-12276714D01*
X5251428Y-12262429D01*
X5265714Y-12248143D01*
X5280000Y-12219571D01*
X5280000Y-12148143D01*
X5265714Y-12119571D01*
X5251428Y-12105286D01*
X5222857Y-12091000D01*
X5165714Y-12091000D01*
X5137143Y-12105286D01*
X5122857Y-12119571D01*
X5108571Y-12148143D01*
X5394286Y-11976714D02*
X5394286Y-12033857D01*
X5508571Y-11976714D02*
X5508571Y-12033857D01*
X5951428Y-12391000D02*
X5937143Y-12376714D01*
X5908571Y-12333857D01*
X5894286Y-12305286D01*
X5880000Y-12262429D01*
X5865714Y-12191000D01*
X5865714Y-12133857D01*
X5880000Y-12062429D01*
X5894286Y-12019571D01*
X5908571Y-11991000D01*
X5937143Y-11948143D01*
X5951428Y-11933857D01*
X6051428Y-12005286D02*
X6065714Y-11991000D01*
X6094286Y-11976714D01*
X6165714Y-11976714D01*
X6194286Y-11991000D01*
X6208571Y-12005286D01*
X6222857Y-12033857D01*
X6222857Y-12062429D01*
X6208571Y-12105286D01*
X6037143Y-12276714D01*
X6222857Y-12276714D01*
X6408571Y-11976714D02*
X6437143Y-11976714D01*
X6465714Y-11991000D01*
X6480000Y-12005286D01*
X6494286Y-12033857D01*
X6508571Y-12091000D01*
X6508571Y-12162429D01*
X6494286Y-12219571D01*
X6480000Y-12248143D01*
X6465714Y-12262429D01*
X6437143Y-12276714D01*
X6408571Y-12276714D01*
X6380000Y-12262429D01*
X6365714Y-12248143D01*
X6351428Y-12219571D01*
X6337143Y-12162429D01*
X6337143Y-12091000D01*
X6351428Y-12033857D01*
X6365714Y-12005286D01*
X6380000Y-11991000D01*
X6408571Y-11976714D01*
X6780000Y-11976714D02*
X6637143Y-11976714D01*
X6622857Y-12119571D01*
X6637143Y-12105286D01*
X6665714Y-12091000D01*
X6737143Y-12091000D01*
X6765714Y-12105286D01*
X6780000Y-12119571D01*
X6794286Y-12148143D01*
X6794286Y-12219571D01*
X6780000Y-12248143D01*
X6765714Y-12262429D01*
X6737143Y-12276714D01*
X6665714Y-12276714D01*
X6637143Y-12262429D01*
X6622857Y-12248143D01*
X7151428Y-12276714D02*
X7151428Y-11976714D01*
X7280000Y-12276714D02*
X7280000Y-12119571D01*
X7265714Y-12091000D01*
X7237143Y-12076714D01*
X7194286Y-12076714D01*
X7165714Y-12091000D01*
X7151428Y-12105286D01*
X7465714Y-12276714D02*
X7437143Y-12262429D01*
X7422857Y-12248143D01*
X7408571Y-12219571D01*
X7408571Y-12133857D01*
X7422857Y-12105286D01*
X7437143Y-12091000D01*
X7465714Y-12076714D01*
X7508571Y-12076714D01*
X7537143Y-12091000D01*
X7551428Y-12105286D01*
X7565714Y-12133857D01*
X7565714Y-12219571D01*
X7551428Y-12248143D01*
X7537143Y-12262429D01*
X7508571Y-12276714D01*
X7465714Y-12276714D01*
X7737143Y-12276714D02*
X7708571Y-12262429D01*
X7694286Y-12233857D01*
X7694286Y-11976714D01*
X7965714Y-12262429D02*
X7937143Y-12276714D01*
X7880000Y-12276714D01*
X7851428Y-12262429D01*
X7837143Y-12233857D01*
X7837143Y-12119571D01*
X7851428Y-12091000D01*
X7880000Y-12076714D01*
X7937143Y-12076714D01*
X7965714Y-12091000D01*
X7980000Y-12119571D01*
X7980000Y-12148143D01*
X7837143Y-12176714D01*
X8094286Y-12262429D02*
X8122857Y-12276714D01*
X8180000Y-12276714D01*
X8208571Y-12262429D01*
X8222857Y-12233857D01*
X8222857Y-12219571D01*
X8208571Y-12191000D01*
X8180000Y-12176714D01*
X8137143Y-12176714D01*
X8108571Y-12162429D01*
X8094286Y-12133857D01*
X8094286Y-12119571D01*
X8108571Y-12091000D01*
X8137143Y-12076714D01*
X8180000Y-12076714D01*
X8208571Y-12091000D01*
X8322857Y-12391000D02*
X8337143Y-12376714D01*
X8365714Y-12333857D01*
X8380000Y-12305286D01*
X8394286Y-12262429D01*
X8408571Y-12191000D01*
X8408571Y-12133857D01*
X8394286Y-12062429D01*
X8380000Y-12019571D01*
X8365714Y-11991000D01*
X8337143Y-11948143D01*
X8322857Y-11933857D01*
X1265000Y-12537000D02*
G75*
G03X1265000Y-12537000I-37500J0D01*
G01*
X1608571Y-12372714D02*
X1637143Y-12372714D01*
X1665714Y-12387000D01*
X1680000Y-12401286D01*
X1694286Y-12429857D01*
X1708571Y-12487000D01*
X1708571Y-12558429D01*
X1694286Y-12615571D01*
X1680000Y-12644143D01*
X1665714Y-12658429D01*
X1637143Y-12672714D01*
X1608571Y-12672714D01*
X1580000Y-12658429D01*
X1565714Y-12644143D01*
X1551428Y-12615571D01*
X1537143Y-12558429D01*
X1537143Y-12487000D01*
X1551428Y-12429857D01*
X1565714Y-12401286D01*
X1580000Y-12387000D01*
X1608571Y-12372714D01*
X1837143Y-12644143D02*
X1851428Y-12658429D01*
X1837143Y-12672714D01*
X1822857Y-12658429D01*
X1837143Y-12644143D01*
X1837143Y-12672714D01*
X1951428Y-12372714D02*
X2151428Y-12372714D01*
X2022857Y-12672714D01*
X2408571Y-12372714D02*
X2265714Y-12372714D01*
X2251428Y-12515571D01*
X2265714Y-12501286D01*
X2294286Y-12487000D01*
X2365714Y-12487000D01*
X2394286Y-12501286D01*
X2408571Y-12515571D01*
X2422857Y-12544143D01*
X2422857Y-12615571D01*
X2408571Y-12644143D01*
X2394286Y-12658429D01*
X2365714Y-12672714D01*
X2294286Y-12672714D01*
X2265714Y-12658429D01*
X2251428Y-12644143D01*
X2551428Y-12672714D02*
X2551428Y-12472714D01*
X2551428Y-12501286D02*
X2565714Y-12487000D01*
X2594286Y-12472714D01*
X2637143Y-12472714D01*
X2665714Y-12487000D01*
X2680000Y-12515571D01*
X2680000Y-12672714D01*
X2680000Y-12515571D02*
X2694286Y-12487000D01*
X2722857Y-12472714D01*
X2765714Y-12472714D01*
X2794286Y-12487000D01*
X2808571Y-12515571D01*
X2808571Y-12672714D01*
X2951428Y-12672714D02*
X2951428Y-12472714D01*
X2951428Y-12501286D02*
X2965714Y-12487000D01*
X2994286Y-12472714D01*
X3037143Y-12472714D01*
X3065714Y-12487000D01*
X3080000Y-12515571D01*
X3080000Y-12672714D01*
X3080000Y-12515571D02*
X3094286Y-12487000D01*
X3122857Y-12472714D01*
X3165714Y-12472714D01*
X3194286Y-12487000D01*
X3208571Y-12515571D01*
X3208571Y-12672714D01*
X3794286Y-12358429D02*
X3537143Y-12744143D01*
X4180000Y-12372714D02*
X4208571Y-12372714D01*
X4237143Y-12387000D01*
X4251428Y-12401286D01*
X4265714Y-12429857D01*
X4280000Y-12487000D01*
X4280000Y-12558429D01*
X4265714Y-12615571D01*
X4251428Y-12644143D01*
X4237143Y-12658429D01*
X4208571Y-12672714D01*
X4180000Y-12672714D01*
X4151428Y-12658429D01*
X4137143Y-12644143D01*
X4122857Y-12615571D01*
X4108571Y-12558429D01*
X4108571Y-12487000D01*
X4122857Y-12429857D01*
X4137143Y-12401286D01*
X4151428Y-12387000D01*
X4180000Y-12372714D01*
X4408571Y-12644143D02*
X4422857Y-12658429D01*
X4408571Y-12672714D01*
X4394286Y-12658429D01*
X4408571Y-12644143D01*
X4408571Y-12672714D01*
X4608571Y-12372714D02*
X4637143Y-12372714D01*
X4665714Y-12387000D01*
X4680000Y-12401286D01*
X4694286Y-12429857D01*
X4708571Y-12487000D01*
X4708571Y-12558429D01*
X4694286Y-12615571D01*
X4680000Y-12644143D01*
X4665714Y-12658429D01*
X4637143Y-12672714D01*
X4608571Y-12672714D01*
X4580000Y-12658429D01*
X4565714Y-12644143D01*
X4551428Y-12615571D01*
X4537143Y-12558429D01*
X4537143Y-12487000D01*
X4551428Y-12429857D01*
X4565714Y-12401286D01*
X4580000Y-12387000D01*
X4608571Y-12372714D01*
X4808571Y-12372714D02*
X4994286Y-12372714D01*
X4894286Y-12487000D01*
X4937143Y-12487000D01*
X4965714Y-12501286D01*
X4980000Y-12515571D01*
X4994286Y-12544143D01*
X4994286Y-12615571D01*
X4980000Y-12644143D01*
X4965714Y-12658429D01*
X4937143Y-12672714D01*
X4851428Y-12672714D01*
X4822857Y-12658429D01*
X4808571Y-12644143D01*
X5180000Y-12372714D02*
X5208571Y-12372714D01*
X5237143Y-12387000D01*
X5251428Y-12401286D01*
X5265714Y-12429857D01*
X5280000Y-12487000D01*
X5280000Y-12558429D01*
X5265714Y-12615571D01*
X5251428Y-12644143D01*
X5237143Y-12658429D01*
X5208571Y-12672714D01*
X5180000Y-12672714D01*
X5151428Y-12658429D01*
X5137143Y-12644143D01*
X5122857Y-12615571D01*
X5108571Y-12558429D01*
X5108571Y-12487000D01*
X5122857Y-12429857D01*
X5137143Y-12401286D01*
X5151428Y-12387000D01*
X5180000Y-12372714D01*
X5394286Y-12372714D02*
X5394286Y-12429857D01*
X5508571Y-12372714D02*
X5508571Y-12429857D01*
X5951428Y-12787000D02*
X5937143Y-12772714D01*
X5908571Y-12729857D01*
X5894286Y-12701286D01*
X5880000Y-12658429D01*
X5865714Y-12587000D01*
X5865714Y-12529857D01*
X5880000Y-12458429D01*
X5894286Y-12415571D01*
X5908571Y-12387000D01*
X5937143Y-12344143D01*
X5951428Y-12329857D01*
X6080000Y-12672714D02*
X6137143Y-12672714D01*
X6165714Y-12658429D01*
X6180000Y-12644143D01*
X6208571Y-12601286D01*
X6222857Y-12544143D01*
X6222857Y-12429857D01*
X6208571Y-12401286D01*
X6194286Y-12387000D01*
X6165714Y-12372714D01*
X6108571Y-12372714D01*
X6080000Y-12387000D01*
X6065714Y-12401286D01*
X6051428Y-12429857D01*
X6051428Y-12501286D01*
X6065714Y-12529857D01*
X6080000Y-12544143D01*
X6108571Y-12558429D01*
X6165714Y-12558429D01*
X6194286Y-12544143D01*
X6208571Y-12529857D01*
X6222857Y-12501286D01*
X6580000Y-12672714D02*
X6580000Y-12372714D01*
X6708571Y-12672714D02*
X6708571Y-12515571D01*
X6694286Y-12487000D01*
X6665714Y-12472714D01*
X6622857Y-12472714D01*
X6594286Y-12487000D01*
X6580000Y-12501286D01*
X6894286Y-12672714D02*
X6865714Y-12658429D01*
X6851428Y-12644143D01*
X6837143Y-12615571D01*
X6837143Y-12529857D01*
X6851428Y-12501286D01*
X6865714Y-12487000D01*
X6894286Y-12472714D01*
X6937143Y-12472714D01*
X6965714Y-12487000D01*
X6980000Y-12501286D01*
X6994286Y-12529857D01*
X6994286Y-12615571D01*
X6980000Y-12644143D01*
X6965714Y-12658429D01*
X6937143Y-12672714D01*
X6894286Y-12672714D01*
X7165714Y-12672714D02*
X7137143Y-12658429D01*
X7122857Y-12629857D01*
X7122857Y-12372714D01*
X7394286Y-12658429D02*
X7365714Y-12672714D01*
X7308571Y-12672714D01*
X7280000Y-12658429D01*
X7265714Y-12629857D01*
X7265714Y-12515571D01*
X7280000Y-12487000D01*
X7308571Y-12472714D01*
X7365714Y-12472714D01*
X7394286Y-12487000D01*
X7408571Y-12515571D01*
X7408571Y-12544143D01*
X7265714Y-12572714D01*
X7522857Y-12658429D02*
X7551428Y-12672714D01*
X7608571Y-12672714D01*
X7637143Y-12658429D01*
X7651428Y-12629857D01*
X7651428Y-12615571D01*
X7637143Y-12587000D01*
X7608571Y-12572714D01*
X7565714Y-12572714D01*
X7537143Y-12558429D01*
X7522857Y-12529857D01*
X7522857Y-12515571D01*
X7537143Y-12487000D01*
X7565714Y-12472714D01*
X7608571Y-12472714D01*
X7637143Y-12487000D01*
X7751428Y-12787000D02*
X7765714Y-12772714D01*
X7794286Y-12729857D01*
X7808571Y-12701286D01*
X7822857Y-12658429D01*
X7837143Y-12587000D01*
X7837143Y-12529857D01*
X7822857Y-12458429D01*
X7808571Y-12415571D01*
X7794286Y-12387000D01*
X7765714Y-12344143D01*
X7751428Y-12329857D01*
X1225000Y-12893000D02*
X1225000Y-12973000D01*
X1185000Y-12933000D02*
X1265000Y-12933000D01*
X1608571Y-12768714D02*
X1637143Y-12768714D01*
X1665714Y-12783000D01*
X1680000Y-12797286D01*
X1694286Y-12825857D01*
X1708571Y-12883000D01*
X1708571Y-12954429D01*
X1694286Y-13011571D01*
X1680000Y-13040143D01*
X1665714Y-13054429D01*
X1637143Y-13068714D01*
X1608571Y-13068714D01*
X1580000Y-13054429D01*
X1565714Y-13040143D01*
X1551428Y-13011571D01*
X1537143Y-12954429D01*
X1537143Y-12883000D01*
X1551428Y-12825857D01*
X1565714Y-12797286D01*
X1580000Y-12783000D01*
X1608571Y-12768714D01*
X1837143Y-13040143D02*
X1851428Y-13054429D01*
X1837143Y-13068714D01*
X1822857Y-13054429D01*
X1837143Y-13040143D01*
X1837143Y-13068714D01*
X2022857Y-12897286D02*
X1994286Y-12883000D01*
X1980000Y-12868714D01*
X1965714Y-12840143D01*
X1965714Y-12825857D01*
X1980000Y-12797286D01*
X1994286Y-12783000D01*
X2022857Y-12768714D01*
X2080000Y-12768714D01*
X2108571Y-12783000D01*
X2122857Y-12797286D01*
X2137143Y-12825857D01*
X2137143Y-12840143D01*
X2122857Y-12868714D01*
X2108571Y-12883000D01*
X2080000Y-12897286D01*
X2022857Y-12897286D01*
X1994286Y-12911571D01*
X1980000Y-12925857D01*
X1965714Y-12954429D01*
X1965714Y-13011571D01*
X1980000Y-13040143D01*
X1994286Y-13054429D01*
X2022857Y-13068714D01*
X2080000Y-13068714D01*
X2108571Y-13054429D01*
X2122857Y-13040143D01*
X2137143Y-13011571D01*
X2137143Y-12954429D01*
X2122857Y-12925857D01*
X2108571Y-12911571D01*
X2080000Y-12897286D01*
X2322857Y-12768714D02*
X2351428Y-12768714D01*
X2380000Y-12783000D01*
X2394286Y-12797286D01*
X2408571Y-12825857D01*
X2422857Y-12883000D01*
X2422857Y-12954429D01*
X2408571Y-13011571D01*
X2394286Y-13040143D01*
X2380000Y-13054429D01*
X2351428Y-13068714D01*
X2322857Y-13068714D01*
X2294286Y-13054429D01*
X2280000Y-13040143D01*
X2265714Y-13011571D01*
X2251428Y-12954429D01*
X2251428Y-12883000D01*
X2265714Y-12825857D01*
X2280000Y-12797286D01*
X2294286Y-12783000D01*
X2322857Y-12768714D01*
X2551428Y-13068714D02*
X2551428Y-12868714D01*
X2551428Y-12897286D02*
X2565714Y-12883000D01*
X2594286Y-12868714D01*
X2637143Y-12868714D01*
X2665714Y-12883000D01*
X2680000Y-12911571D01*
X2680000Y-13068714D01*
X2680000Y-12911571D02*
X2694286Y-12883000D01*
X2722857Y-12868714D01*
X2765714Y-12868714D01*
X2794286Y-12883000D01*
X2808571Y-12911571D01*
X2808571Y-13068714D01*
X2951428Y-13068714D02*
X2951428Y-12868714D01*
X2951428Y-12897286D02*
X2965714Y-12883000D01*
X2994286Y-12868714D01*
X3037143Y-12868714D01*
X3065714Y-12883000D01*
X3080000Y-12911571D01*
X3080000Y-13068714D01*
X3080000Y-12911571D02*
X3094286Y-12883000D01*
X3122857Y-12868714D01*
X3165714Y-12868714D01*
X3194286Y-12883000D01*
X3208571Y-12911571D01*
X3208571Y-13068714D01*
X3794286Y-12754429D02*
X3537143Y-13140143D01*
X4180000Y-12768714D02*
X4208571Y-12768714D01*
X4237143Y-12783000D01*
X4251428Y-12797286D01*
X4265714Y-12825857D01*
X4280000Y-12883000D01*
X4280000Y-12954429D01*
X4265714Y-13011571D01*
X4251428Y-13040143D01*
X4237143Y-13054429D01*
X4208571Y-13068714D01*
X4180000Y-13068714D01*
X4151428Y-13054429D01*
X4137143Y-13040143D01*
X4122857Y-13011571D01*
X4108571Y-12954429D01*
X4108571Y-12883000D01*
X4122857Y-12825857D01*
X4137143Y-12797286D01*
X4151428Y-12783000D01*
X4180000Y-12768714D01*
X4408571Y-13040143D02*
X4422857Y-13054429D01*
X4408571Y-13068714D01*
X4394286Y-13054429D01*
X4408571Y-13040143D01*
X4408571Y-13068714D01*
X4608571Y-12768714D02*
X4637143Y-12768714D01*
X4665714Y-12783000D01*
X4680000Y-12797286D01*
X4694286Y-12825857D01*
X4708571Y-12883000D01*
X4708571Y-12954429D01*
X4694286Y-13011571D01*
X4680000Y-13040143D01*
X4665714Y-13054429D01*
X4637143Y-13068714D01*
X4608571Y-13068714D01*
X4580000Y-13054429D01*
X4565714Y-13040143D01*
X4551428Y-13011571D01*
X4537143Y-12954429D01*
X4537143Y-12883000D01*
X4551428Y-12825857D01*
X4565714Y-12797286D01*
X4580000Y-12783000D01*
X4608571Y-12768714D01*
X4808571Y-12768714D02*
X4994286Y-12768714D01*
X4894286Y-12883000D01*
X4937143Y-12883000D01*
X4965714Y-12897286D01*
X4980000Y-12911571D01*
X4994286Y-12940143D01*
X4994286Y-13011571D01*
X4980000Y-13040143D01*
X4965714Y-13054429D01*
X4937143Y-13068714D01*
X4851428Y-13068714D01*
X4822857Y-13054429D01*
X4808571Y-13040143D01*
X5280000Y-13068714D02*
X5108571Y-13068714D01*
X5194286Y-13068714D02*
X5194286Y-12768714D01*
X5165714Y-12811571D01*
X5137143Y-12840143D01*
X5108571Y-12854429D01*
X5394286Y-12768714D02*
X5394286Y-12825857D01*
X5508571Y-12768714D02*
X5508571Y-12825857D01*
X5951428Y-13183000D02*
X5937143Y-13168714D01*
X5908571Y-13125857D01*
X5894286Y-13097286D01*
X5880000Y-13054429D01*
X5865714Y-12983000D01*
X5865714Y-12925857D01*
X5880000Y-12854429D01*
X5894286Y-12811571D01*
X5908571Y-12783000D01*
X5937143Y-12740143D01*
X5951428Y-12725857D01*
X6222857Y-13068714D02*
X6051428Y-13068714D01*
X6137143Y-13068714D02*
X6137143Y-12768714D01*
X6108571Y-12811571D01*
X6080000Y-12840143D01*
X6051428Y-12854429D01*
X6408571Y-12768714D02*
X6437143Y-12768714D01*
X6465714Y-12783000D01*
X6480000Y-12797286D01*
X6494286Y-12825857D01*
X6508571Y-12883000D01*
X6508571Y-12954429D01*
X6494286Y-13011571D01*
X6480000Y-13040143D01*
X6465714Y-13054429D01*
X6437143Y-13068714D01*
X6408571Y-13068714D01*
X6380000Y-13054429D01*
X6365714Y-13040143D01*
X6351428Y-13011571D01*
X6337143Y-12954429D01*
X6337143Y-12883000D01*
X6351428Y-12825857D01*
X6365714Y-12797286D01*
X6380000Y-12783000D01*
X6408571Y-12768714D01*
X6865714Y-13068714D02*
X6865714Y-12768714D01*
X6994286Y-13068714D02*
X6994286Y-12911571D01*
X6980000Y-12883000D01*
X6951428Y-12868714D01*
X6908571Y-12868714D01*
X6880000Y-12883000D01*
X6865714Y-12897286D01*
X7180000Y-13068714D02*
X7151428Y-13054429D01*
X7137143Y-13040143D01*
X7122857Y-13011571D01*
X7122857Y-12925857D01*
X7137143Y-12897286D01*
X7151428Y-12883000D01*
X7180000Y-12868714D01*
X7222857Y-12868714D01*
X7251428Y-12883000D01*
X7265714Y-12897286D01*
X7280000Y-12925857D01*
X7280000Y-13011571D01*
X7265714Y-13040143D01*
X7251428Y-13054429D01*
X7222857Y-13068714D01*
X7180000Y-13068714D01*
X7451428Y-13068714D02*
X7422857Y-13054429D01*
X7408571Y-13025857D01*
X7408571Y-12768714D01*
X7680000Y-13054429D02*
X7651428Y-13068714D01*
X7594286Y-13068714D01*
X7565714Y-13054429D01*
X7551428Y-13025857D01*
X7551428Y-12911571D01*
X7565714Y-12883000D01*
X7594286Y-12868714D01*
X7651428Y-12868714D01*
X7680000Y-12883000D01*
X7694286Y-12911571D01*
X7694286Y-12940143D01*
X7551428Y-12968714D01*
X7808571Y-13054429D02*
X7837143Y-13068714D01*
X7894286Y-13068714D01*
X7922857Y-13054429D01*
X7937143Y-13025857D01*
X7937143Y-13011571D01*
X7922857Y-12983000D01*
X7894286Y-12968714D01*
X7851428Y-12968714D01*
X7822857Y-12954429D01*
X7808571Y-12925857D01*
X7808571Y-12911571D01*
X7822857Y-12883000D01*
X7851428Y-12868714D01*
X7894286Y-12868714D01*
X7922857Y-12883000D01*
X8037143Y-13183000D02*
X8051428Y-13168714D01*
X8080000Y-13125857D01*
X8094286Y-13097286D01*
X8108571Y-13054429D01*
X8122857Y-12983000D01*
X8122857Y-12925857D01*
X8108571Y-12854429D01*
X8094286Y-12811571D01*
X8080000Y-12783000D01*
X8051428Y-12740143D01*
X8037143Y-12725857D01*
X1251981Y-13360431D02*
X1251981Y-13297569D01*
X1189119Y-13297569D01*
X1189119Y-13360431D01*
X1251981Y-13360431D01*
X1608571Y-13164714D02*
X1637143Y-13164714D01*
X1665714Y-13179000D01*
X1680000Y-13193286D01*
X1694286Y-13221857D01*
X1708571Y-13279000D01*
X1708571Y-13350429D01*
X1694286Y-13407571D01*
X1680000Y-13436143D01*
X1665714Y-13450429D01*
X1637143Y-13464714D01*
X1608571Y-13464714D01*
X1580000Y-13450429D01*
X1565714Y-13436143D01*
X1551428Y-13407571D01*
X1537143Y-13350429D01*
X1537143Y-13279000D01*
X1551428Y-13221857D01*
X1565714Y-13193286D01*
X1580000Y-13179000D01*
X1608571Y-13164714D01*
X1837143Y-13436143D02*
X1851428Y-13450429D01*
X1837143Y-13464714D01*
X1822857Y-13450429D01*
X1837143Y-13436143D01*
X1837143Y-13464714D01*
X2022857Y-13293286D02*
X1994286Y-13279000D01*
X1980000Y-13264714D01*
X1965714Y-13236143D01*
X1965714Y-13221857D01*
X1980000Y-13193286D01*
X1994286Y-13179000D01*
X2022857Y-13164714D01*
X2080000Y-13164714D01*
X2108571Y-13179000D01*
X2122857Y-13193286D01*
X2137143Y-13221857D01*
X2137143Y-13236143D01*
X2122857Y-13264714D01*
X2108571Y-13279000D01*
X2080000Y-13293286D01*
X2022857Y-13293286D01*
X1994286Y-13307571D01*
X1980000Y-13321857D01*
X1965714Y-13350429D01*
X1965714Y-13407571D01*
X1980000Y-13436143D01*
X1994286Y-13450429D01*
X2022857Y-13464714D01*
X2080000Y-13464714D01*
X2108571Y-13450429D01*
X2122857Y-13436143D01*
X2137143Y-13407571D01*
X2137143Y-13350429D01*
X2122857Y-13321857D01*
X2108571Y-13307571D01*
X2080000Y-13293286D01*
X2280000Y-13464714D02*
X2337143Y-13464714D01*
X2365714Y-13450429D01*
X2380000Y-13436143D01*
X2408571Y-13393286D01*
X2422857Y-13336143D01*
X2422857Y-13221857D01*
X2408571Y-13193286D01*
X2394286Y-13179000D01*
X2365714Y-13164714D01*
X2308571Y-13164714D01*
X2280000Y-13179000D01*
X2265714Y-13193286D01*
X2251428Y-13221857D01*
X2251428Y-13293286D01*
X2265714Y-13321857D01*
X2280000Y-13336143D01*
X2308571Y-13350429D01*
X2365714Y-13350429D01*
X2394286Y-13336143D01*
X2408571Y-13321857D01*
X2422857Y-13293286D01*
X2551428Y-13464714D02*
X2551428Y-13264714D01*
X2551428Y-13293286D02*
X2565714Y-13279000D01*
X2594286Y-13264714D01*
X2637143Y-13264714D01*
X2665714Y-13279000D01*
X2680000Y-13307571D01*
X2680000Y-13464714D01*
X2680000Y-13307571D02*
X2694286Y-13279000D01*
X2722857Y-13264714D01*
X2765714Y-13264714D01*
X2794286Y-13279000D01*
X2808571Y-13307571D01*
X2808571Y-13464714D01*
X2951428Y-13464714D02*
X2951428Y-13264714D01*
X2951428Y-13293286D02*
X2965714Y-13279000D01*
X2994286Y-13264714D01*
X3037143Y-13264714D01*
X3065714Y-13279000D01*
X3080000Y-13307571D01*
X3080000Y-13464714D01*
X3080000Y-13307571D02*
X3094286Y-13279000D01*
X3122857Y-13264714D01*
X3165714Y-13264714D01*
X3194286Y-13279000D01*
X3208571Y-13307571D01*
X3208571Y-13464714D01*
X3794286Y-13150429D02*
X3537143Y-13536143D01*
X4180000Y-13164714D02*
X4208571Y-13164714D01*
X4237143Y-13179000D01*
X4251428Y-13193286D01*
X4265714Y-13221857D01*
X4280000Y-13279000D01*
X4280000Y-13350429D01*
X4265714Y-13407571D01*
X4251428Y-13436143D01*
X4237143Y-13450429D01*
X4208571Y-13464714D01*
X4180000Y-13464714D01*
X4151428Y-13450429D01*
X4137143Y-13436143D01*
X4122857Y-13407571D01*
X4108571Y-13350429D01*
X4108571Y-13279000D01*
X4122857Y-13221857D01*
X4137143Y-13193286D01*
X4151428Y-13179000D01*
X4180000Y-13164714D01*
X4408571Y-13436143D02*
X4422857Y-13450429D01*
X4408571Y-13464714D01*
X4394286Y-13450429D01*
X4408571Y-13436143D01*
X4408571Y-13464714D01*
X4608571Y-13164714D02*
X4637143Y-13164714D01*
X4665714Y-13179000D01*
X4680000Y-13193286D01*
X4694286Y-13221857D01*
X4708571Y-13279000D01*
X4708571Y-13350429D01*
X4694286Y-13407571D01*
X4680000Y-13436143D01*
X4665714Y-13450429D01*
X4637143Y-13464714D01*
X4608571Y-13464714D01*
X4580000Y-13450429D01*
X4565714Y-13436143D01*
X4551428Y-13407571D01*
X4537143Y-13350429D01*
X4537143Y-13279000D01*
X4551428Y-13221857D01*
X4565714Y-13193286D01*
X4580000Y-13179000D01*
X4608571Y-13164714D01*
X4808571Y-13164714D02*
X4994286Y-13164714D01*
X4894286Y-13279000D01*
X4937143Y-13279000D01*
X4965714Y-13293286D01*
X4980000Y-13307571D01*
X4994286Y-13336143D01*
X4994286Y-13407571D01*
X4980000Y-13436143D01*
X4965714Y-13450429D01*
X4937143Y-13464714D01*
X4851428Y-13464714D01*
X4822857Y-13450429D01*
X4808571Y-13436143D01*
X5265714Y-13164714D02*
X5122857Y-13164714D01*
X5108571Y-13307571D01*
X5122857Y-13293286D01*
X5151428Y-13279000D01*
X5222857Y-13279000D01*
X5251428Y-13293286D01*
X5265714Y-13307571D01*
X5280000Y-13336143D01*
X5280000Y-13407571D01*
X5265714Y-13436143D01*
X5251428Y-13450429D01*
X5222857Y-13464714D01*
X5151428Y-13464714D01*
X5122857Y-13450429D01*
X5108571Y-13436143D01*
X5394286Y-13164714D02*
X5394286Y-13221857D01*
X5508571Y-13164714D02*
X5508571Y-13221857D01*
X5951428Y-13579000D02*
X5937143Y-13564714D01*
X5908571Y-13521857D01*
X5894286Y-13493286D01*
X5880000Y-13450429D01*
X5865714Y-13379000D01*
X5865714Y-13321857D01*
X5880000Y-13250429D01*
X5894286Y-13207571D01*
X5908571Y-13179000D01*
X5937143Y-13136143D01*
X5951428Y-13121857D01*
X6108571Y-13293286D02*
X6080000Y-13279000D01*
X6065714Y-13264714D01*
X6051428Y-13236143D01*
X6051428Y-13221857D01*
X6065714Y-13193286D01*
X6080000Y-13179000D01*
X6108571Y-13164714D01*
X6165714Y-13164714D01*
X6194286Y-13179000D01*
X6208571Y-13193286D01*
X6222857Y-13221857D01*
X6222857Y-13236143D01*
X6208571Y-13264714D01*
X6194286Y-13279000D01*
X6165714Y-13293286D01*
X6108571Y-13293286D01*
X6080000Y-13307571D01*
X6065714Y-13321857D01*
X6051428Y-13350429D01*
X6051428Y-13407571D01*
X6065714Y-13436143D01*
X6080000Y-13450429D01*
X6108571Y-13464714D01*
X6165714Y-13464714D01*
X6194286Y-13450429D01*
X6208571Y-13436143D01*
X6222857Y-13407571D01*
X6222857Y-13350429D01*
X6208571Y-13321857D01*
X6194286Y-13307571D01*
X6165714Y-13293286D01*
X6580000Y-13464714D02*
X6580000Y-13164714D01*
X6708571Y-13464714D02*
X6708571Y-13307571D01*
X6694286Y-13279000D01*
X6665714Y-13264714D01*
X6622857Y-13264714D01*
X6594286Y-13279000D01*
X6580000Y-13293286D01*
X6894286Y-13464714D02*
X6865714Y-13450429D01*
X6851428Y-13436143D01*
X6837143Y-13407571D01*
X6837143Y-13321857D01*
X6851428Y-13293286D01*
X6865714Y-13279000D01*
X6894286Y-13264714D01*
X6937143Y-13264714D01*
X6965714Y-13279000D01*
X6980000Y-13293286D01*
X6994286Y-13321857D01*
X6994286Y-13407571D01*
X6980000Y-13436143D01*
X6965714Y-13450429D01*
X6937143Y-13464714D01*
X6894286Y-13464714D01*
X7165714Y-13464714D02*
X7137143Y-13450429D01*
X7122857Y-13421857D01*
X7122857Y-13164714D01*
X7394286Y-13450429D02*
X7365714Y-13464714D01*
X7308571Y-13464714D01*
X7280000Y-13450429D01*
X7265714Y-13421857D01*
X7265714Y-13307571D01*
X7280000Y-13279000D01*
X7308571Y-13264714D01*
X7365714Y-13264714D01*
X7394286Y-13279000D01*
X7408571Y-13307571D01*
X7408571Y-13336143D01*
X7265714Y-13364714D01*
X7522857Y-13450429D02*
X7551428Y-13464714D01*
X7608571Y-13464714D01*
X7637143Y-13450429D01*
X7651428Y-13421857D01*
X7651428Y-13407571D01*
X7637143Y-13379000D01*
X7608571Y-13364714D01*
X7565714Y-13364714D01*
X7537143Y-13350429D01*
X7522857Y-13321857D01*
X7522857Y-13307571D01*
X7537143Y-13279000D01*
X7565714Y-13264714D01*
X7608571Y-13264714D01*
X7637143Y-13279000D01*
X7751428Y-13579000D02*
X7765714Y-13564714D01*
X7794286Y-13521857D01*
X7808571Y-13493286D01*
X7822857Y-13450429D01*
X7837143Y-13379000D01*
X7837143Y-13321857D01*
X7822857Y-13250429D01*
X7808571Y-13207571D01*
X7794286Y-13179000D01*
X7765714Y-13136143D01*
X7751428Y-13121857D01*
X1215000Y-13775000D02*
X1265000Y-13725000D01*
X1215000Y-13675000D01*
X1165000Y-13725000D01*
X1215000Y-13775000D01*
X1708571Y-13860714D02*
X1537143Y-13860714D01*
X1622857Y-13860714D02*
X1622857Y-13560714D01*
X1594286Y-13603571D01*
X1565714Y-13632143D01*
X1537143Y-13646429D01*
X1837143Y-13832143D02*
X1851428Y-13846429D01*
X1837143Y-13860714D01*
X1822857Y-13846429D01*
X1837143Y-13832143D01*
X1837143Y-13860714D01*
X2037143Y-13560714D02*
X2065714Y-13560714D01*
X2094286Y-13575000D01*
X2108571Y-13589286D01*
X2122857Y-13617857D01*
X2137143Y-13675000D01*
X2137143Y-13746429D01*
X2122857Y-13803571D01*
X2108571Y-13832143D01*
X2094286Y-13846429D01*
X2065714Y-13860714D01*
X2037143Y-13860714D01*
X2008571Y-13846429D01*
X1994286Y-13832143D01*
X1980000Y-13803571D01*
X1965714Y-13746429D01*
X1965714Y-13675000D01*
X1980000Y-13617857D01*
X1994286Y-13589286D01*
X2008571Y-13575000D01*
X2037143Y-13560714D01*
X2322857Y-13560714D02*
X2351428Y-13560714D01*
X2380000Y-13575000D01*
X2394286Y-13589286D01*
X2408571Y-13617857D01*
X2422857Y-13675000D01*
X2422857Y-13746429D01*
X2408571Y-13803571D01*
X2394286Y-13832143D01*
X2380000Y-13846429D01*
X2351428Y-13860714D01*
X2322857Y-13860714D01*
X2294286Y-13846429D01*
X2280000Y-13832143D01*
X2265714Y-13803571D01*
X2251428Y-13746429D01*
X2251428Y-13675000D01*
X2265714Y-13617857D01*
X2280000Y-13589286D01*
X2294286Y-13575000D01*
X2322857Y-13560714D01*
X2551428Y-13860714D02*
X2551428Y-13660714D01*
X2551428Y-13689286D02*
X2565714Y-13675000D01*
X2594286Y-13660714D01*
X2637143Y-13660714D01*
X2665714Y-13675000D01*
X2680000Y-13703571D01*
X2680000Y-13860714D01*
X2680000Y-13703571D02*
X2694286Y-13675000D01*
X2722857Y-13660714D01*
X2765714Y-13660714D01*
X2794286Y-13675000D01*
X2808571Y-13703571D01*
X2808571Y-13860714D01*
X2951428Y-13860714D02*
X2951428Y-13660714D01*
X2951428Y-13689286D02*
X2965714Y-13675000D01*
X2994286Y-13660714D01*
X3037143Y-13660714D01*
X3065714Y-13675000D01*
X3080000Y-13703571D01*
X3080000Y-13860714D01*
X3080000Y-13703571D02*
X3094286Y-13675000D01*
X3122857Y-13660714D01*
X3165714Y-13660714D01*
X3194286Y-13675000D01*
X3208571Y-13703571D01*
X3208571Y-13860714D01*
X3794286Y-13546429D02*
X3537143Y-13932143D01*
X4180000Y-13560714D02*
X4208571Y-13560714D01*
X4237143Y-13575000D01*
X4251428Y-13589286D01*
X4265714Y-13617857D01*
X4280000Y-13675000D01*
X4280000Y-13746429D01*
X4265714Y-13803571D01*
X4251428Y-13832143D01*
X4237143Y-13846429D01*
X4208571Y-13860714D01*
X4180000Y-13860714D01*
X4151428Y-13846429D01*
X4137143Y-13832143D01*
X4122857Y-13803571D01*
X4108571Y-13746429D01*
X4108571Y-13675000D01*
X4122857Y-13617857D01*
X4137143Y-13589286D01*
X4151428Y-13575000D01*
X4180000Y-13560714D01*
X4408571Y-13832143D02*
X4422857Y-13846429D01*
X4408571Y-13860714D01*
X4394286Y-13846429D01*
X4408571Y-13832143D01*
X4408571Y-13860714D01*
X4608571Y-13560714D02*
X4637143Y-13560714D01*
X4665714Y-13575000D01*
X4680000Y-13589286D01*
X4694286Y-13617857D01*
X4708571Y-13675000D01*
X4708571Y-13746429D01*
X4694286Y-13803571D01*
X4680000Y-13832143D01*
X4665714Y-13846429D01*
X4637143Y-13860714D01*
X4608571Y-13860714D01*
X4580000Y-13846429D01*
X4565714Y-13832143D01*
X4551428Y-13803571D01*
X4537143Y-13746429D01*
X4537143Y-13675000D01*
X4551428Y-13617857D01*
X4565714Y-13589286D01*
X4580000Y-13575000D01*
X4608571Y-13560714D01*
X4808571Y-13560714D02*
X4994286Y-13560714D01*
X4894286Y-13675000D01*
X4937143Y-13675000D01*
X4965714Y-13689286D01*
X4980000Y-13703571D01*
X4994286Y-13732143D01*
X4994286Y-13803571D01*
X4980000Y-13832143D01*
X4965714Y-13846429D01*
X4937143Y-13860714D01*
X4851428Y-13860714D01*
X4822857Y-13846429D01*
X4808571Y-13832143D01*
X5137143Y-13860714D02*
X5194286Y-13860714D01*
X5222857Y-13846429D01*
X5237143Y-13832143D01*
X5265714Y-13789286D01*
X5280000Y-13732143D01*
X5280000Y-13617857D01*
X5265714Y-13589286D01*
X5251428Y-13575000D01*
X5222857Y-13560714D01*
X5165714Y-13560714D01*
X5137143Y-13575000D01*
X5122857Y-13589286D01*
X5108571Y-13617857D01*
X5108571Y-13689286D01*
X5122857Y-13717857D01*
X5137143Y-13732143D01*
X5165714Y-13746429D01*
X5222857Y-13746429D01*
X5251428Y-13732143D01*
X5265714Y-13717857D01*
X5280000Y-13689286D01*
X5394286Y-13560714D02*
X5394286Y-13617857D01*
X5508571Y-13560714D02*
X5508571Y-13617857D01*
X5951428Y-13975000D02*
X5937143Y-13960714D01*
X5908571Y-13917857D01*
X5894286Y-13889286D01*
X5880000Y-13846429D01*
X5865714Y-13775000D01*
X5865714Y-13717857D01*
X5880000Y-13646429D01*
X5894286Y-13603571D01*
X5908571Y-13575000D01*
X5937143Y-13532143D01*
X5951428Y-13517857D01*
X6051428Y-13589286D02*
X6065714Y-13575000D01*
X6094286Y-13560714D01*
X6165714Y-13560714D01*
X6194286Y-13575000D01*
X6208571Y-13589286D01*
X6222857Y-13617857D01*
X6222857Y-13646429D01*
X6208571Y-13689286D01*
X6037143Y-13860714D01*
X6222857Y-13860714D01*
X6322857Y-13560714D02*
X6508571Y-13560714D01*
X6408571Y-13675000D01*
X6451428Y-13675000D01*
X6480000Y-13689286D01*
X6494286Y-13703571D01*
X6508571Y-13732143D01*
X6508571Y-13803571D01*
X6494286Y-13832143D01*
X6480000Y-13846429D01*
X6451428Y-13860714D01*
X6365714Y-13860714D01*
X6337143Y-13846429D01*
X6322857Y-13832143D01*
X6608571Y-13560714D02*
X6808571Y-13560714D01*
X6680000Y-13860714D01*
X7151428Y-13860714D02*
X7151428Y-13560714D01*
X7280000Y-13860714D02*
X7280000Y-13703571D01*
X7265714Y-13675000D01*
X7237143Y-13660714D01*
X7194286Y-13660714D01*
X7165714Y-13675000D01*
X7151428Y-13689286D01*
X7465714Y-13860714D02*
X7437143Y-13846429D01*
X7422857Y-13832143D01*
X7408571Y-13803571D01*
X7408571Y-13717857D01*
X7422857Y-13689286D01*
X7437143Y-13675000D01*
X7465714Y-13660714D01*
X7508571Y-13660714D01*
X7537143Y-13675000D01*
X7551428Y-13689286D01*
X7565714Y-13717857D01*
X7565714Y-13803571D01*
X7551428Y-13832143D01*
X7537143Y-13846429D01*
X7508571Y-13860714D01*
X7465714Y-13860714D01*
X7737143Y-13860714D02*
X7708571Y-13846429D01*
X7694286Y-13817857D01*
X7694286Y-13560714D01*
X7965714Y-13846429D02*
X7937143Y-13860714D01*
X7880000Y-13860714D01*
X7851428Y-13846429D01*
X7837143Y-13817857D01*
X7837143Y-13703571D01*
X7851428Y-13675000D01*
X7880000Y-13660714D01*
X7937143Y-13660714D01*
X7965714Y-13675000D01*
X7980000Y-13703571D01*
X7980000Y-13732143D01*
X7837143Y-13760714D01*
X8094286Y-13846429D02*
X8122857Y-13860714D01*
X8180000Y-13860714D01*
X8208571Y-13846429D01*
X8222857Y-13817857D01*
X8222857Y-13803571D01*
X8208571Y-13775000D01*
X8180000Y-13760714D01*
X8137143Y-13760714D01*
X8108571Y-13746429D01*
X8094286Y-13717857D01*
X8094286Y-13703571D01*
X8108571Y-13675000D01*
X8137143Y-13660714D01*
X8180000Y-13660714D01*
X8208571Y-13675000D01*
X8322857Y-13975000D02*
X8337143Y-13960714D01*
X8365714Y-13917857D01*
X8380000Y-13889286D01*
X8394286Y-13846429D01*
X8408571Y-13775000D01*
X8408571Y-13717857D01*
X8394286Y-13646429D01*
X8380000Y-13603571D01*
X8365714Y-13575000D01*
X8337143Y-13532143D01*
X8322857Y-13517857D01*
X1163400Y-14070200D02*
X1265000Y-14171800D01*
X1265000Y-14070200D02*
X1163400Y-14171800D01*
X1265000Y-14121000D02*
G75*
G03X1265000Y-14121000I-50800J0D01*
G01*
X1708571Y-14256714D02*
X1537143Y-14256714D01*
X1622857Y-14256714D02*
X1622857Y-13956714D01*
X1594286Y-13999571D01*
X1565714Y-14028143D01*
X1537143Y-14042429D01*
X1837143Y-14228143D02*
X1851428Y-14242429D01*
X1837143Y-14256714D01*
X1822857Y-14242429D01*
X1837143Y-14228143D01*
X1837143Y-14256714D01*
X2037143Y-13956714D02*
X2065714Y-13956714D01*
X2094286Y-13971000D01*
X2108571Y-13985286D01*
X2122857Y-14013857D01*
X2137143Y-14071000D01*
X2137143Y-14142429D01*
X2122857Y-14199571D01*
X2108571Y-14228143D01*
X2094286Y-14242429D01*
X2065714Y-14256714D01*
X2037143Y-14256714D01*
X2008571Y-14242429D01*
X1994286Y-14228143D01*
X1980000Y-14199571D01*
X1965714Y-14142429D01*
X1965714Y-14071000D01*
X1980000Y-14013857D01*
X1994286Y-13985286D01*
X2008571Y-13971000D01*
X2037143Y-13956714D01*
X2251428Y-13985286D02*
X2265714Y-13971000D01*
X2294286Y-13956714D01*
X2365714Y-13956714D01*
X2394286Y-13971000D01*
X2408571Y-13985286D01*
X2422857Y-14013857D01*
X2422857Y-14042429D01*
X2408571Y-14085286D01*
X2237143Y-14256714D01*
X2422857Y-14256714D01*
X2551428Y-14256714D02*
X2551428Y-14056714D01*
X2551428Y-14085286D02*
X2565714Y-14071000D01*
X2594286Y-14056714D01*
X2637143Y-14056714D01*
X2665714Y-14071000D01*
X2680000Y-14099571D01*
X2680000Y-14256714D01*
X2680000Y-14099571D02*
X2694286Y-14071000D01*
X2722857Y-14056714D01*
X2765714Y-14056714D01*
X2794286Y-14071000D01*
X2808571Y-14099571D01*
X2808571Y-14256714D01*
X2951428Y-14256714D02*
X2951428Y-14056714D01*
X2951428Y-14085286D02*
X2965714Y-14071000D01*
X2994286Y-14056714D01*
X3037143Y-14056714D01*
X3065714Y-14071000D01*
X3080000Y-14099571D01*
X3080000Y-14256714D01*
X3080000Y-14099571D02*
X3094286Y-14071000D01*
X3122857Y-14056714D01*
X3165714Y-14056714D01*
X3194286Y-14071000D01*
X3208571Y-14099571D01*
X3208571Y-14256714D01*
X3794286Y-13942429D02*
X3537143Y-14328143D01*
X4180000Y-13956714D02*
X4208571Y-13956714D01*
X4237143Y-13971000D01*
X4251428Y-13985286D01*
X4265714Y-14013857D01*
X4280000Y-14071000D01*
X4280000Y-14142429D01*
X4265714Y-14199571D01*
X4251428Y-14228143D01*
X4237143Y-14242429D01*
X4208571Y-14256714D01*
X4180000Y-14256714D01*
X4151428Y-14242429D01*
X4137143Y-14228143D01*
X4122857Y-14199571D01*
X4108571Y-14142429D01*
X4108571Y-14071000D01*
X4122857Y-14013857D01*
X4137143Y-13985286D01*
X4151428Y-13971000D01*
X4180000Y-13956714D01*
X4408571Y-14228143D02*
X4422857Y-14242429D01*
X4408571Y-14256714D01*
X4394286Y-14242429D01*
X4408571Y-14228143D01*
X4408571Y-14256714D01*
X4608571Y-13956714D02*
X4637143Y-13956714D01*
X4665714Y-13971000D01*
X4680000Y-13985286D01*
X4694286Y-14013857D01*
X4708571Y-14071000D01*
X4708571Y-14142429D01*
X4694286Y-14199571D01*
X4680000Y-14228143D01*
X4665714Y-14242429D01*
X4637143Y-14256714D01*
X4608571Y-14256714D01*
X4580000Y-14242429D01*
X4565714Y-14228143D01*
X4551428Y-14199571D01*
X4537143Y-14142429D01*
X4537143Y-14071000D01*
X4551428Y-14013857D01*
X4565714Y-13985286D01*
X4580000Y-13971000D01*
X4608571Y-13956714D01*
X4965714Y-14056714D02*
X4965714Y-14256714D01*
X4894286Y-13942429D02*
X4822857Y-14156714D01*
X5008571Y-14156714D01*
X5180000Y-13956714D02*
X5208571Y-13956714D01*
X5237143Y-13971000D01*
X5251428Y-13985286D01*
X5265714Y-14013857D01*
X5280000Y-14071000D01*
X5280000Y-14142429D01*
X5265714Y-14199571D01*
X5251428Y-14228143D01*
X5237143Y-14242429D01*
X5208571Y-14256714D01*
X5180000Y-14256714D01*
X5151428Y-14242429D01*
X5137143Y-14228143D01*
X5122857Y-14199571D01*
X5108571Y-14142429D01*
X5108571Y-14071000D01*
X5122857Y-14013857D01*
X5137143Y-13985286D01*
X5151428Y-13971000D01*
X5180000Y-13956714D01*
X5394286Y-13956714D02*
X5394286Y-14013857D01*
X5508571Y-13956714D02*
X5508571Y-14013857D01*
X5951428Y-14371000D02*
X5937143Y-14356714D01*
X5908571Y-14313857D01*
X5894286Y-14285286D01*
X5880000Y-14242429D01*
X5865714Y-14171000D01*
X5865714Y-14113857D01*
X5880000Y-14042429D01*
X5894286Y-13999571D01*
X5908571Y-13971000D01*
X5937143Y-13928143D01*
X5951428Y-13913857D01*
X6194286Y-14056714D02*
X6194286Y-14256714D01*
X6122857Y-13942429D02*
X6051428Y-14156714D01*
X6237143Y-14156714D01*
X6580000Y-14256714D02*
X6580000Y-13956714D01*
X6708571Y-14256714D02*
X6708571Y-14099571D01*
X6694286Y-14071000D01*
X6665714Y-14056714D01*
X6622857Y-14056714D01*
X6594286Y-14071000D01*
X6580000Y-14085286D01*
X6894286Y-14256714D02*
X6865714Y-14242429D01*
X6851428Y-14228143D01*
X6837143Y-14199571D01*
X6837143Y-14113857D01*
X6851428Y-14085286D01*
X6865714Y-14071000D01*
X6894286Y-14056714D01*
X6937143Y-14056714D01*
X6965714Y-14071000D01*
X6980000Y-14085286D01*
X6994286Y-14113857D01*
X6994286Y-14199571D01*
X6980000Y-14228143D01*
X6965714Y-14242429D01*
X6937143Y-14256714D01*
X6894286Y-14256714D01*
X7165714Y-14256714D02*
X7137143Y-14242429D01*
X7122857Y-14213857D01*
X7122857Y-13956714D01*
X7394286Y-14242429D02*
X7365714Y-14256714D01*
X7308571Y-14256714D01*
X7280000Y-14242429D01*
X7265714Y-14213857D01*
X7265714Y-14099571D01*
X7280000Y-14071000D01*
X7308571Y-14056714D01*
X7365714Y-14056714D01*
X7394286Y-14071000D01*
X7408571Y-14099571D01*
X7408571Y-14128143D01*
X7265714Y-14156714D01*
X7522857Y-14242429D02*
X7551428Y-14256714D01*
X7608571Y-14256714D01*
X7637143Y-14242429D01*
X7651428Y-14213857D01*
X7651428Y-14199571D01*
X7637143Y-14171000D01*
X7608571Y-14156714D01*
X7565714Y-14156714D01*
X7537143Y-14142429D01*
X7522857Y-14113857D01*
X7522857Y-14099571D01*
X7537143Y-14071000D01*
X7565714Y-14056714D01*
X7608571Y-14056714D01*
X7637143Y-14071000D01*
X7751428Y-14371000D02*
X7765714Y-14356714D01*
X7794286Y-14313857D01*
X7808571Y-14285286D01*
X7822857Y-14242429D01*
X7837143Y-14171000D01*
X7837143Y-14113857D01*
X7822857Y-14042429D01*
X7808571Y-13999571D01*
X7794286Y-13971000D01*
X7765714Y-13928143D01*
X7751428Y-13913857D01*
X1135000Y-14452000D02*
X1265000Y-14582000D01*
X1265000Y-14452000D02*
X1135000Y-14582000D01*
X1200000Y-14452000D02*
X1200000Y-14582000D01*
X1135000Y-14517000D02*
X1265000Y-14517000D01*
X1708571Y-14652714D02*
X1537143Y-14652714D01*
X1622857Y-14652714D02*
X1622857Y-14352714D01*
X1594286Y-14395571D01*
X1565714Y-14424143D01*
X1537143Y-14438429D01*
X1837143Y-14624143D02*
X1851428Y-14638429D01*
X1837143Y-14652714D01*
X1822857Y-14638429D01*
X1837143Y-14624143D01*
X1837143Y-14652714D01*
X1951428Y-14352714D02*
X2137143Y-14352714D01*
X2037143Y-14467000D01*
X2080000Y-14467000D01*
X2108571Y-14481286D01*
X2122857Y-14495571D01*
X2137143Y-14524143D01*
X2137143Y-14595571D01*
X2122857Y-14624143D01*
X2108571Y-14638429D01*
X2080000Y-14652714D01*
X1994286Y-14652714D01*
X1965714Y-14638429D01*
X1951428Y-14624143D01*
X2322857Y-14352714D02*
X2351428Y-14352714D01*
X2380000Y-14367000D01*
X2394286Y-14381286D01*
X2408571Y-14409857D01*
X2422857Y-14467000D01*
X2422857Y-14538429D01*
X2408571Y-14595571D01*
X2394286Y-14624143D01*
X2380000Y-14638429D01*
X2351428Y-14652714D01*
X2322857Y-14652714D01*
X2294286Y-14638429D01*
X2280000Y-14624143D01*
X2265714Y-14595571D01*
X2251428Y-14538429D01*
X2251428Y-14467000D01*
X2265714Y-14409857D01*
X2280000Y-14381286D01*
X2294286Y-14367000D01*
X2322857Y-14352714D01*
X2551428Y-14652714D02*
X2551428Y-14452714D01*
X2551428Y-14481286D02*
X2565714Y-14467000D01*
X2594286Y-14452714D01*
X2637143Y-14452714D01*
X2665714Y-14467000D01*
X2680000Y-14495571D01*
X2680000Y-14652714D01*
X2680000Y-14495571D02*
X2694286Y-14467000D01*
X2722857Y-14452714D01*
X2765714Y-14452714D01*
X2794286Y-14467000D01*
X2808571Y-14495571D01*
X2808571Y-14652714D01*
X2951428Y-14652714D02*
X2951428Y-14452714D01*
X2951428Y-14481286D02*
X2965714Y-14467000D01*
X2994286Y-14452714D01*
X3037143Y-14452714D01*
X3065714Y-14467000D01*
X3080000Y-14495571D01*
X3080000Y-14652714D01*
X3080000Y-14495571D02*
X3094286Y-14467000D01*
X3122857Y-14452714D01*
X3165714Y-14452714D01*
X3194286Y-14467000D01*
X3208571Y-14495571D01*
X3208571Y-14652714D01*
X3794286Y-14338429D02*
X3537143Y-14724143D01*
X4180000Y-14352714D02*
X4208571Y-14352714D01*
X4237143Y-14367000D01*
X4251428Y-14381286D01*
X4265714Y-14409857D01*
X4280000Y-14467000D01*
X4280000Y-14538429D01*
X4265714Y-14595571D01*
X4251428Y-14624143D01*
X4237143Y-14638429D01*
X4208571Y-14652714D01*
X4180000Y-14652714D01*
X4151428Y-14638429D01*
X4137143Y-14624143D01*
X4122857Y-14595571D01*
X4108571Y-14538429D01*
X4108571Y-14467000D01*
X4122857Y-14409857D01*
X4137143Y-14381286D01*
X4151428Y-14367000D01*
X4180000Y-14352714D01*
X4408571Y-14624143D02*
X4422857Y-14638429D01*
X4408571Y-14652714D01*
X4394286Y-14638429D01*
X4408571Y-14624143D01*
X4408571Y-14652714D01*
X4608571Y-14352714D02*
X4637143Y-14352714D01*
X4665714Y-14367000D01*
X4680000Y-14381286D01*
X4694286Y-14409857D01*
X4708571Y-14467000D01*
X4708571Y-14538429D01*
X4694286Y-14595571D01*
X4680000Y-14624143D01*
X4665714Y-14638429D01*
X4637143Y-14652714D01*
X4608571Y-14652714D01*
X4580000Y-14638429D01*
X4565714Y-14624143D01*
X4551428Y-14595571D01*
X4537143Y-14538429D01*
X4537143Y-14467000D01*
X4551428Y-14409857D01*
X4565714Y-14381286D01*
X4580000Y-14367000D01*
X4608571Y-14352714D01*
X4980000Y-14352714D02*
X4837143Y-14352714D01*
X4822857Y-14495571D01*
X4837143Y-14481286D01*
X4865714Y-14467000D01*
X4937143Y-14467000D01*
X4965714Y-14481286D01*
X4980000Y-14495571D01*
X4994286Y-14524143D01*
X4994286Y-14595571D01*
X4980000Y-14624143D01*
X4965714Y-14638429D01*
X4937143Y-14652714D01*
X4865714Y-14652714D01*
X4837143Y-14638429D01*
X4822857Y-14624143D01*
X5280000Y-14652714D02*
X5108571Y-14652714D01*
X5194286Y-14652714D02*
X5194286Y-14352714D01*
X5165714Y-14395571D01*
X5137143Y-14424143D01*
X5108571Y-14438429D01*
X5394286Y-14352714D02*
X5394286Y-14409857D01*
X5508571Y-14352714D02*
X5508571Y-14409857D01*
X5951428Y-14767000D02*
X5937143Y-14752714D01*
X5908571Y-14709857D01*
X5894286Y-14681286D01*
X5880000Y-14638429D01*
X5865714Y-14567000D01*
X5865714Y-14509857D01*
X5880000Y-14438429D01*
X5894286Y-14395571D01*
X5908571Y-14367000D01*
X5937143Y-14324143D01*
X5951428Y-14309857D01*
X6222857Y-14652714D02*
X6051428Y-14652714D01*
X6137143Y-14652714D02*
X6137143Y-14352714D01*
X6108571Y-14395571D01*
X6080000Y-14424143D01*
X6051428Y-14438429D01*
X6480000Y-14352714D02*
X6422857Y-14352714D01*
X6394286Y-14367000D01*
X6380000Y-14381286D01*
X6351428Y-14424143D01*
X6337143Y-14481286D01*
X6337143Y-14595571D01*
X6351428Y-14624143D01*
X6365714Y-14638429D01*
X6394286Y-14652714D01*
X6451428Y-14652714D01*
X6480000Y-14638429D01*
X6494286Y-14624143D01*
X6508571Y-14595571D01*
X6508571Y-14524143D01*
X6494286Y-14495571D01*
X6480000Y-14481286D01*
X6451428Y-14467000D01*
X6394286Y-14467000D01*
X6365714Y-14481286D01*
X6351428Y-14495571D01*
X6337143Y-14524143D01*
X6865714Y-14652714D02*
X6865714Y-14352714D01*
X6994286Y-14652714D02*
X6994286Y-14495571D01*
X6980000Y-14467000D01*
X6951428Y-14452714D01*
X6908571Y-14452714D01*
X6880000Y-14467000D01*
X6865714Y-14481286D01*
X7180000Y-14652714D02*
X7151428Y-14638429D01*
X7137143Y-14624143D01*
X7122857Y-14595571D01*
X7122857Y-14509857D01*
X7137143Y-14481286D01*
X7151428Y-14467000D01*
X7180000Y-14452714D01*
X7222857Y-14452714D01*
X7251428Y-14467000D01*
X7265714Y-14481286D01*
X7280000Y-14509857D01*
X7280000Y-14595571D01*
X7265714Y-14624143D01*
X7251428Y-14638429D01*
X7222857Y-14652714D01*
X7180000Y-14652714D01*
X7451428Y-14652714D02*
X7422857Y-14638429D01*
X7408571Y-14609857D01*
X7408571Y-14352714D01*
X7680000Y-14638429D02*
X7651428Y-14652714D01*
X7594286Y-14652714D01*
X7565714Y-14638429D01*
X7551428Y-14609857D01*
X7551428Y-14495571D01*
X7565714Y-14467000D01*
X7594286Y-14452714D01*
X7651428Y-14452714D01*
X7680000Y-14467000D01*
X7694286Y-14495571D01*
X7694286Y-14524143D01*
X7551428Y-14552714D01*
X7808571Y-14638429D02*
X7837143Y-14652714D01*
X7894286Y-14652714D01*
X7922857Y-14638429D01*
X7937143Y-14609857D01*
X7937143Y-14595571D01*
X7922857Y-14567000D01*
X7894286Y-14552714D01*
X7851428Y-14552714D01*
X7822857Y-14538429D01*
X7808571Y-14509857D01*
X7808571Y-14495571D01*
X7822857Y-14467000D01*
X7851428Y-14452714D01*
X7894286Y-14452714D01*
X7922857Y-14467000D01*
X8037143Y-14767000D02*
X8051428Y-14752714D01*
X8080000Y-14709857D01*
X8094286Y-14681286D01*
X8108571Y-14638429D01*
X8122857Y-14567000D01*
X8122857Y-14509857D01*
X8108571Y-14438429D01*
X8094286Y-14395571D01*
X8080000Y-14367000D01*
X8051428Y-14324143D01*
X8037143Y-14309857D01*
X1125000Y-14843000D02*
X1265000Y-14983000D01*
X1265000Y-14843000D02*
X1125000Y-14983000D01*
X1244498Y-14962498D02*
X1244498Y-14863502D01*
X1145502Y-14863502D01*
X1145502Y-14962498D01*
X1244498Y-14962498D01*
X1708571Y-15048714D02*
X1537143Y-15048714D01*
X1622857Y-15048714D02*
X1622857Y-14748714D01*
X1594286Y-14791571D01*
X1565714Y-14820143D01*
X1537143Y-14834429D01*
X1837143Y-15020143D02*
X1851428Y-15034429D01*
X1837143Y-15048714D01*
X1822857Y-15034429D01*
X1837143Y-15020143D01*
X1837143Y-15048714D01*
X2108571Y-14848714D02*
X2108571Y-15048714D01*
X2037143Y-14734429D02*
X1965714Y-14948714D01*
X2151428Y-14948714D01*
X2322857Y-14748714D02*
X2351428Y-14748714D01*
X2380000Y-14763000D01*
X2394286Y-14777286D01*
X2408571Y-14805857D01*
X2422857Y-14863000D01*
X2422857Y-14934429D01*
X2408571Y-14991571D01*
X2394286Y-15020143D01*
X2380000Y-15034429D01*
X2351428Y-15048714D01*
X2322857Y-15048714D01*
X2294286Y-15034429D01*
X2280000Y-15020143D01*
X2265714Y-14991571D01*
X2251428Y-14934429D01*
X2251428Y-14863000D01*
X2265714Y-14805857D01*
X2280000Y-14777286D01*
X2294286Y-14763000D01*
X2322857Y-14748714D01*
X2551428Y-15048714D02*
X2551428Y-14848714D01*
X2551428Y-14877286D02*
X2565714Y-14863000D01*
X2594286Y-14848714D01*
X2637143Y-14848714D01*
X2665714Y-14863000D01*
X2680000Y-14891571D01*
X2680000Y-15048714D01*
X2680000Y-14891571D02*
X2694286Y-14863000D01*
X2722857Y-14848714D01*
X2765714Y-14848714D01*
X2794286Y-14863000D01*
X2808571Y-14891571D01*
X2808571Y-15048714D01*
X2951428Y-15048714D02*
X2951428Y-14848714D01*
X2951428Y-14877286D02*
X2965714Y-14863000D01*
X2994286Y-14848714D01*
X3037143Y-14848714D01*
X3065714Y-14863000D01*
X3080000Y-14891571D01*
X3080000Y-15048714D01*
X3080000Y-14891571D02*
X3094286Y-14863000D01*
X3122857Y-14848714D01*
X3165714Y-14848714D01*
X3194286Y-14863000D01*
X3208571Y-14891571D01*
X3208571Y-15048714D01*
X3794286Y-14734429D02*
X3537143Y-15120143D01*
X4180000Y-14748714D02*
X4208571Y-14748714D01*
X4237143Y-14763000D01*
X4251428Y-14777286D01*
X4265714Y-14805857D01*
X4280000Y-14863000D01*
X4280000Y-14934429D01*
X4265714Y-14991571D01*
X4251428Y-15020143D01*
X4237143Y-15034429D01*
X4208571Y-15048714D01*
X4180000Y-15048714D01*
X4151428Y-15034429D01*
X4137143Y-15020143D01*
X4122857Y-14991571D01*
X4108571Y-14934429D01*
X4108571Y-14863000D01*
X4122857Y-14805857D01*
X4137143Y-14777286D01*
X4151428Y-14763000D01*
X4180000Y-14748714D01*
X4408571Y-15020143D02*
X4422857Y-15034429D01*
X4408571Y-15048714D01*
X4394286Y-15034429D01*
X4408571Y-15020143D01*
X4408571Y-15048714D01*
X4608571Y-14748714D02*
X4637143Y-14748714D01*
X4665714Y-14763000D01*
X4680000Y-14777286D01*
X4694286Y-14805857D01*
X4708571Y-14863000D01*
X4708571Y-14934429D01*
X4694286Y-14991571D01*
X4680000Y-15020143D01*
X4665714Y-15034429D01*
X4637143Y-15048714D01*
X4608571Y-15048714D01*
X4580000Y-15034429D01*
X4565714Y-15020143D01*
X4551428Y-14991571D01*
X4537143Y-14934429D01*
X4537143Y-14863000D01*
X4551428Y-14805857D01*
X4565714Y-14777286D01*
X4580000Y-14763000D01*
X4608571Y-14748714D01*
X4980000Y-14748714D02*
X4837143Y-14748714D01*
X4822857Y-14891571D01*
X4837143Y-14877286D01*
X4865714Y-14863000D01*
X4937143Y-14863000D01*
X4965714Y-14877286D01*
X4980000Y-14891571D01*
X4994286Y-14920143D01*
X4994286Y-14991571D01*
X4980000Y-15020143D01*
X4965714Y-15034429D01*
X4937143Y-15048714D01*
X4865714Y-15048714D01*
X4837143Y-15034429D01*
X4822857Y-15020143D01*
X5265714Y-14748714D02*
X5122857Y-14748714D01*
X5108571Y-14891571D01*
X5122857Y-14877286D01*
X5151428Y-14863000D01*
X5222857Y-14863000D01*
X5251428Y-14877286D01*
X5265714Y-14891571D01*
X5280000Y-14920143D01*
X5280000Y-14991571D01*
X5265714Y-15020143D01*
X5251428Y-15034429D01*
X5222857Y-15048714D01*
X5151428Y-15048714D01*
X5122857Y-15034429D01*
X5108571Y-15020143D01*
X5394286Y-14748714D02*
X5394286Y-14805857D01*
X5508571Y-14748714D02*
X5508571Y-14805857D01*
X5951428Y-15163000D02*
X5937143Y-15148714D01*
X5908571Y-15105857D01*
X5894286Y-15077286D01*
X5880000Y-15034429D01*
X5865714Y-14963000D01*
X5865714Y-14905857D01*
X5880000Y-14834429D01*
X5894286Y-14791571D01*
X5908571Y-14763000D01*
X5937143Y-14720143D01*
X5951428Y-14705857D01*
X6051428Y-14777286D02*
X6065714Y-14763000D01*
X6094286Y-14748714D01*
X6165714Y-14748714D01*
X6194286Y-14763000D01*
X6208571Y-14777286D01*
X6222857Y-14805857D01*
X6222857Y-14834429D01*
X6208571Y-14877286D01*
X6037143Y-15048714D01*
X6222857Y-15048714D01*
X6480000Y-14848714D02*
X6480000Y-15048714D01*
X6408571Y-14734429D02*
X6337143Y-14948714D01*
X6522857Y-14948714D01*
X6865714Y-15048714D02*
X6865714Y-14748714D01*
X6994286Y-15048714D02*
X6994286Y-14891571D01*
X6980000Y-14863000D01*
X6951428Y-14848714D01*
X6908571Y-14848714D01*
X6880000Y-14863000D01*
X6865714Y-14877286D01*
X7180000Y-15048714D02*
X7151428Y-15034429D01*
X7137143Y-15020143D01*
X7122857Y-14991571D01*
X7122857Y-14905857D01*
X7137143Y-14877286D01*
X7151428Y-14863000D01*
X7180000Y-14848714D01*
X7222857Y-14848714D01*
X7251428Y-14863000D01*
X7265714Y-14877286D01*
X7280000Y-14905857D01*
X7280000Y-14991571D01*
X7265714Y-15020143D01*
X7251428Y-15034429D01*
X7222857Y-15048714D01*
X7180000Y-15048714D01*
X7451428Y-15048714D02*
X7422857Y-15034429D01*
X7408571Y-15005857D01*
X7408571Y-14748714D01*
X7680000Y-15034429D02*
X7651428Y-15048714D01*
X7594286Y-15048714D01*
X7565714Y-15034429D01*
X7551428Y-15005857D01*
X7551428Y-14891571D01*
X7565714Y-14863000D01*
X7594286Y-14848714D01*
X7651428Y-14848714D01*
X7680000Y-14863000D01*
X7694286Y-14891571D01*
X7694286Y-14920143D01*
X7551428Y-14948714D01*
X7808571Y-15034429D02*
X7837143Y-15048714D01*
X7894286Y-15048714D01*
X7922857Y-15034429D01*
X7937143Y-15005857D01*
X7937143Y-14991571D01*
X7922857Y-14963000D01*
X7894286Y-14948714D01*
X7851428Y-14948714D01*
X7822857Y-14934429D01*
X7808571Y-14905857D01*
X7808571Y-14891571D01*
X7822857Y-14863000D01*
X7851428Y-14848714D01*
X7894286Y-14848714D01*
X7922857Y-14863000D01*
X8037143Y-15163000D02*
X8051428Y-15148714D01*
X8080000Y-15105857D01*
X8094286Y-15077286D01*
X8108571Y-15034429D01*
X8122857Y-14963000D01*
X8122857Y-14905857D01*
X8108571Y-14834429D01*
X8094286Y-14791571D01*
X8080000Y-14763000D01*
X8051428Y-14720143D01*
X8037143Y-14705857D01*
X1099900Y-15226450D02*
X1265000Y-15391550D01*
X1265000Y-15226450D02*
X1099900Y-15391550D01*
X1182450Y-15391550D02*
X1265000Y-15309000D01*
X1182450Y-15226450D01*
X1099900Y-15309000D01*
X1182450Y-15391550D01*
X1708571Y-15444714D02*
X1537143Y-15444714D01*
X1622857Y-15444714D02*
X1622857Y-15144714D01*
X1594286Y-15187571D01*
X1565714Y-15216143D01*
X1537143Y-15230429D01*
X1837143Y-15416143D02*
X1851428Y-15430429D01*
X1837143Y-15444714D01*
X1822857Y-15430429D01*
X1837143Y-15416143D01*
X1837143Y-15444714D01*
X2108571Y-15144714D02*
X2051428Y-15144714D01*
X2022857Y-15159000D01*
X2008571Y-15173286D01*
X1980000Y-15216143D01*
X1965714Y-15273286D01*
X1965714Y-15387571D01*
X1980000Y-15416143D01*
X1994286Y-15430429D01*
X2022857Y-15444714D01*
X2080000Y-15444714D01*
X2108571Y-15430429D01*
X2122857Y-15416143D01*
X2137143Y-15387571D01*
X2137143Y-15316143D01*
X2122857Y-15287571D01*
X2108571Y-15273286D01*
X2080000Y-15259000D01*
X2022857Y-15259000D01*
X1994286Y-15273286D01*
X1980000Y-15287571D01*
X1965714Y-15316143D01*
X2408571Y-15144714D02*
X2265714Y-15144714D01*
X2251428Y-15287571D01*
X2265714Y-15273286D01*
X2294286Y-15259000D01*
X2365714Y-15259000D01*
X2394286Y-15273286D01*
X2408571Y-15287571D01*
X2422857Y-15316143D01*
X2422857Y-15387571D01*
X2408571Y-15416143D01*
X2394286Y-15430429D01*
X2365714Y-15444714D01*
X2294286Y-15444714D01*
X2265714Y-15430429D01*
X2251428Y-15416143D01*
X2551428Y-15444714D02*
X2551428Y-15244714D01*
X2551428Y-15273286D02*
X2565714Y-15259000D01*
X2594286Y-15244714D01*
X2637143Y-15244714D01*
X2665714Y-15259000D01*
X2680000Y-15287571D01*
X2680000Y-15444714D01*
X2680000Y-15287571D02*
X2694286Y-15259000D01*
X2722857Y-15244714D01*
X2765714Y-15244714D01*
X2794286Y-15259000D01*
X2808571Y-15287571D01*
X2808571Y-15444714D01*
X2951428Y-15444714D02*
X2951428Y-15244714D01*
X2951428Y-15273286D02*
X2965714Y-15259000D01*
X2994286Y-15244714D01*
X3037143Y-15244714D01*
X3065714Y-15259000D01*
X3080000Y-15287571D01*
X3080000Y-15444714D01*
X3080000Y-15287571D02*
X3094286Y-15259000D01*
X3122857Y-15244714D01*
X3165714Y-15244714D01*
X3194286Y-15259000D01*
X3208571Y-15287571D01*
X3208571Y-15444714D01*
X3794286Y-15130429D02*
X3537143Y-15516143D01*
X4180000Y-15144714D02*
X4208571Y-15144714D01*
X4237143Y-15159000D01*
X4251428Y-15173286D01*
X4265714Y-15201857D01*
X4280000Y-15259000D01*
X4280000Y-15330429D01*
X4265714Y-15387571D01*
X4251428Y-15416143D01*
X4237143Y-15430429D01*
X4208571Y-15444714D01*
X4180000Y-15444714D01*
X4151428Y-15430429D01*
X4137143Y-15416143D01*
X4122857Y-15387571D01*
X4108571Y-15330429D01*
X4108571Y-15259000D01*
X4122857Y-15201857D01*
X4137143Y-15173286D01*
X4151428Y-15159000D01*
X4180000Y-15144714D01*
X4408571Y-15416143D02*
X4422857Y-15430429D01*
X4408571Y-15444714D01*
X4394286Y-15430429D01*
X4408571Y-15416143D01*
X4408571Y-15444714D01*
X4608571Y-15144714D02*
X4637143Y-15144714D01*
X4665714Y-15159000D01*
X4680000Y-15173286D01*
X4694286Y-15201857D01*
X4708571Y-15259000D01*
X4708571Y-15330429D01*
X4694286Y-15387571D01*
X4680000Y-15416143D01*
X4665714Y-15430429D01*
X4637143Y-15444714D01*
X4608571Y-15444714D01*
X4580000Y-15430429D01*
X4565714Y-15416143D01*
X4551428Y-15387571D01*
X4537143Y-15330429D01*
X4537143Y-15259000D01*
X4551428Y-15201857D01*
X4565714Y-15173286D01*
X4580000Y-15159000D01*
X4608571Y-15144714D01*
X4965714Y-15144714D02*
X4908571Y-15144714D01*
X4880000Y-15159000D01*
X4865714Y-15173286D01*
X4837143Y-15216143D01*
X4822857Y-15273286D01*
X4822857Y-15387571D01*
X4837143Y-15416143D01*
X4851428Y-15430429D01*
X4880000Y-15444714D01*
X4937143Y-15444714D01*
X4965714Y-15430429D01*
X4980000Y-15416143D01*
X4994286Y-15387571D01*
X4994286Y-15316143D01*
X4980000Y-15287571D01*
X4965714Y-15273286D01*
X4937143Y-15259000D01*
X4880000Y-15259000D01*
X4851428Y-15273286D01*
X4837143Y-15287571D01*
X4822857Y-15316143D01*
X5265714Y-15144714D02*
X5122857Y-15144714D01*
X5108571Y-15287571D01*
X5122857Y-15273286D01*
X5151428Y-15259000D01*
X5222857Y-15259000D01*
X5251428Y-15273286D01*
X5265714Y-15287571D01*
X5280000Y-15316143D01*
X5280000Y-15387571D01*
X5265714Y-15416143D01*
X5251428Y-15430429D01*
X5222857Y-15444714D01*
X5151428Y-15444714D01*
X5122857Y-15430429D01*
X5108571Y-15416143D01*
X5394286Y-15144714D02*
X5394286Y-15201857D01*
X5508571Y-15144714D02*
X5508571Y-15201857D01*
X5951428Y-15559000D02*
X5937143Y-15544714D01*
X5908571Y-15501857D01*
X5894286Y-15473286D01*
X5880000Y-15430429D01*
X5865714Y-15359000D01*
X5865714Y-15301857D01*
X5880000Y-15230429D01*
X5894286Y-15187571D01*
X5908571Y-15159000D01*
X5937143Y-15116143D01*
X5951428Y-15101857D01*
X6051428Y-15173286D02*
X6065714Y-15159000D01*
X6094286Y-15144714D01*
X6165714Y-15144714D01*
X6194286Y-15159000D01*
X6208571Y-15173286D01*
X6222857Y-15201857D01*
X6222857Y-15230429D01*
X6208571Y-15273286D01*
X6037143Y-15444714D01*
X6222857Y-15444714D01*
X6580000Y-15444714D02*
X6580000Y-15144714D01*
X6708571Y-15444714D02*
X6708571Y-15287571D01*
X6694286Y-15259000D01*
X6665714Y-15244714D01*
X6622857Y-15244714D01*
X6594286Y-15259000D01*
X6580000Y-15273286D01*
X6894286Y-15444714D02*
X6865714Y-15430429D01*
X6851428Y-15416143D01*
X6837143Y-15387571D01*
X6837143Y-15301857D01*
X6851428Y-15273286D01*
X6865714Y-15259000D01*
X6894286Y-15244714D01*
X6937143Y-15244714D01*
X6965714Y-15259000D01*
X6980000Y-15273286D01*
X6994286Y-15301857D01*
X6994286Y-15387571D01*
X6980000Y-15416143D01*
X6965714Y-15430429D01*
X6937143Y-15444714D01*
X6894286Y-15444714D01*
X7165714Y-15444714D02*
X7137143Y-15430429D01*
X7122857Y-15401857D01*
X7122857Y-15144714D01*
X7394286Y-15430429D02*
X7365714Y-15444714D01*
X7308571Y-15444714D01*
X7280000Y-15430429D01*
X7265714Y-15401857D01*
X7265714Y-15287571D01*
X7280000Y-15259000D01*
X7308571Y-15244714D01*
X7365714Y-15244714D01*
X7394286Y-15259000D01*
X7408571Y-15287571D01*
X7408571Y-15316143D01*
X7265714Y-15344714D01*
X7522857Y-15430429D02*
X7551428Y-15444714D01*
X7608571Y-15444714D01*
X7637143Y-15430429D01*
X7651428Y-15401857D01*
X7651428Y-15387571D01*
X7637143Y-15359000D01*
X7608571Y-15344714D01*
X7565714Y-15344714D01*
X7537143Y-15330429D01*
X7522857Y-15301857D01*
X7522857Y-15287571D01*
X7537143Y-15259000D01*
X7565714Y-15244714D01*
X7608571Y-15244714D01*
X7637143Y-15259000D01*
X7751428Y-15559000D02*
X7765714Y-15544714D01*
X7794286Y-15501857D01*
X7808571Y-15473286D01*
X7822857Y-15430429D01*
X7837143Y-15359000D01*
X7837143Y-15301857D01*
X7822857Y-15230429D01*
X7808571Y-15187571D01*
X7794286Y-15159000D01*
X7765714Y-15116143D01*
X7751428Y-15101857D01*
X1105000Y-15545000D02*
X1105000Y-15865000D01*
X945000Y-15705000D02*
X1265000Y-15705000D01*
X1265000Y-15705000D02*
G75*
G03X1265000Y-15705000I-160000J0D01*
G01*
X1522857Y-15540714D02*
X1708571Y-15540714D01*
X1608571Y-15655000D01*
X1651428Y-15655000D01*
X1680000Y-15669286D01*
X1694286Y-15683571D01*
X1708571Y-15712143D01*
X1708571Y-15783571D01*
X1694286Y-15812143D01*
X1680000Y-15826429D01*
X1651428Y-15840714D01*
X1565714Y-15840714D01*
X1537143Y-15826429D01*
X1522857Y-15812143D01*
X1837143Y-15812143D02*
X1851428Y-15826429D01*
X1837143Y-15840714D01*
X1822857Y-15826429D01*
X1837143Y-15812143D01*
X1837143Y-15840714D01*
X1965714Y-15569286D02*
X1980000Y-15555000D01*
X2008571Y-15540714D01*
X2080000Y-15540714D01*
X2108571Y-15555000D01*
X2122857Y-15569286D01*
X2137143Y-15597857D01*
X2137143Y-15626429D01*
X2122857Y-15669286D01*
X1951428Y-15840714D01*
X2137143Y-15840714D01*
X2322857Y-15540714D02*
X2351428Y-15540714D01*
X2380000Y-15555000D01*
X2394286Y-15569286D01*
X2408571Y-15597857D01*
X2422857Y-15655000D01*
X2422857Y-15726429D01*
X2408571Y-15783571D01*
X2394286Y-15812143D01*
X2380000Y-15826429D01*
X2351428Y-15840714D01*
X2322857Y-15840714D01*
X2294286Y-15826429D01*
X2280000Y-15812143D01*
X2265714Y-15783571D01*
X2251428Y-15726429D01*
X2251428Y-15655000D01*
X2265714Y-15597857D01*
X2280000Y-15569286D01*
X2294286Y-15555000D01*
X2322857Y-15540714D01*
X2551428Y-15840714D02*
X2551428Y-15640714D01*
X2551428Y-15669286D02*
X2565714Y-15655000D01*
X2594286Y-15640714D01*
X2637143Y-15640714D01*
X2665714Y-15655000D01*
X2680000Y-15683571D01*
X2680000Y-15840714D01*
X2680000Y-15683571D02*
X2694286Y-15655000D01*
X2722857Y-15640714D01*
X2765714Y-15640714D01*
X2794286Y-15655000D01*
X2808571Y-15683571D01*
X2808571Y-15840714D01*
X2951428Y-15840714D02*
X2951428Y-15640714D01*
X2951428Y-15669286D02*
X2965714Y-15655000D01*
X2994286Y-15640714D01*
X3037143Y-15640714D01*
X3065714Y-15655000D01*
X3080000Y-15683571D01*
X3080000Y-15840714D01*
X3080000Y-15683571D02*
X3094286Y-15655000D01*
X3122857Y-15640714D01*
X3165714Y-15640714D01*
X3194286Y-15655000D01*
X3208571Y-15683571D01*
X3208571Y-15840714D01*
X3794286Y-15526429D02*
X3537143Y-15912143D01*
X4180000Y-15540714D02*
X4208571Y-15540714D01*
X4237143Y-15555000D01*
X4251428Y-15569286D01*
X4265714Y-15597857D01*
X4280000Y-15655000D01*
X4280000Y-15726429D01*
X4265714Y-15783571D01*
X4251428Y-15812143D01*
X4237143Y-15826429D01*
X4208571Y-15840714D01*
X4180000Y-15840714D01*
X4151428Y-15826429D01*
X4137143Y-15812143D01*
X4122857Y-15783571D01*
X4108571Y-15726429D01*
X4108571Y-15655000D01*
X4122857Y-15597857D01*
X4137143Y-15569286D01*
X4151428Y-15555000D01*
X4180000Y-15540714D01*
X4408571Y-15812143D02*
X4422857Y-15826429D01*
X4408571Y-15840714D01*
X4394286Y-15826429D01*
X4408571Y-15812143D01*
X4408571Y-15840714D01*
X4708571Y-15840714D02*
X4537143Y-15840714D01*
X4622857Y-15840714D02*
X4622857Y-15540714D01*
X4594286Y-15583571D01*
X4565714Y-15612143D01*
X4537143Y-15626429D01*
X4822857Y-15569286D02*
X4837143Y-15555000D01*
X4865714Y-15540714D01*
X4937143Y-15540714D01*
X4965714Y-15555000D01*
X4980000Y-15569286D01*
X4994286Y-15597857D01*
X4994286Y-15626429D01*
X4980000Y-15669286D01*
X4808571Y-15840714D01*
X4994286Y-15840714D01*
X5251428Y-15540714D02*
X5194286Y-15540714D01*
X5165714Y-15555000D01*
X5151428Y-15569286D01*
X5122857Y-15612143D01*
X5108571Y-15669286D01*
X5108571Y-15783571D01*
X5122857Y-15812143D01*
X5137143Y-15826429D01*
X5165714Y-15840714D01*
X5222857Y-15840714D01*
X5251428Y-15826429D01*
X5265714Y-15812143D01*
X5280000Y-15783571D01*
X5280000Y-15712143D01*
X5265714Y-15683571D01*
X5251428Y-15669286D01*
X5222857Y-15655000D01*
X5165714Y-15655000D01*
X5137143Y-15669286D01*
X5122857Y-15683571D01*
X5108571Y-15712143D01*
X5394286Y-15540714D02*
X5394286Y-15597857D01*
X5508571Y-15540714D02*
X5508571Y-15597857D01*
X5951428Y-15955000D02*
X5937143Y-15940714D01*
X5908571Y-15897857D01*
X5894286Y-15869286D01*
X5880000Y-15826429D01*
X5865714Y-15755000D01*
X5865714Y-15697857D01*
X5880000Y-15626429D01*
X5894286Y-15583571D01*
X5908571Y-15555000D01*
X5937143Y-15512143D01*
X5951428Y-15497857D01*
X6051428Y-15569286D02*
X6065714Y-15555000D01*
X6094286Y-15540714D01*
X6165714Y-15540714D01*
X6194286Y-15555000D01*
X6208571Y-15569286D01*
X6222857Y-15597857D01*
X6222857Y-15626429D01*
X6208571Y-15669286D01*
X6037143Y-15840714D01*
X6222857Y-15840714D01*
X6580000Y-15840714D02*
X6580000Y-15540714D01*
X6708571Y-15840714D02*
X6708571Y-15683571D01*
X6694286Y-15655000D01*
X6665714Y-15640714D01*
X6622857Y-15640714D01*
X6594286Y-15655000D01*
X6580000Y-15669286D01*
X6894286Y-15840714D02*
X6865714Y-15826429D01*
X6851428Y-15812143D01*
X6837143Y-15783571D01*
X6837143Y-15697857D01*
X6851428Y-15669286D01*
X6865714Y-15655000D01*
X6894286Y-15640714D01*
X6937143Y-15640714D01*
X6965714Y-15655000D01*
X6980000Y-15669286D01*
X6994286Y-15697857D01*
X6994286Y-15783571D01*
X6980000Y-15812143D01*
X6965714Y-15826429D01*
X6937143Y-15840714D01*
X6894286Y-15840714D01*
X7165714Y-15840714D02*
X7137143Y-15826429D01*
X7122857Y-15797857D01*
X7122857Y-15540714D01*
X7394286Y-15826429D02*
X7365714Y-15840714D01*
X7308571Y-15840714D01*
X7280000Y-15826429D01*
X7265714Y-15797857D01*
X7265714Y-15683571D01*
X7280000Y-15655000D01*
X7308571Y-15640714D01*
X7365714Y-15640714D01*
X7394286Y-15655000D01*
X7408571Y-15683571D01*
X7408571Y-15712143D01*
X7265714Y-15740714D01*
X7522857Y-15826429D02*
X7551428Y-15840714D01*
X7608571Y-15840714D01*
X7637143Y-15826429D01*
X7651428Y-15797857D01*
X7651428Y-15783571D01*
X7637143Y-15755000D01*
X7608571Y-15740714D01*
X7565714Y-15740714D01*
X7537143Y-15726429D01*
X7522857Y-15697857D01*
X7522857Y-15683571D01*
X7537143Y-15655000D01*
X7565714Y-15640714D01*
X7608571Y-15640714D01*
X7637143Y-15655000D01*
X7751428Y-15955000D02*
X7765714Y-15940714D01*
X7794286Y-15897857D01*
X7808571Y-15869286D01*
X7822857Y-15826429D01*
X7837143Y-15755000D01*
X7837143Y-15697857D01*
X7822857Y-15626429D01*
X7808571Y-15583571D01*
X7794286Y-15555000D01*
X7765714Y-15512143D01*
X7751428Y-15497857D01*
M02*
